<mxfile host="app.diagrams.net" modified="2023-08-20T14:03:23.388Z" agent="Mozilla/5.0 (Windows NT 10.0; Win64; x64) AppleWebKit/537.36 (KHTML, like Gecko) Chrome/115.0.0.0 Safari/537.36 Edg/115.0.1901.203" etag="7FOQA4uhKQq7PwTT4Iae" version="21.6.8" type="github">
  <diagram name="Page-1" id="Page-1">
    <mxGraphModel dx="1276" dy="711" grid="1" gridSize="10" guides="1" tooltips="1" connect="1" arrows="1" fold="1" page="1" pageScale="1" pageWidth="850" pageHeight="1100" math="0" shadow="0">
      <root>
        <mxCell id="0" />
        <mxCell id="1" parent="0" />
        <UserObject label="&lt;div style=&quot;font-size: 1px&quot;&gt;&lt;font style=&quot;font-size:14.11px;font-family:Calibri;color:#000000;direction:ltr;letter-spacing:0px;line-height:120%;opacity:1&quot;&gt;Pega Cluster&lt;br&gt;&lt;/font&gt;&lt;/div&gt;" tags="Background" id="2">
          <mxCell style="verticalAlign=top;align=center;overflow=width;vsdxID=2;fillColor=#ffe6cc;shape=stencil(nZBLDsIwDAVP4y0yzoIDlHIBThARQyxCUqXhe3rSukhVFyy6s98by9KAaXpvOwbCvuR05ae44sHsgUii5yylTmBaMM05Zb7kdI9O985WknBM2OnNdqAJbT4d5cNTRpudxnp3S4/h30tb1Oo9saj7QdEgcYb+ylXwH3QluHhfh9GIupIQVOi8Xxqskdo37Rc=);dashed=1;strokeColor=#d79b00;points=[[0.5,1,0],[1,0.5,0],[0.5,0,0],[0,0.5,0],[0.5,0.5,0]];labelBackgroundColor=none;rounded=1;html=1;whiteSpace=wrap;" parent="1" vertex="1">
            <mxGeometry x="282.5" y="277" width="584" height="106" as="geometry" />
          </mxCell>
        </UserObject>
        <UserObject label="&lt;div style=&quot;font-size: 1px&quot;&gt;&lt;font style=&quot;font-size:14.11px;font-family:Calibri;color:#000000;direction:ltr;letter-spacing:0px;line-height:120%;opacity:1&quot;&gt;Enterprise Service Bus (ESB) and Message Queue&lt;br/&gt;&lt;/font&gt;&lt;/div&gt;" tags="Background" id="4">
          <mxCell style="verticalAlign=top;align=center;overflow=width;vsdxID=3;fillColor=#ffe6cc;shape=stencil(nZBLDsIwDAVP4y0yzoIDlHIBThARQyxCUqXhe3rSukhVFyy6s98by9KAaXpvOwbCvuR05ae44sHsgUii5yylTmBaMM05Zb7kdI9O985WknBM2OnNdqAJbT4d5cNTRpudxnp3S4/h30tb1Oo9saj7QdEgcYb+ylXwH3QluHhfh9GIupIQVOi8Xxqskdo37Rc=);dashed=1;strokeColor=#d79b00;points=[[0.5,1,0],[1,0.5,0],[0.5,0,0],[0,0.5,0],[0.5,0.5,0]];labelBackgroundColor=none;rounded=1;html=1;whiteSpace=wrap;" parent="1" vertex="1">
            <mxGeometry x="282.5" y="440" width="584" height="30" as="geometry" />
          </mxCell>
        </UserObject>
        <UserObject label="" tags="Background" id="204">
          <mxCell style="vsdxID=6;edgeStyle=none;dashed=1;startArrow=none;endArrow=none;startSize=5;endSize=5;strokeWidth=2;strokeColor=#9dbb61;spacingTop=0;spacingBottom=0;spacingLeft=0;spacingRight=0;verticalAlign=top;html=1;labelBackgroundColor=#ffffff;rounded=0;" parent="1" edge="1">
            <mxGeometry relative="1" as="geometry">
              <mxPoint x="-1" as="offset" />
              <Array as="points" />
              <mxPoint x="136.5" y="413" as="sourcePoint" />
              <mxPoint x="993.5" y="413" as="targetPoint" />
            </mxGeometry>
          </mxCell>
        </UserObject>
        <UserObject label="&lt;div style=&quot;font-size: 1px&quot;&gt;&lt;font style=&quot;font-size:16.93px;font-family:Calibri;color:#000000;direction:ltr;letter-spacing:0px;line-height:120%;opacity:1&quot;&gt;Internal Zone&lt;br/&gt;&lt;/font&gt;&lt;/div&gt;" tags="Background" id="7">
          <mxCell style="verticalAlign=top;align=center;overflow=width;vsdxID=7;fillColor=none;gradientColor=none;shape=stencil(nZBLDoAgDERP0z3SIyjew0SURgSD+Lu9kMZoXLhwN9O+tukAlrNpJg1SzDH4QW/URgNYgZTkjA4UkwJUgGXng+6DX1zLfmoymdXo17xh5zmRJ6Q42BWCfc2oJfdAr+Yv+AP9Cb7OJ3H/2JG1HNGz/84klThPVCc=);strokeColor=none;points=[];labelBackgroundColor=none;rounded=0;html=1;whiteSpace=wrap;" parent="1" vertex="1">
            <mxGeometry x="136.5" y="463" width="101" height="50" as="geometry" />
          </mxCell>
        </UserObject>
        <UserObject label="&lt;div style=&quot;font-size: 1px&quot;&gt;&lt;font style=&quot;font-size:16.93px;font-family:Calibri;color:#000000;direction:ltr;letter-spacing:0px;line-height:120%;opacity:1&quot;&gt;App Zone&lt;br&gt;&lt;/font&gt;&lt;/div&gt;" tags="Background" id="8">
          <mxCell style="verticalAlign=top;align=center;overflow=width;vsdxID=8;fillColor=none;gradientColor=none;shape=stencil(nZBLDoAgDERP0z3SIyjew0SURgSD+Lu9kMZoXLhwN9O+tukAlrNpJg1SzDH4QW/URgNYgZTkjA4UkwJUgGXng+6DX1zLfmoymdXo17xh5zmRJ6Q42BWCfc2oJfdAr+Yv+AP9Cb7OJ3H/2JG1HNGz/84klThPVCc=);strokeColor=none;points=[];labelBackgroundColor=none;rounded=0;html=1;whiteSpace=wrap;" parent="1" vertex="1">
            <mxGeometry x="136.5" y="296" width="101" height="50" as="geometry" />
          </mxCell>
        </UserObject>
        <UserObject label="&lt;div style=&quot;font-size: 1px&quot;&gt;&lt;font style=&quot;font-size:16.93px;font-family:Calibri;color:#000000;direction:ltr;letter-spacing:0px;line-height:120%;opacity:1&quot;&gt;DMZ Zone&lt;br&gt;&lt;/font&gt;&lt;/div&gt;" tags="Background" id="9">
          <mxCell style="verticalAlign=top;align=center;overflow=width;vsdxID=10;fillColor=none;gradientColor=none;shape=stencil(nZBLDoAgDERP0z3SIyjew0SURgSD+Lu9kMZoXLhwN9O+tukAlrNpJg1SzDH4QW/URgNYgZTkjA4UkwJUgGXng+6DX1zLfmoymdXo17xh5zmRJ6Q42BWCfc2oJfdAr+Yv+AP9Cb7OJ3H/2JG1HNGz/84klThPVCc=);strokeColor=none;points=[];labelBackgroundColor=none;rounded=0;html=1;whiteSpace=wrap;" parent="1" vertex="1">
            <mxGeometry x="136.5" y="132" width="101" height="50" as="geometry" />
          </mxCell>
        </UserObject>
        <UserObject label="&lt;div style=&quot;font-size: 1px&quot;&gt;&lt;font style=&quot;font-size:14.11px;font-family:Calibri;color:#000000;direction:ltr;letter-spacing:0px;line-height:120%;opacity:1&quot;&gt;Apache/OHS&amp;nbsp;&lt;br&gt;&lt;/font&gt;&lt;/div&gt;" tags="Background" id="10">
          <mxCell style="verticalAlign=top;align=center;overflow=width;vsdxID=11;fillColor=#dae8fc;shape=stencil(nZBLDsIwDAVP4y0yzoIDlHIBThARQyxCUqXhe3rSukhVFyy6s98by9KAaXpvOwbCvuR05ae44sHsgUii5yylTmBaMM05Zb7kdI9O985WknBM2OnNdqAJbT4d5cNTRpudxnp3S4/h30tb1Oo9saj7QdEgcYb+ylXwH3QluHhfh9GIupIQVOi8Xxqskdo37Rc=);dashed=1;strokeColor=#6c8ebf;points=[[0.5,1,0],[1,0.5,0],[0.5,0,0],[0,0.5,0],[0.5,0.5,0]];labelBackgroundColor=none;rounded=1;html=1;whiteSpace=wrap;" parent="1" vertex="1">
            <mxGeometry x="282.5" y="108" width="584" height="117" as="geometry" />
          </mxCell>
        </UserObject>
        <UserObject label="" tags="Background" id="23">
          <mxCell style="vsdxID=22;fillColor=#c4d6a0;gradientColor=none;shape=stencil(vVHRDsIgDPwaHkkQ4hfM+R+N6xgRx1LQ4d8LKcZpfPLBt7veXdu0wnRxggWFVjFROOPqhjQJcxBau3lCcqkgYXphujEQWgrXeWC+QHVWdAm32iFzTtWEVndmO6ZHdgKdikTNqfdspeZtND+TXzupLCG7KCkkSC7Mb0M9kEVZpsjRg205luKKuGzKP+/1v60KeB15dN7zj7b651NKiR9q+gc=);points=[[1,0.5,0],[0.5,0.5,0],[0.5,0,0],[0.5,0.2,0]];labelBackgroundColor=none;rounded=0;html=1;whiteSpace=wrap;" parent="1" vertex="1">
            <mxGeometry x="890" y="297" width="95" height="63" as="geometry" />
          </mxCell>
        </UserObject>
        <mxCell id="24" style="vsdxID=23;fillColor=#c4d6a0;gradientColor=none;shape=stencil(nZHBDsIgDIafhiMJg3jwPOd7ENdtRISloMO3F1KMm1EP3vq3X/s3LVNtmPQMTIoQ0Z9hMX2cmDowKY2bAE3MEVMdU+3gEUb0V9eTnnUhS3TxtzIhUZ8oHVLcSe1JHonUeMolrOSuoljZpur0lB9HicR1MoGjjzoa7zauVuMIPNvwweqxzqFSWADmVXqzmDUOvjs3P9h/ye1hcvC652CspXes6+/3zyn6neoe);points=[[0,0.5,0],[1,0.5,0],[0.5,1,0],[0.5,0,0],[0.5,0.2,0]];labelBackgroundColor=none;rounded=0;html=1;whiteSpace=wrap;" parent="23" vertex="1">
          <mxGeometry width="95" height="63" as="geometry" />
        </mxCell>
        <mxCell id="25" value="&lt;div style=&quot;font-size: 1px&quot;&gt;&lt;font style=&quot;font-size:14.11px;font-family:Calibri;color:#000000;direction:ltr;letter-spacing:0px;line-height:120%;opacity:1&quot;&gt;Database&lt;br&gt;&lt;/font&gt;&lt;/div&gt;" style="text;vsdxID=22;fillColor=none;gradientColor=none;points=[[1,0.5,0],[0.5,0.5,0],[0.5,0,0],[0.5,0.2,0]];labelBackgroundColor=none;rounded=0;html=1;whiteSpace=wrap;verticalAlign=middle;align=center;overflow=width;strokeColor=none;;html=1;" parent="23" vertex="1">
          <mxGeometry y="-0.5" width="95.25" height="63.5" as="geometry" />
        </mxCell>
        <UserObject label="" tags="Background" id="211">
          <mxCell style="vsdxID=31;edgeStyle=none;startArrow=blockThin;endArrow=blockThin;startSize=5;endSize=5;strokeWidth=2;strokeColor=#789440;spacingTop=0;spacingBottom=0;spacingLeft=0;spacingRight=0;verticalAlign=top;html=1;labelBackgroundColor=#ffffff;rounded=0;" parent="1" edge="1">
            <mxGeometry relative="1" as="geometry">
              <Array as="points" />
              <mxPoint x="435.5" y="384" as="sourcePoint" />
              <mxPoint x="435.5" y="440" as="targetPoint" />
            </mxGeometry>
          </mxCell>
        </UserObject>
        <UserObject label="" tags="Background" id="212">
          <mxCell style="vsdxID=32;edgeStyle=none;startArrow=blockThin;endArrow=blockThin;startSize=5;endSize=5;strokeWidth=2;strokeColor=#789440;spacingTop=0;spacingBottom=0;spacingLeft=0;spacingRight=0;verticalAlign=top;html=1;labelBackgroundColor=#ffffff;rounded=0;" parent="1" edge="1">
            <mxGeometry relative="1" as="geometry">
              <Array as="points" />
              <mxPoint x="495.5" y="384" as="sourcePoint" />
              <mxPoint x="495.5" y="440" as="targetPoint" />
            </mxGeometry>
          </mxCell>
        </UserObject>
        <UserObject label="" tags="Background" id="213">
          <mxCell style="vsdxID=33;edgeStyle=none;startArrow=blockThin;endArrow=blockThin;startSize=5;endSize=5;strokeWidth=2;strokeColor=#789440;spacingTop=0;spacingBottom=0;spacingLeft=0;spacingRight=0;verticalAlign=top;html=1;labelBackgroundColor=#ffffff;rounded=0;" parent="1" edge="1">
            <mxGeometry relative="1" as="geometry">
              <Array as="points" />
              <mxPoint x="555.5" y="384" as="sourcePoint" />
              <mxPoint x="555.5" y="439" as="targetPoint" />
            </mxGeometry>
          </mxCell>
        </UserObject>
        <UserObject label="" tags="Background" id="214">
          <mxCell style="vsdxID=34;edgeStyle=none;startArrow=blockThin;endArrow=blockThin;startSize=5;endSize=5;strokeWidth=2;strokeColor=#789440;spacingTop=0;spacingBottom=0;spacingLeft=0;spacingRight=0;verticalAlign=top;html=1;labelBackgroundColor=#ffffff;rounded=0;" parent="1" edge="1">
            <mxGeometry relative="1" as="geometry">
              <Array as="points" />
              <mxPoint x="619.5" y="384" as="sourcePoint" />
              <mxPoint x="619.5" y="440" as="targetPoint" />
            </mxGeometry>
          </mxCell>
        </UserObject>
        <UserObject label="" tags="Background" id="215">
          <mxCell style="vsdxID=35;edgeStyle=none;startArrow=blockThin;endArrow=blockThin;startSize=5;endSize=5;strokeWidth=2;strokeColor=#789440;spacingTop=0;spacingBottom=0;spacingLeft=0;spacingRight=0;verticalAlign=top;html=1;labelBackgroundColor=#ffffff;rounded=0;" parent="1" edge="1">
            <mxGeometry relative="1" as="geometry">
              <Array as="points" />
              <mxPoint x="682.5" y="384" as="sourcePoint" />
              <mxPoint x="682.5" y="440" as="targetPoint" />
            </mxGeometry>
          </mxCell>
        </UserObject>
        <UserObject label="&lt;div style=&quot;font-size: 1px&quot;&gt;&lt;font style=&quot;font-size:11.29px;font-family:Calibri;color:#000000;direction:ltr;letter-spacing:0px;line-height:120%;opacity:1&quot;&gt;APP Zone&lt;/font&gt;&lt;font style=&quot;font-size:11.29px;font-family:Calibri;color:#000000;direction:ltr;letter-spacing:0px;line-height:120%;opacity:1&quot;&gt;&lt;br&gt;&lt;/font&gt;&lt;/div&gt;" tags="Background" id="29">
          <mxCell style="verticalAlign=top;align=left;overflow=width;vsdxID=1096;fillColor=#f0f0f0;gradientColor=#ffffff;gradientDirection=north;shape=stencil(nZBLDoAgDERP0z3SIyjew0SURgSD+Lu9kMZoXLhwN9O+tukAlrNpJg1SzDH4QW/URgNYgZTkjA4UkwJUgGXng+6DX1zLfmoymdXo17xh5zmRJ6Q42BWCfc2oJfdAr+Yv+AP9Cb7OJ3H/2JG1HNGz/84klThPVCc=);strokeColor=#404040;shadow=1;points=[[1,0.5,0],[0.5,0,0],[0.5,0.5,0],[0.5,0.5,0]];labelBackgroundColor=none;rounded=0;html=1;whiteSpace=wrap;" parent="1" vertex="1">
            <mxGeometry x="139" y="1388" width="812" height="670" as="geometry" />
          </mxCell>
        </UserObject>
        <UserObject label="&lt;div style=&quot;font-size: 1px&quot;&gt;&lt;font style=&quot;font-size:11.29px;font-family:Calibri;color:#000000;direction:ltr;letter-spacing:0px;line-height:120%;opacity:1&quot;&gt;DMZ Zone&lt;/font&gt;&lt;font style=&quot;font-size:11.29px;font-family:Calibri;color:#000000;direction:ltr;letter-spacing:0px;line-height:120%;opacity:1&quot;&gt;&lt;br/&gt;&lt;/font&gt;&lt;/div&gt;" tags="Background" id="31">
          <mxCell style="verticalAlign=top;align=left;overflow=width;vsdxID=1098;fillColor=#f0f0f0;gradientColor=#ffffff;gradientDirection=north;shape=stencil(nZBLDoAgDERP0z3SIyjew0SURgSD+Lu9kMZoXLhwN9O+tukAlrNpJg1SzDH4QW/URgNYgZTkjA4UkwJUgGXng+6DX1zLfmoymdXo17xh5zmRJ6Q42BWCfc2oJfdAr+Yv+AP9Cb7OJ3H/2JG1HNGz/84klThPVCc=);strokeColor=#404040;shadow=1;points=[[1,0.5,0],[0.5,0,0],[0.5,0.5,0],[0.5,0.5,0]];labelBackgroundColor=none;rounded=0;html=1;whiteSpace=wrap;" parent="1" vertex="1">
            <mxGeometry x="142" y="864" width="788" height="226" as="geometry" />
          </mxCell>
        </UserObject>
        <UserObject label="&lt;div style=&quot;font-size: 1px&quot;&gt;&lt;font style=&quot;font-size:11.29px;font-family:Calibri;color:#000000;direction:ltr;letter-spacing:0px;line-height:120%;opacity:1&quot;&gt;WebUser Nodes&lt;br&gt;&lt;/font&gt;&lt;/div&gt;" tags="Background" id="33">
          <mxCell style="verticalAlign=top;align=center;overflow=width;vsdxID=1100;fillColor=#8fa350;gradientColor=none;fillOpacity=20;shape=stencil(vVPLlsIgDP0aluUgtFO71s5/cJS2nMHSk+JY/15qcBQ7OKtxl8cN4Sa5RGzGTg6KcDY6sF/qpPeuI2JLONd9p0A7bxFRE7FpLKgW7LHfoz/IGTlbB/s9vzBhXVVSXs1VnJ0xsmLs6n8iXMLO5yDAOS0FoiHAK1p8YGSK62/vVYwWoWbK5KTHDKyTTtse8wFtJLQq892yxsg2So0npYZFOPzP6F69aE7z8hWbnMds1jSP2Sznw97Fxc969UvnBJNi/bwXlkdMEoN5A5HUPaQubMHkdnOpwfxs/f+5/KkXb9y11mhjUKqP+Wdt+hDqWtQX);strokeColor=#404040;shadow=1;points=[[0.5,0,0],[0.5,0,0],[0.5,0.5,0],[1,0.5,0],[0.5,0.5,0]];labelBackgroundColor=none;rounded=0;html=1;whiteSpace=wrap;" parent="1" vertex="1">
            <mxGeometry x="190" y="1407" width="630" height="173" as="geometry" />
          </mxCell>
        </UserObject>
        <UserObject label="&lt;div style=&quot;font-size: 1px&quot;&gt;&lt;font style=&quot;font-size:33.87px;font-family:Calibri;color:#000000;direction:ltr;letter-spacing:0px;line-height:120%;opacity:1&quot;&gt;Production Environment&lt;br/&gt;&lt;/font&gt;&lt;/div&gt;" tags="Background" id="34">
          <mxCell style="verticalAlign=middle;align=center;overflow=width;vsdxID=1101;fillColor=#dae8fc;gradientDirection=north;shape=stencil(nZBLDoAgDERP0z3SIyjew0SURgSD+Lu9kMZoXLhwN9O+tukAlrNpJg1SzDH4QW/URgNYgZTkjA4UkwJUgGXng+6DX1zLfmoymdXo17xh5zmRJ6Q42BWCfc2oJfdAr+Yv+AP9Cb7OJ3H/2JG1HNGz/84klThPVCc=);strokeColor=#6c8ebf;shadow=1;points=[[1,0.5,0],[0.5,0,0],[0.5,0.5,0],[0.5,0.5,0]];labelBackgroundColor=none;rounded=0;html=1;whiteSpace=wrap;" parent="1" vertex="1">
            <mxGeometry x="141" y="794" width="814" height="49" as="geometry" />
          </mxCell>
        </UserObject>
        <UserObject label="" tags="Background" id="216">
          <mxCell style="vsdxID=1111;edgeStyle=orthogonalEdgeStyle;dashed=1;dashPattern=8.00 4.00 1.00 4.00;startArrow=none;endArrow=none;spacingTop=0;spacingBottom=0;spacingLeft=0;spacingRight=0;verticalAlign=middle;html=1;labelBackgroundColor=#ffffff;rounded=0;" parent="1" edge="1">
            <mxGeometry relative="1" as="geometry">
              <mxPoint as="offset" />
              <mxPoint x="126" y="1355" as="sourcePoint" />
              <mxPoint x="991" y="1355" as="targetPoint" />
            </mxGeometry>
          </mxCell>
        </UserObject>
        <mxCell id="M_-9Dg6sCtWMjmafzQ-w-249" value="" style="edgeStyle=orthogonalEdgeStyle;rounded=1;orthogonalLoop=1;jettySize=auto;html=1;strokeWidth=5;shape=link;" parent="1" source="52" target="29" edge="1">
          <mxGeometry relative="1" as="geometry" />
        </mxCell>
        <mxCell id="M_-9Dg6sCtWMjmafzQ-w-250" value="&lt;font style=&quot;font-size: 17px;&quot;&gt;DX API V2&lt;/font&gt;" style="edgeLabel;html=1;align=center;verticalAlign=middle;resizable=0;points=[];" parent="M_-9Dg6sCtWMjmafzQ-w-249" vertex="1" connectable="0">
          <mxGeometry x="0.025" y="-4" relative="1" as="geometry">
            <mxPoint as="offset" />
          </mxGeometry>
        </mxCell>
        <UserObject label="&lt;div style=&quot;font-size: 1px&quot;&gt;&lt;font style=&quot;font-size:11.29px;font-family:Calibri;color:#000000;direction:ltr;letter-spacing:0px;line-height:120%;opacity:1&quot;&gt;Internal API Gateway Cluster&lt;br/&gt;&lt;/font&gt;&lt;/div&gt;" tags="Background" id="52">
          <mxCell style="verticalAlign=top;align=center;overflow=width;vsdxID=1156;fillColor=#8fa350;gradientColor=none;fillOpacity=20;shape=stencil(vZPbEoIgEIafhksdhKy8LnsPJlGZSJyVyt4+bOmAZRfN1N0e/mX5FpbwVVeLVhJGOwtmJ0+qsDXha8KYamoJyjqL8JzwVWlAVmAOTYF+KwblYO3NcTihx7psOZQwekY3ofTqb1ArYOty4LVJnKWoBi/ncTLDSB/W387L5vFi4RWR6FUXgbHCKtNg3qu1gEpGrltUalEFqe4kZfsS9vfTqpHTzXnM+EeaZExDlwHNaDj0XyDsTdtvGSZG8geKqZ/wloTdf9KDZJYGJOFU7o/9e5DPO+KMx3KVSmvczef8eBldCBeZ5xc=);strokeColor=#404040;shadow=1;points=[[0.5,0,0],[0.5,0,0],[0.5,0.5,0],[1,0.5,0],[0.5,0.5,0]];labelBackgroundColor=none;rounded=0;html=1;whiteSpace=wrap;" parent="1" vertex="1">
            <mxGeometry x="170" y="890" width="710" height="180" as="geometry" />
          </mxCell>
        </UserObject>
        <UserObject label="&lt;div style=&quot;font-size: 1px&quot;&gt;&lt;font style=&quot;font-size:8.47px;font-family:Calibri;color:#000000;direction:ltr;letter-spacing:0px;line-height:120%;opacity:1&quot;&gt;Web Server– 1 (&lt;/font&gt;&lt;font style=&quot;font-size:8.47px;font-family:Calibri;color:#000000;direction:ltr;letter-spacing:0px;line-height:120%;opacity:1&quot;&gt;Core – 4 . RAM 16 GB)&lt;br&gt;&lt;/font&gt;&lt;/div&gt;" tags="Background" id="53">
          <mxCell style="verticalAlign=top;align=left;overflow=width;vsdxID=1157;fillColor=#d7d0e3;gradientColor=#e7e3ee;gradientDirection=north;shape=stencil(nZBLDoAgDERP0z3SIyjew0SURgSD+Lu9kMZoXLhwN9O+tukAlrNpJg1SzDH4QW/URgNYgZTkjA4UkwJUgGXng+6DX1zLfmoymdXo17xh5zmRJ6Q42BWCfc2oJfdAr+Yv+AP9Cb7OJ3H/2JG1HNGz/84klThPVCc=);strokeColor=#404040;shadow=1;points=[[1,0.5,0],[0.5,0,0],[0.5,0.5,0],[0.5,0.5,0]];labelBackgroundColor=none;rounded=0;html=1;whiteSpace=wrap;" parent="1" vertex="1">
            <mxGeometry x="189" y="918" width="158" height="132" as="geometry" />
          </mxCell>
        </UserObject>
        <UserObject label="&lt;div style=&quot;font-size: 1px&quot;&gt;&lt;font style=&quot;font-size:8.47px;font-family:Calibri;color:#000000;direction:ltr;letter-spacing:0px;line-height:120%;opacity:1&quot;&gt;&lt;font style=&quot;border-color: var(--border-color); letter-spacing: 0px; direction: ltr; line-height: 10.164px; opacity: 1;&quot;&gt;Web Server– 1 (&lt;/font&gt;&lt;font style=&quot;border-color: var(--border-color); letter-spacing: 0px; direction: ltr; line-height: 10.164px; opacity: 1;&quot;&gt;Core – 4 . RAM 16 GB)&lt;/font&gt;&lt;br&gt;&lt;/font&gt;&lt;/div&gt;" tags="Background" id="55">
          <mxCell style="verticalAlign=top;align=left;overflow=width;vsdxID=1159;fillColor=#d7d0e3;gradientColor=#e7e3ee;gradientDirection=north;shape=stencil(nZBLDoAgDERP0z3SIyjew0SURgSD+Lu9kMZoXLhwN9O+tukAlrNpJg1SzDH4QW/URgNYgZTkjA4UkwJUgGXng+6DX1zLfmoymdXo17xh5zmRJ6Q42BWCfc2oJfdAr+Yv+AP9Cb7OJ3H/2JG1HNGz/84klThPVCc=);strokeColor=#404040;shadow=1;points=[[1,0.5,0],[0.5,0,0],[0.5,0.5,0],[0.5,0.5,0]];labelBackgroundColor=none;rounded=0;html=1;whiteSpace=wrap;" parent="1" vertex="1">
            <mxGeometry x="362" y="918" width="158" height="132" as="geometry" />
          </mxCell>
        </UserObject>
        <UserObject label="&lt;div style=&quot;font-size: 1px&quot;&gt;&lt;font style=&quot;font-size:8.47px;font-family:Calibri;color:#000000;direction:ltr;letter-spacing:0px;line-height:120%;opacity:1&quot;&gt;&lt;font style=&quot;border-color: var(--border-color); letter-spacing: 0px; direction: ltr; line-height: 10.164px; opacity: 1;&quot;&gt;Web Server– 1 (&lt;/font&gt;&lt;font style=&quot;border-color: var(--border-color); letter-spacing: 0px; direction: ltr; line-height: 10.164px; opacity: 1;&quot;&gt;Core – 4 . RAM 16 GB)&lt;/font&gt;&lt;br&gt;&lt;/font&gt;&lt;/div&gt;" tags="Background" id="57">
          <mxCell style="verticalAlign=top;align=left;overflow=width;vsdxID=1161;fillColor=#d7d0e3;gradientColor=#e7e3ee;gradientDirection=north;shape=stencil(nZBLDoAgDERP0z3SIyjew0SURgSD+Lu9kMZoXLhwN9O+tukAlrNpJg1SzDH4QW/URgNYgZTkjA4UkwJUgGXng+6DX1zLfmoymdXo17xh5zmRJ6Q42BWCfc2oJfdAr+Yv+AP9Cb7OJ3H/2JG1HNGz/84klThPVCc=);strokeColor=#404040;shadow=1;points=[[1,0.5,0],[0.5,0,0],[0.5,0.5,0],[0.5,0.5,0]];labelBackgroundColor=none;rounded=0;html=1;whiteSpace=wrap;" parent="1" vertex="1">
            <mxGeometry x="539" y="917" width="158" height="133" as="geometry" />
          </mxCell>
        </UserObject>
        <UserObject label="&lt;div style=&quot;font-size: 1px&quot;&gt;&lt;font style=&quot;font-size:8.47px;font-family:Calibri;color:#000000;direction:ltr;letter-spacing:0px;line-height:100%;opacity:1&quot;&gt;React Orchestrator by Pega&lt;br&gt;&lt;/font&gt;&lt;/div&gt;" tags="Background" id="61">
          <mxCell style="verticalAlign=middle;align=center;overflow=width;vsdxID=1165;fillColor=#44aac4;gradientColor=#31859b;gradientDirection=north;shape=stencil(vVPLcsMgDPwajmYw+FGfE+c/mAbbTIjxyCRx/764Ig/qOD01N6FdIVZiidiMnRwU4Wx0YA/qoveuI2JLONd9p0A7HxFRE7FpLKgW7Knf43mQM3OOjvY83zBhXVVSUc1VnH1hJmXs57xDuoRPj0Ggc8oFsiHQc1rmmJni+ut9laA8C4xETnpMwDrptO0RD2wjoVWJ75Y0RrYRNF6UGhbp8D6je7XevKBl8VJNulCTRmqW82Hv0sJpkT7pvKIkq2IlBc3ivawM5g1C1v7DUyUezWMlHzSLd7IYzG3r/6/lT7/44O61RhuDVn3Ef3vTp9DXov4G);strokeColor=#404040;shadow=1;spacingTop=-3;spacingBottom=-3;spacingLeft=-3;spacingRight=-3;points=[[0.5,0,0],[0.5,0,0],[0.5,0.5,0],[1,0.5,0],[0.5,0.5,0]];labelBackgroundColor=none;rounded=0;html=1;whiteSpace=wrap;" parent="1" vertex="1">
            <mxGeometry x="380" y="953" width="121" height="46" as="geometry" />
          </mxCell>
        </UserObject>
        <UserObject label="&lt;div style=&quot;&quot;&gt;&lt;font face=&quot;Calibri&quot;&gt;&lt;span style=&quot;font-size: 8.47px;&quot;&gt;React Orchestrator by Pega&lt;/span&gt;&lt;/font&gt;&lt;/div&gt;" tags="Background" id="62">
          <mxCell style="verticalAlign=middle;align=center;overflow=width;vsdxID=1166;fillColor=#44aac4;gradientColor=#31859b;gradientDirection=north;shape=stencil(vVPLcsMgDPwajmYw+FGfE+c/mAbbTIjxyCRx/764Ig/qOD01N6FdIVZiidiMnRwU4Wx0YA/qoveuI2JLONd9p0A7HxFRE7FpLKgW7Knf43mQM3OOjvY83zBhXVVSUc1VnH1hJmXs57xDuoRPj0Ggc8oFsiHQc1rmmJni+ut9laA8C4xETnpMwDrptO0RD2wjoVWJ75Y0RrYRNF6UGhbp8D6je7XevKBl8VJNulCTRmqW82Hv0sJpkT7pvKIkq2IlBc3ivawM5g1C1v7DUyUezWMlHzSLd7IYzG3r/6/lT7/44O61RhuDVn3Ef3vTp9DXov4G);strokeColor=#404040;shadow=1;spacingTop=-3;spacingBottom=-3;spacingLeft=-3;spacingRight=-3;points=[[0.5,0,0],[0.5,0,0],[0.5,0.5,0],[1,0.5,0],[0.5,0.5,0]];labelBackgroundColor=none;rounded=0;html=1;whiteSpace=wrap;" parent="1" vertex="1">
            <mxGeometry x="207" y="953" width="121" height="46" as="geometry" />
          </mxCell>
        </UserObject>
        <UserObject label="&lt;div style=&quot;font-size: 1px&quot;&gt;&lt;font style=&quot;font-size:8.47px;font-family:Calibri;color:#000000;direction:ltr;letter-spacing:0px;line-height:100%;opacity:1&quot;&gt;React Orchestrator by Pega&lt;br&gt;&lt;/font&gt;&lt;/div&gt;" tags="Background" id="63">
          <mxCell style="verticalAlign=middle;align=center;overflow=width;vsdxID=1167;fillColor=#44aac4;gradientColor=#31859b;gradientDirection=north;shape=stencil(vVPLcsMgDPwajmYw+FGfE+c/mAbbTIjxyCRx/764Ig/qOD01N6FdIVZiidiMnRwU4Wx0YA/qoveuI2JLONd9p0A7HxFRE7FpLKgW7Knf43mQM3OOjvY83zBhXVVSUc1VnH1hJmXs57xDuoRPj0Ggc8oFsiHQc1rmmJni+ut9laA8C4xETnpMwDrptO0RD2wjoVWJ75Y0RrYRNF6UGhbp8D6je7XevKBl8VJNulCTRmqW82Hv0sJpkT7pvKIkq2IlBc3ivawM5g1C1v7DUyUezWMlHzSLd7IYzG3r/6/lT7/44O61RhuDVn3Ef3vTp9DXov4G);strokeColor=#404040;shadow=1;spacingTop=-3;spacingBottom=-3;spacingLeft=-3;spacingRight=-3;points=[[0.5,0,0],[0.5,0,0],[0.5,0.5,0],[1,0.5,0],[0.5,0.5,0]];labelBackgroundColor=none;rounded=0;html=1;whiteSpace=wrap;" parent="1" vertex="1">
            <mxGeometry x="557" y="952" width="121" height="46" as="geometry" />
          </mxCell>
        </UserObject>
        <UserObject label="&lt;div style=&quot;font-size: 1px&quot;&gt;&lt;font style=&quot;font-size:8.47px;font-family:Calibri;color:#000000;direction:ltr;letter-spacing:0px;line-height:100%;opacity:1&quot;&gt;NodeJS&lt;br&gt;&lt;/font&gt;&lt;/div&gt;" tags="Background" id="65">
          <mxCell style="verticalAlign=middle;align=center;overflow=width;vsdxID=1169;fillColor=#44aac4;gradientColor=#31859b;gradientDirection=north;shape=stencil(vZNNcsMgDIVPw9IMoNQN6zS9B5Ngmyk1Hpk0zu2LK/pDHLerZiekJ+RP5jHYjZ0ZLFNijBhe7NkdY8fgiSnl+s6iiylisGewawLaFsOpP9J5MLNyjl7D23zDRH36kYOeu5S4UEYK8XF+JrnBQ6phliuugNSY5ZqLmjJT2f9531bzTRZUZnJjhSGa6EJP5Sz2BltbpWFV401blMaztcMinT/Pu96uz5aC17/CyBJmy/VDAbNcj7gXi+K1vDF5hWSjS5JELmWBsrKZO5CsvIebJLB4YBKuSRab+frt/8/yp19S8O21xnlPVv1Zv/ZmSpGvYf8O);strokeColor=#404040;shadow=1;spacingTop=-3;spacingBottom=-3;spacingLeft=-3;spacingRight=-3;points=[[0.5,0,0],[0.5,0,0],[0.5,0.5,0],[1,0.5,0],[0.5,0.5,0]];labelBackgroundColor=none;rounded=0;html=1;whiteSpace=wrap;" parent="1" vertex="1">
            <mxGeometry x="381" y="1013" width="121" height="29" as="geometry" />
          </mxCell>
        </UserObject>
        <UserObject label="&lt;div style=&quot;font-size: 1px&quot;&gt;&lt;font style=&quot;font-size:8.47px;font-family:Calibri;color:#000000;direction:ltr;letter-spacing:0px;line-height:100%;opacity:1&quot;&gt;NodeJS&lt;br&gt;&lt;/font&gt;&lt;/div&gt;" tags="Background" id="66">
          <mxCell style="verticalAlign=middle;align=center;overflow=width;vsdxID=1170;fillColor=#44aac4;gradientColor=#31859b;gradientDirection=north;shape=stencil(vZNNcsMgDIVPw9IMoNQN6zS9B5Ngmyk1Hpk0zu2LK/pDHLerZiekJ+RP5jHYjZ0ZLFNijBhe7NkdY8fgiSnl+s6iiylisGewawLaFsOpP9J5MLNyjl7D23zDRH36kYOeu5S4UEYK8XF+JrnBQ6phliuugNSY5ZqLmjJT2f9531bzTRZUZnJjhSGa6EJP5Sz2BltbpWFV401blMaztcMinT/Pu96uz5aC17/CyBJmy/VDAbNcj7gXi+K1vDF5hWSjS5JELmWBsrKZO5CsvIebJLB4YBKuSRab+frt/8/yp19S8O21xnlPVv1Zv/ZmSpGvYf8O);strokeColor=#404040;shadow=1;spacingTop=-3;spacingBottom=-3;spacingLeft=-3;spacingRight=-3;points=[[0.5,0,0],[0.5,0,0],[0.5,0.5,0],[1,0.5,0],[0.5,0.5,0]];labelBackgroundColor=none;rounded=0;html=1;whiteSpace=wrap;" parent="1" vertex="1">
            <mxGeometry x="558" y="1012" width="121" height="29" as="geometry" />
          </mxCell>
        </UserObject>
        <UserObject label="&lt;div style=&quot;font-size: 1px&quot;&gt;&lt;font style=&quot;font-size:8.47px;font-family:Calibri;color:#000000;direction:ltr;letter-spacing:0px;line-height:100%;opacity:1&quot;&gt;NodeJS&lt;br&gt;&lt;/font&gt;&lt;/div&gt;" tags="Background" id="67">
          <mxCell style="verticalAlign=middle;align=center;overflow=width;vsdxID=1171;fillColor=#44aac4;gradientColor=#31859b;gradientDirection=north;shape=stencil(vZNNcsMgDIVPw9IMoNQN6zS9B5Ngmyk1Hpk0zu2LK/pDHLerZiekJ+RP5jHYjZ0ZLFNijBhe7NkdY8fgiSnl+s6iiylisGewawLaFsOpP9J5MLNyjl7D23zDRH36kYOeu5S4UEYK8XF+JrnBQ6phliuugNSY5ZqLmjJT2f9531bzTRZUZnJjhSGa6EJP5Sz2BltbpWFV401blMaztcMinT/Pu96uz5aC17/CyBJmy/VDAbNcj7gXi+K1vDF5hWSjS5JELmWBsrKZO5CsvIebJLB4YBKuSRab+frt/8/yp19S8O21xnlPVv1Zv/ZmSpGvYf8O);strokeColor=#404040;shadow=1;spacingTop=-3;spacingBottom=-3;spacingLeft=-3;spacingRight=-3;points=[[0.5,0,0],[0.5,0,0],[0.5,0.5,0],[1,0.5,0],[0.5,0.5,0]];labelBackgroundColor=none;rounded=0;html=1;whiteSpace=wrap;" parent="1" vertex="1">
            <mxGeometry x="207" y="1013" width="121" height="29" as="geometry" />
          </mxCell>
        </UserObject>
        <UserObject label="" tags="Background" id="75">
          <mxCell style="vsdxID=1187;fillColor=none;gradientColor=none;points=[[0.5,0.5,0]];labelBackgroundColor=none;rounded=0;strokeColor=none;html=1;whiteSpace=wrap;" parent="1" vertex="1">
            <mxGeometry x="479.40999999999997" y="1880" width="159" height="140" as="geometry" />
          </mxCell>
        </UserObject>
        <mxCell id="76" style="vsdxID=1188;edgeStyle=none;startArrow=none;endArrow=none;startSize=5;endSize=5;spacingTop=0;spacingBottom=0;spacingLeft=0;spacingRight=0;verticalAlign=middle;html=1;labelBackgroundColor=none;rounded=0;" parent="75" edge="1">
          <mxGeometry relative="1" as="geometry">
            <mxPoint x="-1" as="offset" />
            <Array as="points" />
            <mxPoint x="34" y="78" as="sourcePoint" />
            <mxPoint x="82" y="78" as="targetPoint" />
          </mxGeometry>
        </mxCell>
        <mxCell id="77" style="vsdxID=1189;fillColor=#FFFFFF;gradientColor=none;shape=stencil(nZBLDoAgDERP0z3SIyjew0SURgSD+Lu9kMZoXLhwN9O+tukAlrNpJg1SzDH4QW/URgNYgZTkjA4UkwJUgGXng+6DX1zLfmoymdXo17xh5zmRJ6Q42BWCfc2oJfdAr+Yv+AP9Cb7OJ3H/2JG1HNGz/84klThPVCc=);points=[[0.5,0.5,0]];labelBackgroundColor=none;rounded=0;html=1;whiteSpace=wrap;" parent="75" vertex="1">
          <mxGeometry x="82" y="53" width="35" height="47" as="geometry" />
        </mxCell>
        <mxCell id="78" style="vsdxID=1190;fillColor=#fff2cc;shape=stencil(vVzbdtw2DPwaP0aHF1Ein3v5D5/WSXzqxjkbt03+vtjuSoRmsNSKafuWyOCOSIIACAz0EH/48vHx89NDcF/eTq+/Pf31/Ovbx4f440MIz58+Pp2e3+RfD/Gnh/jD+9fT04fT6x+ffr38//PjWfL8r99f/zz/wtfLOHceEdy3y//mwc3/PPj5Ivvy/Omm7DQNaWwID8635X/543R5E7+MCOU64vpkdkNMl0dfw+WRHwe3SF0fzXEYw1UqXh5FX6UiSt2AH/PgMuCrX76CTX7IGfDVW17BpjD4aYu/s1znEfOR9eUBuHk4QRmBE8xDnrfzS7C43g0wt+tLrRPzfpibC7sO8Digoo6AqkQW2DiUchQ5DtNE4NkDeBxiIPxcAD8MZSb8MjXxwyKg8QsuuUglwl+lFD6vfGnuuIxBeNGBRPAB4UW3cPkFC9BFqDTR/apdCh53XoQYncFzIPTgd9DHzOiZ4H0k+DgCvhvmTPhjG1/GRMJHcyJSE564QObsLJUYP+7gR8/4ZYs/lqqhFT/BkRepyRP+1Jy/jKGDL2Mi4Y8z4U8j4aPqh2VFbsM7Vj44eWLyZ7Q8IjQBejbQc3vyuZqUip4DwQeGz5HgPRoekWq60nFef0bj4+bPqz4o/IKLPw+e51+aR1/GOLQ8uPNTtacLeFxjhhV8Wt96BReptiOfWPPiqg0KH41+HDzCp2WhNbxvGn0ZMzO8R/i0ngWNnwk/oeGLO2ZXxvhC+AGXf2S7K1LgdEQq4cGPi125hT8OEQ1v9bAKn7yOSKHuj6sj0vjtkx8HAx7svgiR3eEwUqRI9UWqDS9ng/HHCfBXC7LBx+2vplDjt7e/ui+Fn3D5JQ5A0xPZ7vuqyhU/NWMOGZPo6A8JTY+vSlLx0fD6gTd/x+u4gXWfnI4b0OfVQHEFF//J4HkH3KPLjat/X9CjuFzeejh4IjTz3NvRrowZ0ejHdQMVPEU8kXxezNWBKPzmzsuYCZ2ejMHp5yVw0viZ4D2b/bbPjXNd1wqPPlek1pdU8ODzRCry9HPz4MsYY/czHPyoHJrCx+2fFlXb4De1T8ZE1n30+SLFqw9XnZgGBi/txU/WqS+4+IlvWiIVCd5hwLNK3cIfDaNfUPXFm7HqFzB6UXkmBd/0+bH+jMbHvY81jFf4uPexGvCIUrfxVz+p8MHpxTCw6hU8esFSvdJWPbkKGtNH1fPW0SuofJy6qVK38N3qulr4bgkcW/ih1KD43vnLmICXDV5+kXLG9sP6B9PytrdfxiS2/JhnEKlgzB8sf5jXY3u3+suYiWOOAokGkYocc+F1Q6Q44mwf/jCtZlbDg9cXqckwfQHgp/qS9xo/GYOJNWVUF/i0ukJt+FH70sC2p233ZUhgdMzriZTjoCfj5o/Wfaft92SMcfgy2F6RCrz5GVe/noe7/X5Y45INPsDX4FZHPbj6pultRz0yxrHuz2D6QxhmAx91PyyXi/ujPhkTWPlx90N1qSrkxemr3Pa9Ma+MSbz6E07fW7uPaZ7gOMW6F/DLmNmI+AHeWUc/4fTdMB697cgYz5Y3YdGiVJuu8EH5RSqx5W/f9mRM5OUfM+Gz4R8ngncGfPPs+zwY6AHQs3XXi+D3RMqx7rev+l75KnXXB8MvUobljbj6c60V3JvqkDGU5lNJlAVsqpULlWqBqFekKMe7l+rxZqbL4+5PVa9VqmkmfOPK0051+WTlOjzUV7yZ6nKIn2r5795M33kMwTuGX2PjFZ6wSfX3Upx+rJn7mmLFK4dIRSPFC5bnXNTk/Ho7xasiHJ3iRd2PVnkF3e7ZYXB9o+12zwed8/vo987qQPC486E68HvT+/VXdHEBFz+w4qkSRMVKePD3ihu1+qTxE07e17hUFXdw8z3nePeKO94sbpHh9Xzwubh0lmL49vQ9xzyqalZLx0ZtK6Ddr9Xzu2t75zGs+zj7msC7WVgUmcCK3za6hX2OKpeGRShhvKMqr3ERCrjyexXdUq9wtwvKpSrn7XpyodzqXjU7V1Oiiulwzcm1YKBOAZRV8uqj7i7lqyEehyhwj4EGEwmMctoeePWW36oGQozniJeSKa3ntrhI2NgyczLyO/7fNTq+QQktIlMtMnsjZloc18zC1tg8FRgGmKfi+JGkCxCTLJTRqPYAORY91khZuaYlvMcU9thhIwZCjoX2FhUeORZ9bsgIQSwviBpvesEeL0x5J6ZY6FihPkp4++qLQibefKx2qVBJBUG4+j0xWI3tKCpT8Z8RgmC1qTP+JHfEFAsdJav4F0PAnvh75DorUyz0LaHiY86z6/6RjJQ/gCfj2o8Mi857FykeMyz07VBdBxC/59458cFnioW+HSt8jD/77t2Fk05IsdDZAXXvx9tPX97BSHohxUJnR1TeA3W/J++STYoH2v1MhocpFl1Zp2Jc+5FhoTNjCh53vy/nRuQqZljozKDK+cEVoDPnOKHhZYaFToyqlCvBH8+4eqvYhXdvnRdW8Ijfk3EOzOxjloVOi6uEO8D35dtnLncgy0JXBRQ8Tr+v3mCUW5BloYsiKhVE8MerLaO1++h2dU1IwWO+v6falAxmIbEsdE1M4eP2dxXbDMuLXl8XBFUgAuh9lUbj6CPNQtdDOQ76nkLrbFUbMOepq8EKHi1fT505c/qDaRa6Gq7wcfN76uyqgt+s8xvFLqrzd/AMNINB4TPPwTh8/wrPwlsML8JXbJAGfh/PhA8fsVyike9nmksfy2Yytn8mfGrnYJpFF8toNGkekGpQVCgFjwS3Ho5VsqpdSLPQTDCFHwj/MMVsousmkSw0B07ZfVS9PnZdNgw/7r3iACp83Ps+dqFx9JBloTmQCh8Xv4ddqWibCh/gs8XwQpZFF7e0WHV2rDZpBqzCR93v49Ya5FLk9Dtr95Fl0Ucs5pgHORaK+qzAkVDfQan21mUPwb116pFh0cUnDxa/BhkWmvWu8EHxO/n0mXceGRaa9a9um8gp7+knUJ0KCj8AfjSMPlIsuroplJ9SV33uJrEoHrj8fd0klOZjioXueVGpFlT+vm4aI9WFFAvd86NSTdhN09NNNBm5DmRYjGamCxkWnb1UhbUPKRa63WvFB/C+LrIRfS5TLHSvm0rxounp6aJT/XkqxYu6nznNxxSLviZCaiRjhoVudKSM//c1UJLdYYqF7vJU1QXc/L7+UeqdDmT3dZerKu5g73Zf/6xR2zL6d2dWPqN/93j/sOeIhzkWySxuIceis3/aqK/g9FWL983KYk/reGCvwyQL1d5ewZFk0dk3T+0cdt8+4tt9+4e/GxD5psVUC/11A1VNh/pK13cT/p0vNhz+UITRs+0o1NIfvrg+ymRutdD10d63MZDiEQdqWc7Us+q2sEZSxbVg1c14gXVbTLfFUy8VtwL3zNJtoTJ3xxFbz1HJ5A7+DBBZxlrjWH51syrbD5ssf+wSLhleZSvOr3J4ALzO3lTLtOzYfe9/UHyEtMHudA8PwBfanfBquu+bwUFxBynC3fc/PABfaDvhkmq0uf7Expg/nn6RP57WzyAtPuL0bX2yGPLrT0p0NNs/6b6+e/z6/OXd6fXt8e359dPmGL88nj48vRO4d+9fHj9c1+vypy9/PT19Vo/d973g7Tn/Jy8o/6ifq3r//PJy+dqV/jt+3koeXT6NFX/6Gw==);points=[[0.5,0.5,0]];labelBackgroundColor=none;rounded=0;html=1;whiteSpace=wrap;strokeColor=#d6b656;" parent="75" vertex="1">
          <mxGeometry x="1" width="112" height="93" as="geometry" />
        </mxCell>
        <mxCell id="79" value="&lt;div style=&quot;font-size: 1px&quot;&gt;&lt;font style=&quot;font-size:14.11px;font-family:Calibri;color:#4d1e1a;direction:ltr;letter-spacing:0px;line-height:120%;opacity:1&quot;&gt;POSTGRESQL / Oracle SERVER 200 GB&lt;br&gt;&lt;/font&gt;&lt;/div&gt;" style="text;vsdxID=1187;fillColor=none;gradientColor=none;points=[[0.5,0.5,0]];labelBackgroundColor=none;rounded=0;strokeColor=none;html=1;whiteSpace=wrap;verticalAlign=middle;align=center;overflow=width;;html=1;" parent="75" vertex="1">
          <mxGeometry x="-39.41" y="101" width="198.41" height="39" as="geometry" />
        </mxCell>
        <UserObject label="&lt;div style=&quot;font-size: 1px&quot;&gt;&lt;/div&gt;" tags="Background" id="80">
          <mxCell style="verticalAlign=top;align=left;overflow=width;vsdxID=1191;fillColor=#f0f0f0;gradientColor=#ffffff;gradientDirection=north;shape=stencil(nZBLDoAgDERP0z3SIyjew0SURgSD+Lu9kMZoXLhwN9O+tukAlrNpJg1SzDH4QW/URgNYgZTkjA4UkwJUgGXng+6DX1zLfmoymdXo17xh5zmRJ6Q42BWCfc2oJfdAr+Yv+AP9Cb7OJ3H/2JG1HNGz/84klThPVCc=);strokeColor=#404040;shadow=1;points=[[1,0.5,0],[0.5,0,0],[0.5,0.5,0],[0.5,0.5,0]];labelBackgroundColor=none;rounded=0;html=1;whiteSpace=wrap;" parent="1" vertex="1">
            <mxGeometry x="2713" y="881.5" width="513" height="451" as="geometry" />
          </mxCell>
        </UserObject>
        <UserObject label="&lt;div style=&quot;font-size: 1px&quot;&gt;&lt;font style=&quot;font-size:33.87px;font-family:Calibri;color:#000000;direction:ltr;letter-spacing:0px;line-height:120%;opacity:1&quot;&gt;Dev Environment&lt;br/&gt;&lt;/font&gt;&lt;/div&gt;" tags="Background" id="81">
          <mxCell style="verticalAlign=middle;align=center;overflow=width;vsdxID=1192;fillColor=#dae8fc;gradientDirection=north;shape=stencil(nZBLDoAgDERP0z3SIyjew0SURgSD+Lu9kMZoXLhwN9O+tukAlrNpJg1SzDH4QW/URgNYgZTkjA4UkwJUgGXng+6DX1zLfmoymdXo17xh5zmRJ6Q42BWCfc2oJfdAr+Yv+AP9Cb7OJ3H/2JG1HNGz/84klThPVCc=);strokeColor=#6c8ebf;shadow=1;points=[[1,0.5,0],[0.5,0,0],[0.5,0.5,0],[0.5,0.5,0]];labelBackgroundColor=none;rounded=0;html=1;whiteSpace=wrap;" parent="1" vertex="1">
            <mxGeometry x="2710" y="808.5" width="522" height="49" as="geometry" />
          </mxCell>
        </UserObject>
        <UserObject label="&lt;div style=&quot;font-size: 1px&quot;&gt;&lt;font style=&quot;font-size:8.47px;font-family:Calibri;color:#000000;direction:ltr;letter-spacing:0px;line-height:120%;opacity:1&quot;&gt;Integration Server (&lt;/font&gt;&lt;font style=&quot;font-size:8.47px;font-family:Calibri;color:#000000;direction:ltr;letter-spacing:0px;line-height:120%;opacity:1&quot;&gt;Core - 4 RAM – 16 GB)&lt;br&gt;&lt;/font&gt;&lt;/div&gt;" tags="Background" id="82">
          <mxCell style="verticalAlign=top;align=left;overflow=width;vsdxID=1193;fillColor=#d7d0e3;gradientColor=#e7e3ee;gradientDirection=north;shape=stencil(nZBLDoAgDERP0z3SIyjew0SURgSD+Lu9kMZoXLhwN9O+tukAlrNpJg1SzDH4QW/URgNYgZTkjA4UkwJUgGXng+6DX1zLfmoymdXo17xh5zmRJ6Q42BWCfc2oJfdAr+Yv+AP9Cb7OJ3H/2JG1HNGz/84klThPVCc=);strokeColor=#404040;shadow=1;points=[[1,0.5,0],[0.5,0,0],[0.5,0.5,0],[0.5,0.5,0]];labelBackgroundColor=none;rounded=0;html=1;whiteSpace=wrap;" parent="1" vertex="1">
            <mxGeometry x="2727" y="916.5" width="250" height="230" as="geometry" />
          </mxCell>
        </UserObject>
        <UserObject label="&lt;div style=&quot;font-size: 1px&quot;&gt;&lt;font style=&quot;font-size:8.47px;font-family:Calibri;color:#000000;direction:ltr;letter-spacing:0px;line-height:100%;opacity:1&quot;&gt;Integration Server 10.7&lt;br/&gt;Adapters:  JDBC,  Oracle Application Adapter&lt;br/&gt;&lt;/font&gt;&lt;/div&gt;" tags="Background" id="83">
          <mxCell style="verticalAlign=middle;align=center;overflow=width;vsdxID=1194;fillColor=#44aac4;gradientColor=#31859b;gradientDirection=north;shape=stencil(vVPLcsMgDPwajmYwwnZ8TtP/YBpsM6XGI9PE+fviQpMSl/bU3PRYIVbSEtjPg5wU4Wx2aF/VWR/dQOCJcK7HQaF23iJwILDvLKoe7ft4DP4kV+RqvdnT+sIS6todrcq1irNLiJSMffrPAS7xxecwwksqIhojXFDBQ2RJ67/eaysKEBGFXPRcoHXSaTuGfEQbib0qfLeiM7JPUvNZqWkTjv8zelT55oLWzW9syiZlA7SuEjbb+bCHcaGi/aFzbi98s5c6YZIZzAOI5O4hw2QHKZOKNiK9sPvBXLf+/1z+1Is3blrrtDFBqt/z99r0oaBrOHwA);strokeColor=#404040;shadow=1;spacingTop=-3;spacingBottom=-3;spacingLeft=-3;spacingRight=-3;points=[[0.5,0,0],[0.5,0,0],[0.5,0.5,0],[1,0.5,0],[0.5,0.5,0]];labelBackgroundColor=none;rounded=0;html=1;whiteSpace=wrap;" parent="1" vertex="1">
            <mxGeometry x="2745" y="939.5" width="212" height="67" as="geometry" />
          </mxCell>
        </UserObject>
        <UserObject label="&lt;div style=&quot;font-size: 1px&quot;&gt;&lt;font style=&quot;font-size:8.47px;font-family:Calibri;color:#000000;direction:ltr;letter-spacing:0px;line-height:100%;opacity:1&quot;&gt;Platform Manager 10.5&lt;br/&gt;JVM Heap : 256 MB&lt;br/&gt;&lt;/font&gt;&lt;/div&gt;" tags="Background" id="84">
          <mxCell style="verticalAlign=middle;align=center;overflow=width;vsdxID=1195;fillColor=#44aac4;gradientColor=#31859b;gradientDirection=north;shape=stencil(vZPbEoIgEIafhksZkLK87vAeTKIykTgrlb19EHZAo67qbtn/X5ZvdRFbdTVvBUpJZ0DvxVkWpkZsjdJUNrUAaWyE2AaxValBVKCPTeHPLXdOFx30yd3Q+7p8iWcLV5WSi89QQm7nrbdz2FkNBjvFTnJuGOy23if6sPx+3TJ/GBLeyy4BbbiRuvHyYFYcKpHYXkmpeBVI3VmIdpIeXqdkI+K9KcHZJxa2CFlyPKcBzHQ65G8seM7edI6QzLKQxJLTECUymT+QRP6HCEk+AmFjkMlgHl/99yhft8UGz00rpVJ+UV/18WbalN9qtrkC);strokeColor=#404040;shadow=1;spacingTop=-3;spacingBottom=-3;spacingLeft=-3;spacingRight=-3;points=[[0.5,0,0],[0.5,0,0],[0.5,0.5,0],[1,0.5,0],[0.5,0.5,0]];labelBackgroundColor=none;rounded=0;html=1;whiteSpace=wrap;" parent="1" vertex="1">
            <mxGeometry x="2748" y="1103.5" width="207" height="29" as="geometry" />
          </mxCell>
        </UserObject>
        <UserObject label="&lt;div style=&quot;font-size: 1px&quot;&gt;&lt;font style=&quot;font-size:8.47px;font-family:Calibri;color:#000000;direction:ltr;letter-spacing:0px;line-height:100%;opacity:1&quot;&gt;My Webmethods Server 10.7&lt;br/&gt;JVM Heap : 4 GB&lt;br/&gt;&lt;br/&gt;&lt;/font&gt;&lt;/div&gt;" tags="Background" id="85">
          <mxCell style="verticalAlign=middle;align=center;overflow=width;vsdxID=1207;fillColor=#44aac4;gradientColor=#31859b;gradientDirection=north;shape=stencil(vZPbEoIgEIafhksZkLK87vAeTKIykTgrlb19EHZAo67qbtn/X5ZvdRFbdTVvBUpJZ0DvxVkWpkZsjdJUNrUAaWyE2AaxValBVKCPTeHPLXdOFx30yd3Q+7p8iWcLV5WSi89QQm7nrbdz2FkNBjvFTnJuGOy23if6sPx+3TJ/GBLeyy4BbbiRuvHyYFYcKpHYXkmpeBVI3VmIdpIeXqdkI+K9KcHZJxa2CFlyPKcBzHQ65G8seM7edI6QzLKQxJLTECUymT+QRP6HCEk+AmFjkMlgHl/99yhft8UGz00rpVJ+UV/18WbalN9qtrkC);strokeColor=#404040;shadow=1;spacingTop=-3;spacingBottom=-3;spacingLeft=-3;spacingRight=-3;points=[[0.5,0,0],[0.5,0,0],[0.5,0.5,0],[1,0.5,0],[0.5,0.5,0]];labelBackgroundColor=none;rounded=0;html=1;whiteSpace=wrap;" parent="1" vertex="1">
            <mxGeometry x="2748" y="1023.5" width="207" height="29" as="geometry" />
          </mxCell>
        </UserObject>
        <UserObject label="&lt;div style=&quot;font-size: 1px&quot;&gt;&lt;font style=&quot;font-size:8.47px;font-family:Calibri;color:#000000;direction:ltr;letter-spacing:0px;line-height:120%;opacity:1&quot;&gt;API Gateway (&lt;/font&gt;&lt;font style=&quot;font-size:8.47px;font-family:Calibri;color:#000000;direction:ltr;letter-spacing:0px;line-height:120%;opacity:1&quot;&gt;Core – 4 . RAM 16 GB)&lt;br&gt;&lt;/font&gt;&lt;/div&gt;" tags="Background" id="86">
          <mxCell style="verticalAlign=top;align=left;overflow=width;vsdxID=1208;fillColor=#d7d0e3;gradientColor=#e7e3ee;gradientDirection=north;shape=stencil(nZBLDoAgDERP0z3SIyjew0SURgSD+Lu9kMZoXLhwN9O+tukAlrNpJg1SzDH4QW/URgNYgZTkjA4UkwJUgGXng+6DX1zLfmoymdXo17xh5zmRJ6Q42BWCfc2oJfdAr+Yv+AP9Cb7OJ3H/2JG1HNGz/84klThPVCc=);strokeColor=#404040;shadow=1;points=[[1,0.5,0],[0.5,0,0],[0.5,0.5,0],[0.5,0.5,0]];labelBackgroundColor=none;rounded=0;html=1;whiteSpace=wrap;" parent="1" vertex="1">
            <mxGeometry x="3008" y="918.5" width="158" height="203" as="geometry" />
          </mxCell>
        </UserObject>
        <UserObject label="&lt;div style=&quot;font-size: 1px&quot;&gt;&lt;font style=&quot;font-size:8.47px;font-family:Calibri;color:#000000;direction:ltr;letter-spacing:0px;line-height:100%;opacity:1&quot;&gt;Platform Manager 10.7&lt;br/&gt;&lt;/font&gt;&lt;/div&gt;" tags="Background" id="87">
          <mxCell style="verticalAlign=middle;align=center;overflow=width;vsdxID=1209;fillColor=#44aac4;gradientColor=#31859b;gradientDirection=north;shape=stencil(vZNNcsMgDIVPw9IMoNQN6zS9B5Ngmyk1Hpk0zu2LK/pDHLerZiekJ+RP5jHYjZ0ZLFNijBhe7NkdY8fgiSnl+s6iiylisGewawLaFsOpP9J5MLNyjl7D23zDRH36kYOeu5S4UEYK8XF+JrnBQ6phliuugNSY5ZqLmjJT2f9531bzTRZUZnJjhSGa6EJP5Sz2BltbpWFV401blMaztcMinT/Pu96uz5aC17/CyBJmy/VDAbNcj7gXi+K1vDF5hWSjS5JELmWBsrKZO5CsvIebJLB4YBKuSRab+frt/8/yp19S8O21xnlPVv1Zv/ZmSpGvYf8O);strokeColor=#404040;shadow=1;spacingTop=-3;spacingBottom=-3;spacingLeft=-3;spacingRight=-3;points=[[0.5,0,0],[0.5,0,0],[0.5,0.5,0],[1,0.5,0],[0.5,0.5,0]];labelBackgroundColor=none;rounded=0;html=1;whiteSpace=wrap;" parent="1" vertex="1">
            <mxGeometry x="3022" y="1070.5" width="121" height="29" as="geometry" />
          </mxCell>
        </UserObject>
        <UserObject label="&lt;div style=&quot;font-size: 1px&quot;&gt;&lt;font style=&quot;font-size:8.47px;font-family:Calibri;color:#000000;direction:ltr;letter-spacing:0px;line-height:100%;opacity:1&quot;&gt;API Gateway 10.7&lt;br/&gt;Standard&lt;br/&gt;&lt;/font&gt;&lt;/div&gt;" tags="Background" id="88">
          <mxCell style="verticalAlign=middle;align=center;overflow=width;vsdxID=1210;fillColor=#44aac4;gradientColor=#31859b;gradientDirection=north;shape=stencil(vZPRdsIgDIafhstyIFgt107fg6O05chKD0Wtbz+6dG7Y4a7mXUh+knyBELEdWtVrAmwI3p301RxDS8QbATBdq70J0SJiR8S2dl433p27I557NSkn691dpgwj3pMbKuR0C9gNPZyxz/Me5cofYszPcqAloNrf5ZSt0TWmCb4SVpKWm1lRqNEMhXdBBeM6jM9qq3yji1iuqK1qktBw1bpfuOcGrel0vnhsbyWe8QBPeSpa8QRnOSH2Khiga/5L5QzJSqYkksoyIclN5gUkuR+RQakeHoVzCgnKYjL3d/9/lj9XJhrf61Yba3Fbf8Yf1zO6cLXF7gM=);strokeColor=#404040;shadow=1;spacingTop=-3;spacingBottom=-3;spacingLeft=-3;spacingRight=-3;points=[[0.5,0,0],[0.5,0,0],[0.5,0.5,0],[1,0.5,0],[0.5,0.5,0]];labelBackgroundColor=none;rounded=0;html=1;whiteSpace=wrap;" parent="1" vertex="1">
            <mxGeometry x="3022" y="952.5" width="121" height="30" as="geometry" />
          </mxCell>
        </UserObject>
        <UserObject label="&lt;div style=&quot;font-size: 1px&quot;&gt;&lt;/div&gt;" tags="Background" id="92">
          <mxCell style="verticalAlign=top;align=center;overflow=width;vsdxID=1216;fillColor=#0070c0;gradientColor=none;fillOpacity=20;shape=stencil(vZNLcsMgDIZPw9IMFkkcr9PkHkyDbabUeGSSuLcvrugDu0xWyU5IvxCfkJg8jJ0aNAMxenRv+mbOvmPyhQGYvtNofLCYPDJ5aBzqFt2lP9N5ULNytt7ddb5hory64qKcs0B8kKcU4ut8IrnC1xDDKJe83JAaoxy2fEeeKc3/vq8KglhhKtRkxgKdV964nuJRbRW2ugjVisaqNgmNN62HlTu+z5pe54vDhss6jwO82i1wgG/LhGfdIfEsGuB1/U/lDMp+iSI57BOUXG+egJKbicyUiWo5ZQnIqjE///54krsbE4zfbWuMtbSsf+PL7Qwu2mx5/AQ=);strokeColor=#404040;shadow=1;points=[[0.5,0,0],[0.5,0,0],[0.5,0.5,0],[1,0.5,0],[0.5,0.5,0]];labelBackgroundColor=none;rounded=0;html=1;whiteSpace=wrap;" parent="1" vertex="1">
            <mxGeometry x="200" y="1420" width="610" height="150" as="geometry" />
          </mxCell>
        </UserObject>
        <UserObject label="&lt;div style=&quot;font-size: 1px&quot;&gt;&lt;font style=&quot;font-size:8.47px;font-family:Calibri;color:#000000;direction:ltr;letter-spacing:0px;line-height:100%;opacity:1&quot;&gt;Elastic Search&lt;br/&gt;&lt;/font&gt;&lt;/div&gt;" tags="Background" id="89">
          <mxCell style="verticalAlign=middle;align=center;overflow=width;vsdxID=1211;fillColor=#44aac4;gradientColor=#31859b;gradientDirection=north;shape=stencil(vZNNcsMgDIVPw9IMoNQN6zS9B5Ngmyk1Hpk0zu2LK/pDHLerZiekJ+RP5jHYjZ0ZLFNijBhe7NkdY8fgiSnl+s6iiylisGewawLaFsOpP9J5MLNyjl7D23zDRH36kYOeu5S4UEYK8XF+JrnBQ6phliuugNSY5ZqLmjJT2f9531bzTRZUZnJjhSGa6EJP5Sz2BltbpWFV401blMaztcMinT/Pu96uz5aC17/CyBJmy/VDAbNcj7gXi+K1vDF5hWSjS5JELmWBsrKZO5CsvIebJLB4YBKuSRab+frt/8/yp19S8O21xnlPVv1Zv/ZmSpGvYf8O);strokeColor=#404040;shadow=1;spacingTop=-3;spacingBottom=-3;spacingLeft=-3;spacingRight=-3;points=[[0.5,0,0],[0.5,0,0],[0.5,0.5,0],[1,0.5,0],[0.5,0.5,0]];labelBackgroundColor=none;rounded=0;html=1;whiteSpace=wrap;" parent="1" vertex="1">
            <mxGeometry x="3022" y="994.5" width="121" height="29" as="geometry" />
          </mxCell>
        </UserObject>
        <UserObject label="&lt;div style=&quot;font-size: 1px&quot;&gt;&lt;font style=&quot;font-size:8.47px;font-family:Calibri;color:#000000;direction:ltr;letter-spacing:0px;line-height:100%;opacity:1&quot;&gt;Kibana&lt;br/&gt;&lt;/font&gt;&lt;/div&gt;" tags="Background" id="90">
          <mxCell style="verticalAlign=middle;align=center;overflow=width;vsdxID=1212;fillColor=#44aac4;gradientColor=#31859b;gradientDirection=north;shape=stencil(vZPBcoMgEIafhqMMLKHqOU3fg2lQmVBxkDb27Ytd0xYtySm5Lbs/u3yrPxH7sVODJsDG4N1Jn80xdEQ8EwDTd9qbECMiDkTsG+d16917f8TzoGblHL25j7nDhPfqkop6vgXsEzOcse/zC8qVf401v8iByh2q/UUOlJeYmtIGl4ZVSeUiKNRkxsK7oIJxPZYXsVW+1UWcVjRWtUlpPGs9bNLL+6zpdX52fJ28RgN8RcOolAnNdkHsUTBAn/g/kzMou3qFwmktEpTMah5AkvkhMiRltSIRFKqEZLOZn+9+f5abjonBr9saYy2a9W997c6YQmeLwxc=);strokeColor=#404040;shadow=1;spacingTop=-3;spacingBottom=-3;spacingLeft=-3;spacingRight=-3;points=[[0.5,0,0],[0.5,0,0],[0.5,0.5,0],[1,0.5,0],[0.5,0.5,0]];labelBackgroundColor=none;rounded=0;html=1;whiteSpace=wrap;" parent="1" vertex="1">
            <mxGeometry x="3022" y="1032.5" width="121" height="25" as="geometry" />
          </mxCell>
        </UserObject>
        <UserObject label="" tags="Background" id="156">
          <mxCell style="vsdxID=1282;fillColor=none;gradientColor=none;points=[[0.5,0.5,0]];labelBackgroundColor=none;rounded=0;strokeColor=none;html=1;whiteSpace=wrap;" parent="1" vertex="1">
            <mxGeometry x="3028" y="1152.5" width="119" height="101" as="geometry" />
          </mxCell>
        </UserObject>
        <mxCell id="157" style="vsdxID=1283;edgeStyle=none;startArrow=none;endArrow=none;startSize=5;endSize=5;spacingTop=0;spacingBottom=0;spacingLeft=0;spacingRight=0;verticalAlign=middle;html=1;labelBackgroundColor=none;rounded=0;" parent="156" edge="1">
          <mxGeometry relative="1" as="geometry">
            <mxPoint x="-1" as="offset" />
            <Array as="points" />
            <mxPoint x="34" y="78" as="sourcePoint" />
            <mxPoint x="82" y="78" as="targetPoint" />
          </mxGeometry>
        </mxCell>
        <mxCell id="158" style="vsdxID=1284;fillColor=#FFFFFF;gradientColor=none;shape=stencil(nZBLDoAgDERP0z3SIyjew0SURgSD+Lu9kMZoXLhwN9O+tukAlrNpJg1SzDH4QW/URgNYgZTkjA4UkwJUgGXng+6DX1zLfmoymdXo17xh5zmRJ6Q42BWCfc2oJfdAr+Yv+AP9Cb7OJ3H/2JG1HNGz/84klThPVCc=);points=[[0.5,0.5,0]];labelBackgroundColor=none;rounded=0;html=1;whiteSpace=wrap;" parent="156" vertex="1">
          <mxGeometry x="82" y="53" width="35" height="47" as="geometry" />
        </mxCell>
        <mxCell id="159" style="vsdxID=1285;fillColor=#fff2cc;shape=stencil(vVzbdtw2DPwaP0aHF1Ein3v5D5/WSXzqxjkbt03+vtjuSoRmsNSKafuWyOCOSIIACAz0EH/48vHx89NDcF/eTq+/Pf31/Ovbx4f440MIz58+Pp2e3+RfD/Gnh/jD+9fT04fT6x+ffr38//PjWfL8r99f/zz/wtfLOHceEdy3y//mwc3/PPj5Ivvy/Omm7DQNaWwID8635X/543R5E7+MCOU64vpkdkNMl0dfw+WRHwe3SF0fzXEYw1UqXh5FX6UiSt2AH/PgMuCrX76CTX7IGfDVW17BpjD4aYu/s1znEfOR9eUBuHk4QRmBE8xDnrfzS7C43g0wt+tLrRPzfpibC7sO8Digoo6AqkQW2DiUchQ5DtNE4NkDeBxiIPxcAD8MZSb8MjXxwyKg8QsuuUglwl+lFD6vfGnuuIxBeNGBRPAB4UW3cPkFC9BFqDTR/apdCh53XoQYncFzIPTgd9DHzOiZ4H0k+DgCvhvmTPhjG1/GRMJHcyJSE564QObsLJUYP+7gR8/4ZYs/lqqhFT/BkRepyRP+1Jy/jKGDL2Mi4Y8z4U8j4aPqh2VFbsM7Vj44eWLyZ7Q8IjQBejbQc3vyuZqUip4DwQeGz5HgPRoekWq60nFef0bj4+bPqz4o/IKLPw+e51+aR1/GOLQ8uPNTtacLeFxjhhV8Wt96BReptiOfWPPiqg0KH41+HDzCp2WhNbxvGn0ZMzO8R/i0ngWNnwk/oeGLO2ZXxvhC+AGXf2S7K1LgdEQq4cGPi125hT8OEQ1v9bAKn7yOSKHuj6sj0vjtkx8HAx7svgiR3eEwUqRI9UWqDS9ng/HHCfBXC7LBx+2vplDjt7e/ui+Fn3D5JQ5A0xPZ7vuqyhU/NWMOGZPo6A8JTY+vSlLx0fD6gTd/x+u4gXWfnI4b0OfVQHEFF//J4HkH3KPLjat/X9CjuFzeejh4IjTz3NvRrowZ0ejHdQMVPEU8kXxezNWBKPzmzsuYCZ2ejMHp5yVw0viZ4D2b/bbPjXNd1wqPPlek1pdU8ODzRCry9HPz4MsYY/czHPyoHJrCx+2fFlXb4De1T8ZE1n30+SLFqw9XnZgGBi/txU/WqS+4+IlvWiIVCd5hwLNK3cIfDaNfUPXFm7HqFzB6UXkmBd/0+bH+jMbHvY81jFf4uPexGvCIUrfxVz+p8MHpxTCw6hU8esFSvdJWPbkKGtNH1fPW0SuofJy6qVK38N3qulr4bgkcW/ih1KD43vnLmICXDV5+kXLG9sP6B9PytrdfxiS2/JhnEKlgzB8sf5jXY3u3+suYiWOOAokGkYocc+F1Q6Q44mwf/jCtZlbDg9cXqckwfQHgp/qS9xo/GYOJNWVUF/i0ukJt+FH70sC2p233ZUhgdMzriZTjoCfj5o/Wfaft92SMcfgy2F6RCrz5GVe/noe7/X5Y45INPsDX4FZHPbj6pultRz0yxrHuz2D6QxhmAx91PyyXi/ujPhkTWPlx90N1qSrkxemr3Pa9Ma+MSbz6E07fW7uPaZ7gOMW6F/DLmNmI+AHeWUc/4fTdMB697cgYz5Y3YdGiVJuu8EH5RSqx5W/f9mRM5OUfM+Gz4R8ngncGfPPs+zwY6AHQs3XXi+D3RMqx7rev+l75KnXXB8MvUobljbj6c60V3JvqkDGU5lNJlAVsqpULlWqBqFekKMe7l+rxZqbL4+5PVa9VqmkmfOPK0051+WTlOjzUV7yZ6nKIn2r5795M33kMwTuGX2PjFZ6wSfX3Upx+rJn7mmLFK4dIRSPFC5bnXNTk/Ho7xasiHJ3iRd2PVnkF3e7ZYXB9o+12zwed8/vo987qQPC486E68HvT+/VXdHEBFz+w4qkSRMVKePD3ihu1+qTxE07e17hUFXdw8z3nePeKO94sbpHh9Xzwubh0lmL49vQ9xzyqalZLx0ZtK6Ddr9Xzu2t75zGs+zj7msC7WVgUmcCK3za6hX2OKpeGRShhvKMqr3ERCrjyexXdUq9wtwvKpSrn7XpyodzqXjU7V1Oiiulwzcm1YKBOAZRV8uqj7i7lqyEehyhwj4EGEwmMctoeePWW36oGQozniJeSKa3ntrhI2NgyczLyO/7fNTq+QQktIlMtMnsjZloc18zC1tg8FRgGmKfi+JGkCxCTLJTRqPYAORY91khZuaYlvMcU9thhIwZCjoX2FhUeORZ9bsgIQSwviBpvesEeL0x5J6ZY6FihPkp4++qLQibefKx2qVBJBUG4+j0xWI3tKCpT8Z8RgmC1qTP+JHfEFAsdJav4F0PAnvh75DorUyz0LaHiY86z6/6RjJQ/gCfj2o8Mi857FykeMyz07VBdBxC/59458cFnioW+HSt8jD/77t2Fk05IsdDZAXXvx9tPX97BSHohxUJnR1TeA3W/J++STYoH2v1MhocpFl1Zp2Jc+5FhoTNjCh53vy/nRuQqZljozKDK+cEVoDPnOKHhZYaFToyqlCvBH8+4eqvYhXdvnRdW8Ijfk3EOzOxjloVOi6uEO8D35dtnLncgy0JXBRQ8Tr+v3mCUW5BloYsiKhVE8MerLaO1++h2dU1IwWO+v6falAxmIbEsdE1M4eP2dxXbDMuLXl8XBFUgAuh9lUbj6CPNQtdDOQ76nkLrbFUbMOepq8EKHi1fT505c/qDaRa6Gq7wcfN76uyqgt+s8xvFLqrzd/AMNINB4TPPwTh8/wrPwlsML8JXbJAGfh/PhA8fsVyike9nmksfy2Yytn8mfGrnYJpFF8toNGkekGpQVCgFjwS3Ho5VsqpdSLPQTDCFHwj/MMVsousmkSw0B07ZfVS9PnZdNgw/7r3iACp83Ps+dqFx9JBloTmQCh8Xv4ddqWibCh/gs8XwQpZFF7e0WHV2rDZpBqzCR93v49Ya5FLk9Dtr95Fl0Ucs5pgHORaK+qzAkVDfQan21mUPwb116pFh0cUnDxa/BhkWmvWu8EHxO/n0mXceGRaa9a9um8gp7+knUJ0KCj8AfjSMPlIsuroplJ9SV33uJrEoHrj8fd0klOZjioXueVGpFlT+vm4aI9WFFAvd86NSTdhN09NNNBm5DmRYjGamCxkWnb1UhbUPKRa63WvFB/C+LrIRfS5TLHSvm0rxounp6aJT/XkqxYu6nznNxxSLviZCaiRjhoVudKSM//c1UJLdYYqF7vJU1QXc/L7+UeqdDmT3dZerKu5g73Zf/6xR2zL6d2dWPqN/93j/sOeIhzkWySxuIceis3/aqK/g9FWL983KYk/reGCvwyQL1d5ewZFk0dk3T+0cdt8+4tt9+4e/GxD5psVUC/11A1VNh/pK13cT/p0vNhz+UITRs+0o1NIfvrg+ymRutdD10d63MZDiEQdqWc7Us+q2sEZSxbVg1c14gXVbTLfFUy8VtwL3zNJtoTJ3xxFbz1HJ5A7+DBBZxlrjWH51syrbD5ssf+wSLhleZSvOr3J4ALzO3lTLtOzYfe9/UHyEtMHudA8PwBfanfBquu+bwUFxBynC3fc/PABfaDvhkmq0uf7Expg/nn6RP57WzyAtPuL0bX2yGPLrT0p0NNs/6b6+e/z6/OXd6fXt8e359dPmGL88nj48vRO4d+9fHj9c1+vypy9/PT19Vo/d973g7Tn/Jy8o/6ifq3r//PJy+dqV/jt+3koeXT6NFX/6Gw==);points=[[0.5,0.5,0]];labelBackgroundColor=none;rounded=0;html=1;whiteSpace=wrap;strokeColor=#d6b656;" parent="156" vertex="1">
          <mxGeometry x="1" width="112" height="93" as="geometry" />
        </mxCell>
        <mxCell id="160" value="&lt;div style=&quot;font-size: 1px&quot;&gt;&lt;font style=&quot;font-size:14.11px;font-family:Calibri;color:#4d1e1a;direction:ltr;letter-spacing:0px;line-height:120%;opacity:1&quot;&gt;MS SQL / Oracle SERVER 200 GB&lt;br/&gt;&lt;/font&gt;&lt;/div&gt;" style="text;vsdxID=1282;fillColor=none;gradientColor=none;points=[[0.5,0.5,0]];labelBackgroundColor=none;rounded=0;strokeColor=none;html=1;whiteSpace=wrap;verticalAlign=middle;align=center;overflow=width;;html=1;" parent="156" vertex="1">
          <mxGeometry x="-39.41" y="101" width="198.41" height="28.23" as="geometry" />
        </mxCell>
        <UserObject label="&lt;div style=&quot;font-size: 1px&quot;&gt;&lt;font style=&quot;font-size:8.47px;font-family:Calibri;color:#000000;direction:ltr;letter-spacing:0px;line-height:100%;opacity:1&quot;&gt;Universal Messaging 10.7&lt;br/&gt;&lt;/font&gt;&lt;/div&gt;" tags="Background" id="161">
          <mxCell style="verticalAlign=middle;align=center;overflow=width;vsdxID=1286;fillColor=#44aac4;gradientColor=#31859b;gradientDirection=north;shape=stencil(vZPbEoIgEIafhksZkLK87vAeTKIykTgrlb19EHZAo67qbtn/X5ZvdRFbdTVvBUpJZ0DvxVkWpkZsjdJUNrUAaWyE2AaxValBVKCPTeHPLXdOFx30yd3Q+7p8iWcLV5WSi89QQm7nrbdz2FkNBjvFTnJuGOy23if6sPx+3TJ/GBLeyy4BbbiRuvHyYFYcKpHYXkmpeBVI3VmIdpIeXqdkI+K9KcHZJxa2CFlyPKcBzHQ65G8seM7edI6QzLKQxJLTECUymT+QRP6HCEk+AmFjkMlgHl/99yhft8UGz00rpVJ+UV/18WbalN9qtrkC);strokeColor=#404040;shadow=1;spacingTop=-3;spacingBottom=-3;spacingLeft=-3;spacingRight=-3;points=[[0.5,0,0],[0.5,0,0],[0.5,0.5,0],[1,0.5,0],[0.5,0.5,0]];labelBackgroundColor=none;rounded=0;html=1;whiteSpace=wrap;" parent="1" vertex="1">
            <mxGeometry x="2748" y="1064.5" width="207" height="29" as="geometry" />
          </mxCell>
        </UserObject>
        <UserObject label="&lt;div style=&quot;font-size: 1px&quot;&gt;&lt;font style=&quot;font-size:33.87px;font-family:Calibri;color:#000000;direction:ltr;letter-spacing:0px;line-height:120%;opacity:1&quot;&gt;QA Environment&lt;br&gt;&lt;/font&gt;&lt;/div&gt;" tags="Background" id="163">
          <mxCell style="verticalAlign=middle;align=center;overflow=width;vsdxID=1288;fillColor=#dae8fc;gradientDirection=north;shape=stencil(nZBLDoAgDERP0z3SIyjew0SURgSD+Lu9kMZoXLhwN9O+tukAlrNpJg1SzDH4QW/URgNYgZTkjA4UkwJUgGXng+6DX1zLfmoymdXo17xh5zmRJ6Q42BWCfc2oJfdAr+Yv+AP9Cb7OJ3H/2JG1HNGz/84klThPVCc=);strokeColor=#6c8ebf;shadow=1;points=[[1,0.5,0],[0.5,0,0],[0.5,0.5,0],[0.5,0.5,0]];labelBackgroundColor=none;rounded=0;html=1;whiteSpace=wrap;" parent="1" vertex="1">
            <mxGeometry x="1980" y="809" width="555" height="49" as="geometry" />
          </mxCell>
        </UserObject>
        <UserObject label="&lt;div style=&quot;font-size: 1px&quot;&gt;&lt;font style=&quot;font-size:11.29px;font-family:Calibri;color:#000000;direction:ltr;letter-spacing:0px;line-height:120%;opacity:1&quot;&gt;Internal Zone&lt;/font&gt;&lt;font style=&quot;font-size:11.29px;font-family:Calibri;color:#000000;direction:ltr;letter-spacing:0px;line-height:120%;opacity:1&quot;&gt;&lt;br/&gt;&lt;/font&gt;&lt;/div&gt;" tags="Background" id="164">
          <mxCell style="verticalAlign=top;align=left;overflow=width;vsdxID=1289;fillColor=#f0f0f0;gradientColor=#ffffff;gradientDirection=north;shape=stencil(nZBLDoAgDERP0z3SIyjew0SURgSD+Lu9kMZoXLhwN9O+tukAlrNpJg1SzDH4QW/URgNYgZTkjA4UkwJUgGXng+6DX1zLfmoymdXo17xh5zmRJ6Q42BWCfc2oJfdAr+Yv+AP9Cb7OJ3H/2JG1HNGz/84klThPVCc=);strokeColor=#404040;shadow=1;points=[[1,0.5,0],[0.5,0,0],[0.5,0.5,0],[0.5,0.5,0]];labelBackgroundColor=none;rounded=0;html=1;whiteSpace=wrap;" parent="1" vertex="1">
            <mxGeometry x="1980" y="1389" width="553" height="505" as="geometry" />
          </mxCell>
        </UserObject>
        <UserObject label="&lt;div style=&quot;font-size: 1px&quot;&gt;&lt;font style=&quot;font-size:11.29px;font-family:Calibri;color:#000000;direction:ltr;letter-spacing:0px;line-height:120%;opacity:1&quot;&gt;Integration Cluster (Internal ESB)&lt;br/&gt;&lt;/font&gt;&lt;/div&gt;" tags="Background" id="165">
          <mxCell style="verticalAlign=top;align=center;overflow=width;vsdxID=1290;fillColor=#8fa350;gradientColor=none;fillOpacity=20;shape=stencil(vZPBcoMgEIafhqMMApp4Tsx7MA0qEyLOShr79sVC26AhOSW3Zfdflm/1R2w3dmKQiJLRgjnJqzraDrE9olT1nQRlXYRYjdiuMSBbMJf+6M+DmJVzdDaf8w2T76s2mG7nLkq+fCYn5Od88HIBH64GQU7xJqghyDkuuc9Mcf/vfVWBeRkUmZjUmIGxwirT+3pQawGtzNy0rNGijUrjVcphlQ7v06qX6eEcF/wRDV/R5DHNej/kXSxu1/TO5ARJuQRhLAJJ7OUNHKnfIQFS5UuSbRGRrPby99Ffz/LULi74t1qjtPZOva0vrelS3tas/gY=);strokeColor=#404040;shadow=1;points=[[0.5,0,0],[0.5,0,0],[0.5,0.5,0],[1,0.5,0],[0.5,0.5,0]];labelBackgroundColor=none;rounded=0;html=1;whiteSpace=wrap;" parent="1" vertex="1">
            <mxGeometry x="2021" y="1591" width="466" height="279" as="geometry" />
          </mxCell>
        </UserObject>
        <UserObject label="&lt;div style=&quot;font-size: 1px&quot;&gt;&lt;font style=&quot;font-size:11.29px;font-family:Calibri;color:#000000;direction:ltr;letter-spacing:0px;line-height:120%;opacity:1&quot;&gt;DMZ Zone&lt;/font&gt;&lt;font style=&quot;font-size:11.29px;font-family:Calibri;color:#000000;direction:ltr;letter-spacing:0px;line-height:120%;opacity:1&quot;&gt;&lt;br/&gt;&lt;/font&gt;&lt;/div&gt;" tags="Background" id="166">
          <mxCell style="verticalAlign=top;align=left;overflow=width;vsdxID=1291;fillColor=#f0f0f0;gradientColor=#ffffff;gradientDirection=north;shape=stencil(nZBLDoAgDERP0z3SIyjew0SURgSD+Lu9kMZoXLhwN9O+tukAlrNpJg1SzDH4QW/URgNYgZTkjA4UkwJUgGXng+6DX1zLfmoymdXo17xh5zmRJ6Q42BWCfc2oJfdAr+Yv+AP9Cb7OJ3H/2JG1HNGz/84klThPVCc=);strokeColor=#404040;shadow=1;points=[[1,0.5,0],[0.5,0,0],[0.5,0.5,0],[0.5,0.5,0]];labelBackgroundColor=none;rounded=0;html=1;whiteSpace=wrap;" parent="1" vertex="1">
            <mxGeometry x="1981" y="913" width="552" height="394" as="geometry" />
          </mxCell>
        </UserObject>
        <UserObject label="&lt;div style=&quot;font-size: 1px&quot;&gt;&lt;font style=&quot;font-size:8.47px;font-family:Calibri;color:#000000;direction:ltr;letter-spacing:0px;line-height:120%;opacity:1&quot;&gt;Integration Server – 1 (&lt;/font&gt;&lt;font style=&quot;font-size:8.47px;font-family:Calibri;color:#000000;direction:ltr;letter-spacing:0px;line-height:120%;opacity:1&quot;&gt;Core – 4  RAM – 16 GB)&lt;br&gt;&lt;/font&gt;&lt;/div&gt;" tags="Background" id="167">
          <mxCell style="verticalAlign=top;align=left;overflow=width;vsdxID=1292;fillColor=#d7d0e3;gradientColor=#e7e3ee;gradientDirection=north;shape=stencil(nZBLDoAgDERP0z3SIyjew0SURgSD+Lu9kMZoXLhwN9O+tukAlrNpJg1SzDH4QW/URgNYgZTkjA4UkwJUgGXng+6DX1zLfmoymdXo17xh5zmRJ6Q42BWCfc2oJfdAr+Yv+AP9Cb7OJ3H/2JG1HNGz/84klThPVCc=);strokeColor=#404040;shadow=1;points=[[1,0.5,0],[0.5,0,0],[0.5,0.5,0],[0.5,0.5,0]];labelBackgroundColor=none;rounded=0;html=1;whiteSpace=wrap;" parent="1" vertex="1">
            <mxGeometry x="2031" y="1624" width="172" height="208" as="geometry" />
          </mxCell>
        </UserObject>
        <UserObject label="&lt;div style=&quot;font-size: 1px&quot;&gt;&lt;font style=&quot;font-size:11.29px;font-family:Calibri;color:#000000;direction:ltr;letter-spacing:0px;line-height:120%;opacity:1&quot;&gt;Active- Active Cluster (Messaging / Event Servers)&lt;br/&gt;&lt;/font&gt;&lt;/div&gt;" tags="Background" id="168">
          <mxCell style="verticalAlign=top;align=center;overflow=width;vsdxID=1293;fillColor=#8fa350;gradientColor=none;fillOpacity=20;shape=stencil(vZPbtoIgEIafhktZNFjqdbv9HqxCZcUW18gue/sw6IBmXdXdHH5m+AaG8HVXi1YSYJ1Fs5dHtbM14T8EQDW1RGWdRfiG8HVpUFZo/pud91sxKAfrzxyGCr0/V2QU8uEUsJOPLBi7+L9eLnDrchjkQPOgxpucstSH+rjAtWDB6JIHRSJ61SVorLDKND4f1FpgJRPXLim1qKJUd5SynYTDBbVq5IvmNM1e4aQjnJyuIKKZDoh9iwVoBk86z5CsYpBi/Cwzc/kCx9x3mPthY5CMRyCTsdze/PMob9fFGfdVK5XWflMf8+PVdCG/1nxzBg==);strokeColor=#404040;shadow=1;points=[[0.5,0,0],[0.5,0,0],[0.5,0.5,0],[1,0.5,0],[0.5,0.5,0]];labelBackgroundColor=none;rounded=0;html=1;whiteSpace=wrap;" parent="1" vertex="1">
            <mxGeometry x="2022" y="1431" width="466" height="134" as="geometry" />
          </mxCell>
        </UserObject>
        <UserObject label="&lt;div style=&quot;font-size: 1px&quot;&gt;&lt;font style=&quot;font-size:8.47px;font-family:Calibri;color:#000000;direction:ltr;letter-spacing:0px;line-height:120%;opacity:1&quot;&gt;Universal Messaging 1&lt;br&gt;(Cores 4 RAM 16 GB)&lt;/font&gt;&lt;font style=&quot;font-size:8.47px;font-family:Calibri;color:#000000;direction:ltr;letter-spacing:0px;line-height:120%;opacity:1&quot;&gt;&lt;br&gt;&lt;/font&gt;&lt;/div&gt;" tags="Background" id="169">
          <mxCell style="verticalAlign=top;align=left;overflow=width;vsdxID=1294;fillColor=#d7d0e3;gradientColor=#e7e3ee;gradientDirection=north;shape=stencil(nZBLDoAgDERP0z3SIyjew0SURgSD+Lu9kMZoXLhwN9O+tukAlrNpJg1SzDH4QW/URgNYgZTkjA4UkwJUgGXng+6DX1zLfmoymdXo17xh5zmRJ6Q42BWCfc2oJfdAr+Yv+AP9Cb7OJ3H/2JG1HNGz/84klThPVCc=);strokeColor=#404040;shadow=1;points=[[1,0.5,0],[0.5,0,0],[0.5,0.5,0],[0.5,0.5,0]];labelBackgroundColor=none;rounded=0;html=1;whiteSpace=wrap;" parent="1" vertex="1">
            <mxGeometry x="2032" y="1451" width="134" height="88" as="geometry" />
          </mxCell>
        </UserObject>
        <UserObject label="&lt;div style=&quot;font-size: 1px&quot;&gt;&lt;font style=&quot;font-size:8.47px;font-family:Calibri;color:#000000;direction:ltr;letter-spacing:0px;line-height:120%;opacity:1&quot;&gt;Universal Messaging 3&lt;br&gt;(Cores 4 RAM 16 GB)&lt;/font&gt;&lt;font style=&quot;font-size:8.47px;font-family:Calibri;color:#000000;direction:ltr;letter-spacing:0px;line-height:120%;opacity:1&quot;&gt;&lt;br&gt;&lt;/font&gt;&lt;/div&gt;" tags="Background" id="170">
          <mxCell style="verticalAlign=top;align=left;overflow=width;vsdxID=1295;fillColor=#d7d0e3;gradientColor=#e7e3ee;gradientDirection=north;shape=stencil(nZBLDoAgDERP0z3SIyjew0SURgSD+Lu9kMZoXLhwN9O+tukAlrNpJg1SzDH4QW/URgNYgZTkjA4UkwJUgGXng+6DX1zLfmoymdXo17xh5zmRJ6Q42BWCfc2oJfdAr+Yv+AP9Cb7OJ3H/2JG1HNGz/84klThPVCc=);strokeColor=#404040;shadow=1;points=[[1,0.5,0],[0.5,0,0],[0.5,0.5,0],[0.5,0.5,0]];labelBackgroundColor=none;rounded=0;html=1;whiteSpace=wrap;" parent="1" vertex="1">
            <mxGeometry x="2335" y="1451" width="142" height="88" as="geometry" />
          </mxCell>
        </UserObject>
        <UserObject label="" tags="Background" id="218">
          <mxCell style="vsdxID=1296;edgeStyle=none;dashed=1;dashPattern=8.00 4.00 1.00 4.00;startArrow=none;endArrow=none;startSize=5;endSize=5;spacingTop=0;spacingBottom=0;spacingLeft=0;spacingRight=0;verticalAlign=middle;html=1;labelBackgroundColor=#ffffff;rounded=0;" parent="1" edge="1">
            <mxGeometry relative="1" as="geometry">
              <mxPoint as="offset" />
              <Array as="points" />
              <mxPoint x="1930" y="1355" as="sourcePoint" />
              <mxPoint x="2795" y="1355" as="targetPoint" />
            </mxGeometry>
          </mxCell>
        </UserObject>
        <UserObject label="&lt;div style=&quot;font-size: 1px&quot;&gt;&lt;font style=&quot;font-size:8.47px;font-family:Calibri;color:#000000;direction:ltr;letter-spacing:0px;line-height:100%;opacity:1&quot;&gt;Platform Manager 10.7&lt;br/&gt;JVM Heap : 256 MB&lt;br/&gt;&lt;/font&gt;&lt;/div&gt;" tags="Background" id="171">
          <mxCell style="verticalAlign=middle;align=center;overflow=width;vsdxID=1297;fillColor=#44aac4;gradientColor=#31859b;gradientDirection=north;shape=stencil(vVPLcsMgDPwajtaAcBx8TtP/YBJsM6XGg2nj/n1xcR7YZXpqbnqsJFZiCT+MnRwUQTp6Z9/URZ99R/gLQdR9p5z2wSL8SPihsU61zn705+gPckbO1rv9nDtMsa7eg8C5CulXjDBKf/zXCJfuFHJugSOgiGh3hSOUVQxNaYNrQyGALYBCTnosnPXSa9vH9AI20rWqCNOKxsg2SY0XpYZNeHmf0b3Kz2YM6jwbBlWZshFQ7xIy2/3QZ3FBYOKXyZm70PVdGPD0LpnNPIFJ5j9kmJT1igmHChMmm83czv7/XP4UTDDuYmu0MVGrj/m1OEMoCpsfvwE=);strokeColor=#404040;shadow=1;spacingTop=-3;spacingBottom=-3;spacingLeft=-3;spacingRight=-3;points=[[0.5,0,0],[0.5,0,0],[0.5,0.5,0],[1,0.5,0],[0.5,0.5,0]];labelBackgroundColor=none;rounded=0;html=1;whiteSpace=wrap;" parent="1" vertex="1">
            <mxGeometry x="2037" y="1797" width="145" height="26" as="geometry" />
          </mxCell>
        </UserObject>
        <UserObject label="&lt;div style=&quot;font-size: 1px&quot;&gt;&lt;font style=&quot;font-size:8.47px;font-family:Calibri;color:#000000;direction:ltr;letter-spacing:0px;line-height:120%;opacity:1&quot;&gt;Integration Server – 2 (&lt;/font&gt;&lt;font style=&quot;font-size:8.47px;font-family:Calibri;color:#000000;direction:ltr;letter-spacing:0px;line-height:120%;opacity:1&quot;&gt;Core – 4  RAM – 16 GB)&lt;br&gt;&lt;/font&gt;&lt;/div&gt;" tags="Background" id="172">
          <mxCell style="verticalAlign=top;align=left;overflow=width;vsdxID=1298;fillColor=#d7d0e3;gradientColor=#e7e3ee;gradientDirection=north;shape=stencil(nZBLDoAgDERP0z3SIyjew0SURgSD+Lu9kMZoXLhwN9O+tukAlrNpJg1SzDH4QW/URgNYgZTkjA4UkwJUgGXng+6DX1zLfmoymdXo17xh5zmRJ6Q42BWCfc2oJfdAr+Yv+AP9Cb7OJ3H/2JG1HNGz/84klThPVCc=);strokeColor=#404040;shadow=1;points=[[1,0.5,0],[0.5,0,0],[0.5,0.5,0],[0.5,0.5,0]];labelBackgroundColor=none;rounded=0;html=1;whiteSpace=wrap;" parent="1" vertex="1">
            <mxGeometry x="2257" y="1625" width="172" height="208" as="geometry" />
          </mxCell>
        </UserObject>
        <UserObject label="&lt;div style=&quot;font-size: 1px&quot;&gt;&lt;font style=&quot;font-size:8.47px;font-family:Calibri;color:#000000;direction:ltr;letter-spacing:0px;line-height:100%;opacity:1&quot;&gt;Platform Manager 10.7&lt;br/&gt;JVM Heap : 256 MB&lt;br/&gt;&lt;/font&gt;&lt;/div&gt;" tags="Background" id="173">
          <mxCell style="verticalAlign=middle;align=center;overflow=width;vsdxID=1299;fillColor=#44aac4;gradientColor=#31859b;gradientDirection=north;shape=stencil(vVPLcsMgDPwajtaAcBx8TtP/YBJsM6XGg2nj/n1xcR7YZXpqbnqsJFZiCT+MnRwUQTp6Z9/URZ99R/gLQdR9p5z2wSL8SPihsU61zn705+gPckbO1rv9nDtMsa7eg8C5CulXjDBKf/zXCJfuFHJugSOgiGh3hSOUVQxNaYNrQyGALYBCTnosnPXSa9vH9AI20rWqCNOKxsg2SY0XpYZNeHmf0b3Kz2YM6jwbBlWZshFQ7xIy2/3QZ3FBYOKXyZm70PVdGPD0LpnNPIFJ5j9kmJT1igmHChMmm83czv7/XP4UTDDuYmu0MVGrj/m1OEMoCpsfvwE=);strokeColor=#404040;shadow=1;spacingTop=-3;spacingBottom=-3;spacingLeft=-3;spacingRight=-3;points=[[0.5,0,0],[0.5,0,0],[0.5,0.5,0],[1,0.5,0],[0.5,0.5,0]];labelBackgroundColor=none;rounded=0;html=1;whiteSpace=wrap;" parent="1" vertex="1">
            <mxGeometry x="2266" y="1800" width="145" height="26" as="geometry" />
          </mxCell>
        </UserObject>
        <UserObject label="&lt;div style=&quot;font-size: 1px&quot;&gt;&lt;font style=&quot;font-size:8.47px;font-family:Calibri;color:#000000;direction:ltr;letter-spacing:0px;line-height:120%;opacity:1&quot;&gt;Active Active Cluster&lt;br/&gt;&lt;/font&gt;&lt;/div&gt;" tags="Background" id="174">
          <mxCell style="verticalAlign=top;align=center;overflow=width;vsdxID=1300;fillColor=#8fa350;gradientColor=none;fillOpacity=20;shape=stencil(vZPBcoMgEIafhqMMsE3Ec5q+B5OgMqHiIG3M2xe7Jila0lNzW3Z/dv0WfwK7oVW9JoINwbuTPptjaAm8EiFM12pvQowI7Ansaud1491Hd8RzryblFL27z6nDiPeqLS3FdEuwC2Y4Y9/nN5Qrf4g1P8uBihdU+6u8pFWFqTFtcG0oOZXziLFQoxkK74IKxnVYn9VW+UYXcVxRW9UkpeGsdb9Kzx9oTafzw7mkXD7iYZsFz5ZWkPCsV8SeRRPXLX+ZnEHhsHoa2CQoud08ASX3T2RYgC9YJIUyYVnt5vb0/w/zp2ticHdcbaxFw/6sLx0aU+hu2H8B);strokeColor=#404040;shadow=1;points=[[0.5,0,0],[0.5,0,0],[0.5,0.5,0],[1,0.5,0],[0.5,0.5,0]];labelBackgroundColor=none;rounded=0;html=1;whiteSpace=wrap;" parent="1" vertex="1">
            <mxGeometry x="2033" y="1651" width="387" height="69" as="geometry" />
          </mxCell>
        </UserObject>
        <UserObject label="&lt;div style=&quot;font-size: 1px&quot;&gt;&lt;font style=&quot;font-size:8.47px;font-family:Calibri;color:#000000;direction:ltr;letter-spacing:0px;line-height:100%;opacity:1&quot;&gt;Integration Server 10.15&lt;br/&gt;Adapters:  JDBC Oracle Application Adapter&lt;br/&gt;&lt;/font&gt;&lt;/div&gt;" tags="Background" id="175">
          <mxCell style="verticalAlign=middle;align=center;overflow=width;vsdxID=1301;fillColor=#44aac4;gradientColor=#31859b;gradientDirection=north;shape=stencil(vVPbEoIgEP0aHmUQvPVc9h9MoTKROCuV/X0YdCF1eqq33T1nWc5eEFv3De8EoqQ3oA/iIvemQWyDKJVtI0AaayFWIrauNIga9KndO7/jI3O0jvo8vjC4vFWOCzpmUXJ1kZiQu791dA47i4GnU8wyxwZPT3Hi84cw//HeKvVwxAfZR6ANN1K3DvRUxaEWkS0VVYrXAdRfhOgmYf85JVuxXDld1hHjLAl1MJxngY5pZ8i/hFAcFzOVFyZCilBJgvM8UDLXlT+omF2Dpa360GC3KpzGpCXPYf9eyNcbscbrviqplDvPd/zzHm3I3TIrbw==);strokeColor=#404040;shadow=1;spacingTop=-3;spacingBottom=-3;spacingLeft=-3;spacingRight=-3;points=[[0.5,0,0],[0.5,0,0],[0.5,0.5,0],[1,0.5,0],[0.5,0.5,0]];labelBackgroundColor=none;rounded=0;html=1;whiteSpace=wrap;" parent="1" vertex="1">
            <mxGeometry x="2265" y="1655" width="145" height="63" as="geometry" />
          </mxCell>
        </UserObject>
        <UserObject label="&lt;div style=&quot;font-size: 1px&quot;&gt;&lt;font style=&quot;font-size:8.47px;font-family:Calibri;color:#000000;direction:ltr;letter-spacing:0px;line-height:100%;opacity:1&quot;&gt;Integration Server 10.15&lt;br/&gt;Adapters:  JDBC,  Oracle Application Adapter&lt;br/&gt;&lt;/font&gt;&lt;/div&gt;" tags="Background" id="176">
          <mxCell style="verticalAlign=middle;align=center;overflow=width;vsdxID=1302;fillColor=#44aac4;gradientColor=#31859b;gradientDirection=north;shape=stencil(vVPbEoIgEP0aHmUQvPVc9h9MoTKROCuV/X0YdCF1eqq33T1nWc5eEFv3De8EoqQ3oA/iIvemQWyDKJVtI0AaayFWIrauNIga9KndO7/jI3O0jvo8vjC4vFWOCzpmUXJ1kZiQu791dA47i4GnU8wyxwZPT3Hi84cw//HeKvVwxAfZR6ANN1K3DvRUxaEWkS0VVYrXAdRfhOgmYf85JVuxXDld1hHjLAl1MJxngY5pZ8i/hFAcFzOVFyZCilBJgvM8UDLXlT+omF2Dpa360GC3KpzGpCXPYf9eyNcbscbrviqplDvPd/zzHm3I3TIrbw==);strokeColor=#404040;shadow=1;spacingTop=-3;spacingBottom=-3;spacingLeft=-3;spacingRight=-3;points=[[0.5,0,0],[0.5,0,0],[0.5,0.5,0],[1,0.5,0],[0.5,0.5,0]];labelBackgroundColor=none;rounded=0;html=1;whiteSpace=wrap;" parent="1" vertex="1">
            <mxGeometry x="2039" y="1653" width="145" height="63" as="geometry" />
          </mxCell>
        </UserObject>
        <UserObject label="&lt;div style=&quot;font-size: 1px&quot;&gt;&lt;font style=&quot;font-size:8.47px;font-family:Calibri;color:#000000;direction:ltr;letter-spacing:0px;line-height:120%;opacity:1&quot;&gt;Active Passive Mirror&lt;br/&gt;&lt;/font&gt;&lt;/div&gt;" tags="Background" id="177">
          <mxCell style="verticalAlign=top;align=center;overflow=width;vsdxID=1303;fillColor=#8fa350;gradientColor=none;fillOpacity=20;shape=stencil(vVPLlsIgDP0aluVQoq1dq/MfHKUtZ7D0pDjWv5cK4wi1M6txl8clyU24BLZDK3pJOBssmk95UUfbEtgRzlXXSlTWWQT2BLa1QdmgOXdH7/diQk7WyXxNFUb/ripoyadXnF19JGfs7n94uMCDy2GAA4W1R2OAw4ZWITTGBb4LFjmtAiAToxoyNFZYZTqfDmAtsJGZ65bVWjRRarhI2c/CYT6tOrnc202X/8aGpWzWdFVGbOYLYu8iA5RvXnReoJJDQqV43GqMJkhX8wYmCx9igcmKJ0wqWsZHmW3mcff/5/KnYpzxo7Zaae3F+pxP1elCXtmwvwE=);strokeColor=#404040;shadow=1;points=[[0.5,0,0],[0.5,0,0],[0.5,0.5,0],[1,0.5,0],[0.5,0.5,0]];labelBackgroundColor=none;rounded=0;html=1;whiteSpace=wrap;" parent="1" vertex="1">
            <mxGeometry x="2036" y="1730" width="387" height="33" as="geometry" />
          </mxCell>
        </UserObject>
        <UserObject label="&lt;div style=&quot;font-size: 1px&quot;&gt;&lt;font style=&quot;font-size:8.47px;font-family:Calibri;color:#000000;direction:ltr;letter-spacing:0px;line-height:100%;opacity:1&quot;&gt;Terracotta &lt;br/&gt;JVM Heap : 4 GB&lt;br/&gt;&lt;/font&gt;&lt;/div&gt;" tags="Background" id="178">
          <mxCell style="verticalAlign=middle;align=center;overflow=width;vsdxID=1304;fillColor=#44aac4;gradientColor=#31859b;gradientDirection=north;shape=stencil(vVPLcsMgDPwajtaAcBx8TtP/YBJsM6XGg2nj/n1xcR7YZXpqbnqsJFZiCT+MnRwUQTp6Z9/URZ99R/gLQdR9p5z2wSL8SPihsU61zn705+gPckbO1rv9nDtMsa7eg8C5CulXjDBKf/zXCJfuFHJugSOgiGh3hSOUVQxNaYNrQyGALYBCTnosnPXSa9vH9AI20rWqCNOKxsg2SY0XpYZNeHmf0b3Kz2YM6jwbBlWZshFQ7xIy2/3QZ3FBYOKXyZm70PVdGPD0LpnNPIFJ5j9kmJT1igmHChMmm83czv7/XP4UTDDuYmu0MVGrj/m1OEMoCpsfvwE=);strokeColor=#404040;shadow=1;spacingTop=-3;spacingBottom=-3;spacingLeft=-3;spacingRight=-3;points=[[0.5,0,0],[0.5,0,0],[0.5,0.5,0],[1,0.5,0],[0.5,0.5,0]];labelBackgroundColor=none;rounded=0;html=1;whiteSpace=wrap;" parent="1" vertex="1">
            <mxGeometry x="2040" y="1730" width="145" height="26" as="geometry" />
          </mxCell>
        </UserObject>
        <UserObject label="&lt;div style=&quot;font-size: 1px&quot;&gt;&lt;font style=&quot;font-size:8.47px;font-family:Calibri;color:#000000;direction:ltr;letter-spacing:0px;line-height:100%;opacity:1&quot;&gt;Terracotta &lt;br/&gt;JVM Heap : 4 GB&lt;br/&gt;&lt;/font&gt;&lt;/div&gt;" tags="Background" id="179">
          <mxCell style="verticalAlign=middle;align=center;overflow=width;vsdxID=1305;fillColor=#44aac4;gradientColor=#31859b;gradientDirection=north;shape=stencil(vVPLcsMgDPwajtaAcBx8TtP/YBJsM6XGg2nj/n1xcR7YZXpqbnqsJFZiCT+MnRwUQTp6Z9/URZ99R/gLQdR9p5z2wSL8SPihsU61zn705+gPckbO1rv9nDtMsa7eg8C5CulXjDBKf/zXCJfuFHJugSOgiGh3hSOUVQxNaYNrQyGALYBCTnosnPXSa9vH9AI20rWqCNOKxsg2SY0XpYZNeHmf0b3Kz2YM6jwbBlWZshFQ7xIy2/3QZ3FBYOKXyZm70PVdGPD0LpnNPIFJ5j9kmJT1igmHChMmm83czv7/XP4UTDDuYmu0MVGrj/m1OEMoCpsfvwE=);strokeColor=#404040;shadow=1;spacingTop=-3;spacingBottom=-3;spacingLeft=-3;spacingRight=-3;points=[[0.5,0,0],[0.5,0,0],[0.5,0.5,0],[1,0.5,0],[0.5,0.5,0]];labelBackgroundColor=none;rounded=0;html=1;whiteSpace=wrap;" parent="1" vertex="1">
            <mxGeometry x="2266" y="1732" width="145" height="26" as="geometry" />
          </mxCell>
        </UserObject>
        <UserObject label="&lt;div style=&quot;font-size: 1px&quot;&gt;&lt;font style=&quot;font-size:11.29px;font-family:Calibri;color:#000000;direction:ltr;letter-spacing:0px;line-height:120%;opacity:1&quot;&gt;Internal API Gateway Cluster&lt;br/&gt;&lt;/font&gt;&lt;/div&gt;" tags="Background" id="180">
          <mxCell style="verticalAlign=top;align=center;overflow=width;vsdxID=1310;fillColor=#8fa350;gradientColor=none;fillOpacity=20;shape=stencil(vVNLEsIgDD0NyzJItJ2u/dyDUdoyYumkqPX2UsEPrdWV7vJ5Ibwkj8CyrUQjCWetRbOXZ7WzFYEV4VzVlURlnUVgTWBZGJQlmmO9834jemRvHcypf6HzdXlK80VfxdnFR2aM3fyNhwvcuhwGOKd56tEY4EDTEOni+vt7rgOHgEhEp9oEjRVWmdrnA1oLLGXiuiWFFmWUas9SNqNw+J9WtZxuDjTLPrHJYMgGsojNeD7sX1yAsnedp/YyG+0lIjIxlz/wmDqHt0SA8sGBzSmDiMloLo+l/57LV7k44ym1QmntlfqaH0rThbysYX0F);strokeColor=#404040;shadow=1;points=[[0.5,0,0],[0.5,0,0],[0.5,0.5,0],[1,0.5,0],[0.5,0.5,0]];labelBackgroundColor=none;rounded=0;html=1;whiteSpace=wrap;" parent="1" vertex="1">
            <mxGeometry x="2022" y="939" width="415" height="336" as="geometry" />
          </mxCell>
        </UserObject>
        <UserObject label="&lt;div style=&quot;font-size: 1px&quot;&gt;&lt;font style=&quot;font-size:8.47px;font-family:Calibri;color:#000000;direction:ltr;letter-spacing:0px;line-height:120%;opacity:1&quot;&gt;API Gateway – 1 (&lt;/font&gt;&lt;font style=&quot;font-size:8.47px;font-family:Calibri;color:#000000;direction:ltr;letter-spacing:0px;line-height:120%;opacity:1&quot;&gt;Core – 4 . RAM 8GB)&lt;br&gt;&lt;/font&gt;&lt;/div&gt;" tags="Background" id="181">
          <mxCell style="verticalAlign=top;align=left;overflow=width;vsdxID=1311;fillColor=#d7d0e3;gradientColor=#e7e3ee;gradientDirection=north;shape=stencil(nZBLDoAgDERP0z3SIyjew0SURgSD+Lu9kMZoXLhwN9O+tukAlrNpJg1SzDH4QW/URgNYgZTkjA4UkwJUgGXng+6DX1zLfmoymdXo17xh5zmRJ6Q42BWCfc2oJfdAr+Yv+AP9Cb7OJ3H/2JG1HNGz/84klThPVCc=);strokeColor=#404040;shadow=1;points=[[1,0.5,0],[0.5,0,0],[0.5,0.5,0],[0.5,0.5,0]];labelBackgroundColor=none;rounded=0;html=1;whiteSpace=wrap;" parent="1" vertex="1">
            <mxGeometry x="2055" y="968" width="158" height="282" as="geometry" />
          </mxCell>
        </UserObject>
        <UserObject label="&lt;div style=&quot;font-size: 1px&quot;&gt;&lt;font style=&quot;font-size:8.47px;font-family:Calibri;color:#000000;direction:ltr;letter-spacing:0px;line-height:100%;opacity:1&quot;&gt;Platform Manager 10.7&lt;br/&gt;&lt;/font&gt;&lt;/div&gt;" tags="Background" id="182">
          <mxCell style="verticalAlign=middle;align=center;overflow=width;vsdxID=1312;fillColor=#44aac4;gradientColor=#31859b;gradientDirection=north;shape=stencil(vZNNcsMgDIVPw9IMoNQN6zS9B5Ngmyk1Hpk0zu2LK/pDHLerZiekJ+RP5jHYjZ0ZLFNijBhe7NkdY8fgiSnl+s6iiylisGewawLaFsOpP9J5MLNyjl7D23zDRH36kYOeu5S4UEYK8XF+JrnBQ6phliuugNSY5ZqLmjJT2f9531bzTRZUZnJjhSGa6EJP5Sz2BltbpWFV401blMaztcMinT/Pu96uz5aC17/CyBJmy/VDAbNcj7gXi+K1vDF5hWSjS5JELmWBsrKZO5CsvIebJLB4YBKuSRab+frt/8/yp19S8O21xnlPVv1Zv/ZmSpGvYf8O);strokeColor=#404040;shadow=1;spacingTop=-3;spacingBottom=-3;spacingLeft=-3;spacingRight=-3;points=[[0.5,0,0],[0.5,0,0],[0.5,0.5,0],[1,0.5,0],[0.5,0.5,0]];labelBackgroundColor=none;rounded=0;html=1;whiteSpace=wrap;" parent="1" vertex="1">
            <mxGeometry x="2073" y="1146" width="121" height="29" as="geometry" />
          </mxCell>
        </UserObject>
        <UserObject label="&lt;div style=&quot;font-size: 1px&quot;&gt;&lt;font style=&quot;font-size:8.47px;font-family:Calibri;color:#000000;direction:ltr;letter-spacing:0px;line-height:120%;opacity:1&quot;&gt;API Gateway – 2 (&lt;/font&gt;&lt;font style=&quot;font-size:8.47px;font-family:Calibri;color:#000000;direction:ltr;letter-spacing:0px;line-height:120%;opacity:1&quot;&gt;Core – 4 . RAM 8GB)&lt;br&gt;&lt;/font&gt;&lt;/div&gt;" tags="Background" id="183">
          <mxCell style="verticalAlign=top;align=left;overflow=width;vsdxID=1313;fillColor=#d7d0e3;gradientColor=#e7e3ee;gradientDirection=north;shape=stencil(nZBLDoAgDERP0z3SIyjew0SURgSD+Lu9kMZoXLhwN9O+tukAlrNpJg1SzDH4QW/URgNYgZTkjA4UkwJUgGXng+6DX1zLfmoymdXo17xh5zmRJ6Q42BWCfc2oJfdAr+Yv+AP9Cb7OJ3H/2JG1HNGz/84klThPVCc=);strokeColor=#404040;shadow=1;points=[[1,0.5,0],[0.5,0,0],[0.5,0.5,0],[0.5,0.5,0]];labelBackgroundColor=none;rounded=0;html=1;whiteSpace=wrap;" parent="1" vertex="1">
            <mxGeometry x="2254" y="968" width="158" height="282" as="geometry" />
          </mxCell>
        </UserObject>
        <UserObject label="&lt;div style=&quot;font-size: 1px&quot;&gt;&lt;font style=&quot;font-size:8.47px;font-family:Calibri;color:#000000;direction:ltr;letter-spacing:0px;line-height:100%;opacity:1&quot;&gt;Platform Manager 10.7&lt;br/&gt;&lt;/font&gt;&lt;/div&gt;" tags="Background" id="184">
          <mxCell style="verticalAlign=middle;align=center;overflow=width;vsdxID=1314;fillColor=#44aac4;gradientColor=#31859b;gradientDirection=north;shape=stencil(vZNNcsMgDIVPw9IMoNQN6zS9B5Ngmyk1Hpk0zu2LK/pDHLerZiekJ+RP5jHYjZ0ZLFNijBhe7NkdY8fgiSnl+s6iiylisGewawLaFsOpP9J5MLNyjl7D23zDRH36kYOeu5S4UEYK8XF+JrnBQ6phliuugNSY5ZqLmjJT2f9531bzTRZUZnJjhSGa6EJP5Sz2BltbpWFV401blMaztcMinT/Pu96uz5aC17/CyBJmy/VDAbNcj7gXi+K1vDF5hWSjS5JELmWBsrKZO5CsvIebJLB4YBKuSRab+frt/8/yp19S8O21xnlPVv1Zv/ZmSpGvYf8O);strokeColor=#404040;shadow=1;spacingTop=-3;spacingBottom=-3;spacingLeft=-3;spacingRight=-3;points=[[0.5,0,0],[0.5,0,0],[0.5,0.5,0],[1,0.5,0],[0.5,0.5,0]];labelBackgroundColor=none;rounded=0;html=1;whiteSpace=wrap;" parent="1" vertex="1">
            <mxGeometry x="2272" y="1146" width="121" height="29" as="geometry" />
          </mxCell>
        </UserObject>
        <UserObject label="&lt;div style=&quot;font-size: 1px&quot;&gt;&lt;font style=&quot;font-size:8.47px;font-family:Calibri;color:#000000;direction:ltr;letter-spacing:0px;line-height:120%;opacity:1&quot;&gt;Active Active Cluster&lt;br/&gt;&lt;/font&gt;&lt;/div&gt;" tags="Background" id="185">
          <mxCell style="verticalAlign=top;align=center;overflow=width;vsdxID=1318;fillColor=#8fa350;gradientColor=none;fillOpacity=20;shape=stencil(vZPBcoMgEIafhqMMsjHqOU3fg0lQmVJxVtKYtw92TVpCbU/Nbdn9WfgWfga7sVODZlKMHt2bPpuj7xi8MClN32k0PkQM9gx2jUPdojv1R1oPalbO0bv7mDtMtK/ecoB5lxQXyuRCfK5fSa7wEGq4yIEXBanxJq/4tqTUFDe4NawEL+WiyNRkxgydV964nuqL2ipsdRaOyxqr2qg0nrUekvRyQWt6vX54XnNZ/cazqRIeiHDSCYlnwcB9tJcftMnLJCCbCGRtME8AWfsQKyRl/oBS8yKPWJLJ3N/9/2H+tEwIvuzWGGvJrd/rj/YMKbI27K8=);strokeColor=#404040;shadow=1;points=[[0.5,0,0],[0.5,0,0],[0.5,0.5,0],[1,0.5,0],[0.5,0.5,0]];labelBackgroundColor=none;rounded=0;html=1;whiteSpace=wrap;" parent="1" vertex="1">
            <mxGeometry x="2060" y="987" width="346" height="65" as="geometry" />
          </mxCell>
        </UserObject>
        <UserObject label="&lt;div style=&quot;font-size: 1px&quot;&gt;&lt;font style=&quot;font-size:8.47px;font-family:Calibri;color:#000000;direction:ltr;letter-spacing:0px;line-height:100%;opacity:1&quot;&gt;API Gateway 10.7&lt;br/&gt;Standard&lt;br/&gt;&lt;/font&gt;&lt;/div&gt;" tags="Background" id="186">
          <mxCell style="verticalAlign=middle;align=center;overflow=width;vsdxID=1319;fillColor=#44aac4;gradientColor=#31859b;gradientDirection=north;shape=stencil(vVPLcsMgDPwajmYw+FGfE+c/mAbbTIjxyCRx/764Ig/qOD01N6FdIVZiidiMnRwU4Wx0YA/qoveuI2JLONd9p0A7HxFRE7FpLKgW7Knf43mQM3OOjvY83zBhXVVSUc1VnH1hJmXs57xDuoRPj0Ggc8oFsiHQc1rmmJni+ut9laA8C4xETnpMwDrptO0RD2wjoVWJ75Y0RrYRNF6UGhbp8D6je7XevKBl8VJNulCTRmqW82Hv0sJpkT7pvKIkq2IlBc3ivawM5g1C1v7DUyUezWMlHzSLd7IYzG3r/6/lT7/44O61RhuDVn3Ef3vTp9DXov4G);strokeColor=#404040;shadow=1;spacingTop=-3;spacingBottom=-3;spacingLeft=-3;spacingRight=-3;points=[[0.5,0,0],[0.5,0,0],[0.5,0.5,0],[1,0.5,0],[0.5,0.5,0]];labelBackgroundColor=none;rounded=0;html=1;whiteSpace=wrap;" parent="1" vertex="1">
            <mxGeometry x="2272" y="1003" width="121" height="46" as="geometry" />
          </mxCell>
        </UserObject>
        <UserObject label="&lt;div style=&quot;font-size: 1px&quot;&gt;&lt;font style=&quot;font-size:8.47px;font-family:Calibri;color:#000000;direction:ltr;letter-spacing:0px;line-height:100%;opacity:1&quot;&gt;API Gateway 10.7&lt;br/&gt;Standard&lt;br/&gt;&lt;/font&gt;&lt;/div&gt;" tags="Background" id="187">
          <mxCell style="verticalAlign=middle;align=center;overflow=width;vsdxID=1320;fillColor=#44aac4;gradientColor=#31859b;gradientDirection=north;shape=stencil(vVPLcsMgDPwajmYw+FGfE+c/mAbbTIjxyCRx/764Ig/qOD01N6FdIVZiidiMnRwU4Wx0YA/qoveuI2JLONd9p0A7HxFRE7FpLKgW7Knf43mQM3OOjvY83zBhXVVSUc1VnH1hJmXs57xDuoRPj0Ggc8oFsiHQc1rmmJni+ut9laA8C4xETnpMwDrptO0RD2wjoVWJ75Y0RrYRNF6UGhbp8D6je7XevKBl8VJNulCTRmqW82Hv0sJpkT7pvKIkq2IlBc3ivawM5g1C1v7DUyUezWMlHzSLd7IYzG3r/6/lT7/44O61RhuDVn3Ef3vTp9DXov4G);strokeColor=#404040;shadow=1;spacingTop=-3;spacingBottom=-3;spacingLeft=-3;spacingRight=-3;points=[[0.5,0,0],[0.5,0,0],[0.5,0.5,0],[1,0.5,0],[0.5,0.5,0]];labelBackgroundColor=none;rounded=0;html=1;whiteSpace=wrap;" parent="1" vertex="1">
            <mxGeometry x="2073" y="1003" width="121" height="46" as="geometry" />
          </mxCell>
        </UserObject>
        <UserObject label="&lt;div style=&quot;font-size: 1px&quot;&gt;&lt;/div&gt;" tags="Background" id="188">
          <mxCell style="verticalAlign=top;align=center;overflow=width;vsdxID=1322;fillColor=#8fa350;gradientColor=none;fillOpacity=20;shape=stencil(vZPNksIgDMefhmMZJN3antV9D2alLSOWTspqffulC34gVk96C8mfJL9ACKyGVvSScDZYNDt5VFvbElgTzlXXSlTWWQQ2BFa1Qdmg+e22/tyLSTlZe3OYMoz+XlVQgOkWZyfvWTD2f/72coE/LoZBDrSovBqDHBgtg2uME5wTFhXlRVBkYlRDhsYKq0zn40GtBTYyc+WyWosmCg1HKfvEHRrUqpPzxV17y/wZT17GPLyiizLiSUfEPkXjxr18UHkG5SshOfc9Rg0ko/kAydyXmEEp+d0v45TlEUsymsvLvx/m5dI447pwtdLa7+tt/H5BncsvN2z+AA==);strokeColor=#404040;shadow=1;points=[[0.5,0,0],[0.5,0,0],[0.5,0.5,0],[1,0.5,0],[0.5,0.5,0]];labelBackgroundColor=none;rounded=0;html=1;whiteSpace=wrap;" parent="1" vertex="1">
            <mxGeometry x="2062" y="1056" width="346" height="41" as="geometry" />
          </mxCell>
        </UserObject>
        <UserObject label="&lt;div style=&quot;font-size: 1px&quot;&gt;&lt;font style=&quot;font-size:8.47px;font-family:Calibri;color:#000000;direction:ltr;letter-spacing:0px;line-height:100%;opacity:1&quot;&gt;Elastic Search&lt;br/&gt;&lt;/font&gt;&lt;/div&gt;" tags="Background" id="189">
          <mxCell style="verticalAlign=middle;align=center;overflow=width;vsdxID=1323;fillColor=#44aac4;gradientColor=#31859b;gradientDirection=north;shape=stencil(vZNNcsMgDIVPw9IMoNQN6zS9B5Ngmyk1Hpk0zu2LK/pDHLerZiekJ+RP5jHYjZ0ZLFNijBhe7NkdY8fgiSnl+s6iiylisGewawLaFsOpP9J5MLNyjl7D23zDRH36kYOeu5S4UEYK8XF+JrnBQ6phliuugNSY5ZqLmjJT2f9531bzTRZUZnJjhSGa6EJP5Sz2BltbpWFV401blMaztcMinT/Pu96uz5aC17/CyBJmy/VDAbNcj7gXi+K1vDF5hWSjS5JELmWBsrKZO5CsvIebJLB4YBKuSRab+frt/8/yp19S8O21xnlPVv1Zv/ZmSpGvYf8O);strokeColor=#404040;shadow=1;spacingTop=-3;spacingBottom=-3;spacingLeft=-3;spacingRight=-3;points=[[0.5,0,0],[0.5,0,0],[0.5,0.5,0],[1,0.5,0],[0.5,0.5,0]];labelBackgroundColor=none;rounded=0;html=1;whiteSpace=wrap;" parent="1" vertex="1">
            <mxGeometry x="2273" y="1063" width="121" height="29" as="geometry" />
          </mxCell>
        </UserObject>
        <UserObject label="&lt;div style=&quot;font-size: 1px&quot;&gt;&lt;font style=&quot;font-size:8.47px;font-family:Calibri;color:#000000;direction:ltr;letter-spacing:0px;line-height:100%;opacity:1&quot;&gt;Elastic Search&lt;br/&gt;&lt;/font&gt;&lt;/div&gt;" tags="Background" id="190">
          <mxCell style="verticalAlign=middle;align=center;overflow=width;vsdxID=1325;fillColor=#44aac4;gradientColor=#31859b;gradientDirection=north;shape=stencil(vZNNcsMgDIVPw9IMoNQN6zS9B5Ngmyk1Hpk0zu2LK/pDHLerZiekJ+RP5jHYjZ0ZLFNijBhe7NkdY8fgiSnl+s6iiylisGewawLaFsOpP9J5MLNyjl7D23zDRH36kYOeu5S4UEYK8XF+JrnBQ6phliuugNSY5ZqLmjJT2f9531bzTRZUZnJjhSGa6EJP5Sz2BltbpWFV401blMaztcMinT/Pu96uz5aC17/CyBJmy/VDAbNcj7gXi+K1vDF5hWSjS5JELmWBsrKZO5CsvIebJLB4YBKuSRab+frt/8/yp19S8O21xnlPVv1Zv/ZmSpGvYf8O);strokeColor=#404040;shadow=1;spacingTop=-3;spacingBottom=-3;spacingLeft=-3;spacingRight=-3;points=[[0.5,0,0],[0.5,0,0],[0.5,0.5,0],[1,0.5,0],[0.5,0.5,0]];labelBackgroundColor=none;rounded=0;html=1;whiteSpace=wrap;" parent="1" vertex="1">
            <mxGeometry x="2073" y="1063" width="121" height="29" as="geometry" />
          </mxCell>
        </UserObject>
        <UserObject label="&lt;div style=&quot;font-size: 1px&quot;&gt;&lt;font style=&quot;font-size:8.47px;font-family:Calibri;color:#000000;direction:ltr;letter-spacing:0px;line-height:120%;opacity:1&quot;&gt;Active- Passive&lt;br/&gt;&lt;/font&gt;&lt;/div&gt;" tags="Background" id="191">
          <mxCell style="verticalAlign=top;align=center;overflow=width;vsdxID=1328;fillColor=#8fa350;gradientColor=none;fillOpacity=20;shape=stencil(vZPdcoMgEIWfhkt3kFVMrtP0PZgGlQkVB2lj375Y6A9akqvkbtk97PKtHoKHqRejJIxOzpqzvKiT6wk+EcbU0EurnI8IHgkeWmNlZ83bcArnUSzKJXo170uHOdzbc2C43GL0I2RKSr/Oz0Eu7Iuv2ShH2LGgtlGONdDYYE4bfDfkNVRlVBRiVlNhjRNOmSHUo1oL28nCjytaLbqkNF2kHDfp+ECtBpkfjhXU+2s8FV/xlNDwhGe7IvooGoSm+WdyBmVNgkDLhCS3mgeQ5H6JDEqzW7FUwFnCslnNz5e/P8xN0/jg13Ct0jr49W99bVCfCubG4yc=);strokeColor=#404040;shadow=1;points=[[0.5,0,0],[0.5,0,0],[0.5,0.5,0],[1,0.5,0],[0.5,0.5,0]];labelBackgroundColor=none;rounded=0;html=1;whiteSpace=wrap;" parent="1" vertex="1">
            <mxGeometry x="2070" y="1195" width="336" height="36" as="geometry" />
          </mxCell>
        </UserObject>
        <UserObject label="&lt;div style=&quot;font-size: 1px&quot;&gt;&lt;font style=&quot;font-size:8.47px;font-family:Calibri;color:#000000;direction:ltr;letter-spacing:0px;line-height:100%;opacity:1&quot;&gt;Terracotta for Cluster&lt;br/&gt;&lt;/font&gt;&lt;/div&gt;" tags="Background" id="192">
          <mxCell style="verticalAlign=middle;align=center;overflow=width;vsdxID=1329;fillColor=#44aac4;gradientColor=#31859b;gradientDirection=north;shape=stencil(vZPBcoMgEIafhqMMLKHqOU3fg2lQmVBxkDb27Ytd0xYtySm5Lbs/u3yrPxH7sVODJsDG4N1Jn80xdEQ8EwDTd9qbECMiDkTsG+d16917f8TzoGblHL25j7nDhPfqkop6vgXsEzOcse/zC8qVf401v8iByh2q/UUOlJeYmtIGl4ZVSeUiKNRkxsK7oIJxPZYXsVW+1UWcVjRWtUlpPGs9bNLL+6zpdX52fJ28RgN8RcOolAnNdkHsUTBAn/g/kzMou3qFwmktEpTMah5AkvkhMiRltSIRFKqEZLOZn+9+f5abjonBr9saYy2a9W997c6YQmeLwxc=);strokeColor=#404040;shadow=1;spacingTop=-3;spacingBottom=-3;spacingLeft=-3;spacingRight=-3;points=[[0.5,0,0],[0.5,0,0],[0.5,0.5,0],[1,0.5,0],[0.5,0.5,0]];labelBackgroundColor=none;rounded=0;html=1;whiteSpace=wrap;" parent="1" vertex="1">
            <mxGeometry x="2076" y="1200" width="121" height="25" as="geometry" />
          </mxCell>
        </UserObject>
        <UserObject label="&lt;div style=&quot;font-size: 1px&quot;&gt;&lt;font style=&quot;font-size:8.47px;font-family:Calibri;color:#000000;direction:ltr;letter-spacing:0px;line-height:100%;opacity:1&quot;&gt;Terracotta for Cluster&lt;br/&gt;&lt;/font&gt;&lt;/div&gt;" tags="Background" id="193">
          <mxCell style="verticalAlign=middle;align=center;overflow=width;vsdxID=1330;fillColor=#44aac4;gradientColor=#31859b;gradientDirection=north;shape=stencil(vZPBcoMgEIafhqMMLKHqOU3fg2lQmVBxkDb27Ytd0xYtySm5Lbs/u3yrPxH7sVODJsDG4N1Jn80xdEQ8EwDTd9qbECMiDkTsG+d16917f8TzoGblHL25j7nDhPfqkop6vgXsEzOcse/zC8qVf401v8iByh2q/UUOlJeYmtIGl4ZVSeUiKNRkxsK7oIJxPZYXsVW+1UWcVjRWtUlpPGs9bNLL+6zpdX52fJ28RgN8RcOolAnNdkHsUTBAn/g/kzMou3qFwmktEpTMah5AkvkhMiRltSIRFKqEZLOZn+9+f5abjonBr9saYy2a9W997c6YQmeLwxc=);strokeColor=#404040;shadow=1;spacingTop=-3;spacingBottom=-3;spacingLeft=-3;spacingRight=-3;points=[[0.5,0,0],[0.5,0,0],[0.5,0.5,0],[1,0.5,0],[0.5,0.5,0]];labelBackgroundColor=none;rounded=0;html=1;whiteSpace=wrap;" parent="1" vertex="1">
            <mxGeometry x="2272" y="1201" width="121" height="25" as="geometry" />
          </mxCell>
        </UserObject>
        <UserObject label="&lt;div style=&quot;font-size: 1px&quot;&gt;&lt;font style=&quot;font-size:8.47px;font-family:Calibri;color:#000000;direction:ltr;letter-spacing:0px;line-height:100%;opacity:1&quot;&gt;Kibana&lt;br/&gt;&lt;/font&gt;&lt;/div&gt;" tags="Background" id="194">
          <mxCell style="verticalAlign=middle;align=center;overflow=width;vsdxID=1331;fillColor=#44aac4;gradientColor=#31859b;gradientDirection=north;shape=stencil(vZPBcoMgEIafhqMMLKHqOU3fg2lQmVBxkDb27Ytd0xYtySm5Lbs/u3yrPxH7sVODJsDG4N1Jn80xdEQ8EwDTd9qbECMiDkTsG+d16917f8TzoGblHL25j7nDhPfqkop6vgXsEzOcse/zC8qVf401v8iByh2q/UUOlJeYmtIGl4ZVSeUiKNRkxsK7oIJxPZYXsVW+1UWcVjRWtUlpPGs9bNLL+6zpdX52fJ28RgN8RcOolAnNdkHsUTBAn/g/kzMou3qFwmktEpTMah5AkvkhMiRltSIRFKqEZLOZn+9+f5abjonBr9saYy2a9W997c6YQmeLwxc=);strokeColor=#404040;shadow=1;spacingTop=-3;spacingBottom=-3;spacingLeft=-3;spacingRight=-3;points=[[0.5,0,0],[0.5,0,0],[0.5,0.5,0],[1,0.5,0],[0.5,0.5,0]];labelBackgroundColor=none;rounded=0;html=1;whiteSpace=wrap;" parent="1" vertex="1">
            <mxGeometry x="2272" y="1105" width="121" height="25" as="geometry" />
          </mxCell>
        </UserObject>
        <UserObject label="&lt;div style=&quot;font-size: 1px&quot;&gt;&lt;font style=&quot;font-size:8.47px;font-family:Calibri;color:#000000;direction:ltr;letter-spacing:0px;line-height:100%;opacity:1&quot;&gt;Kibana&lt;br/&gt;&lt;/font&gt;&lt;/div&gt;" tags="Background" id="195">
          <mxCell style="verticalAlign=middle;align=center;overflow=width;vsdxID=1332;fillColor=#44aac4;gradientColor=#31859b;gradientDirection=north;shape=stencil(vZPBcoMgEIafhqMMLKHqOU3fg2lQmVBxkDb27Ytd0xYtySm5Lbs/u3yrPxH7sVODJsDG4N1Jn80xdEQ8EwDTd9qbECMiDkTsG+d16917f8TzoGblHL25j7nDhPfqkop6vgXsEzOcse/zC8qVf401v8iByh2q/UUOlJeYmtIGl4ZVSeUiKNRkxsK7oIJxPZYXsVW+1UWcVjRWtUlpPGs9bNLL+6zpdX52fJ28RgN8RcOolAnNdkHsUTBAn/g/kzMou3qFwmktEpTMah5AkvkhMiRltSIRFKqEZLOZn+9+f5abjonBr9saYy2a9W997c6YQmeLwxc=);strokeColor=#404040;shadow=1;spacingTop=-3;spacingBottom=-3;spacingLeft=-3;spacingRight=-3;points=[[0.5,0,0],[0.5,0,0],[0.5,0.5,0],[1,0.5,0],[0.5,0.5,0]];labelBackgroundColor=none;rounded=0;html=1;whiteSpace=wrap;" parent="1" vertex="1">
            <mxGeometry x="2073" y="1105" width="121" height="25" as="geometry" />
          </mxCell>
        </UserObject>
        <UserObject label="&lt;div style=&quot;font-size: 1px&quot;&gt;&lt;font style=&quot;font-size:8.47px;font-family:Calibri;color:#000000;direction:ltr;letter-spacing:0px;line-height:120%;opacity:1&quot;&gt;Universal Messaging 2&lt;br&gt;(Cores 4 RAM 16 GB)&lt;/font&gt;&lt;font style=&quot;font-size:8.47px;font-family:Calibri;color:#000000;direction:ltr;letter-spacing:0px;line-height:120%;opacity:1&quot;&gt;&lt;br&gt;&lt;/font&gt;&lt;/div&gt;" tags="Background" id="196">
          <mxCell style="verticalAlign=top;align=left;overflow=width;vsdxID=1337;fillColor=#d7d0e3;gradientColor=#e7e3ee;gradientDirection=north;shape=stencil(nZBLDoAgDERP0z3SIyjew0SURgSD+Lu9kMZoXLhwN9O+tukAlrNpJg1SzDH4QW/URgNYgZTkjA4UkwJUgGXng+6DX1zLfmoymdXo17xh5zmRJ6Q42BWCfc2oJfdAr+Yv+AP9Cb7OJ3H/2JG1HNGz/84klThPVCc=);strokeColor=#404040;shadow=1;points=[[1,0.5,0],[0.5,0,0],[0.5,0.5,0],[0.5,0.5,0]];labelBackgroundColor=none;rounded=0;html=1;whiteSpace=wrap;" parent="1" vertex="1">
            <mxGeometry x="2192" y="1451" width="127" height="88" as="geometry" />
          </mxCell>
        </UserObject>
        <UserObject label="&lt;div style=&quot;font-size: 1px&quot;&gt;&lt;/div&gt;" tags="Background" id="197">
          <mxCell style="verticalAlign=top;align=center;overflow=width;vsdxID=1338;fillColor=#0070c0;gradientColor=none;fillOpacity=20;shape=stencil(vZNLcsMgDIZPw9IMFkkcr9PkHkyDbabUeGSSuLcvrugDu0xWyU5IvxCfkJg8jJ0aNAMxenRv+mbOvmPyhQGYvtNofLCYPDJ5aBzqFt2lP9N5ULNytt7ddb5hory64qKcs0B8kKcU4ut8IrnC1xDDKJe83JAaoxy2fEeeKc3/vq8KglhhKtRkxgKdV964nuJRbRW2ugjVisaqNgmNN62HlTu+z5pe54vDhss6jwO82i1wgG/LhGfdIfEsGuB1/U/lDMp+iSI57BOUXG+egJKbicyUiWo5ZQnIqjE///54krsbE4zfbWuMtbSsf+PL7Qwu2mx5/AQ=);strokeColor=#404040;shadow=1;points=[[0.5,0,0],[0.5,0,0],[0.5,0.5,0],[1,0.5,0],[0.5,0.5,0]];labelBackgroundColor=none;rounded=0;html=1;whiteSpace=wrap;" parent="1" vertex="1">
            <mxGeometry x="2046" y="1478" width="424" height="52" as="geometry" />
          </mxCell>
        </UserObject>
        <UserObject label="&lt;div style=&quot;font-size: 1px&quot;&gt;&lt;font style=&quot;font-size:8.47px;font-family:Calibri;color:#000000;direction:ltr;letter-spacing:0px;line-height:100%;opacity:1&quot;&gt;Universal Messaging 10.7&lt;br/&gt;&lt;/font&gt;&lt;/div&gt;" tags="Background" id="198">
          <mxCell style="verticalAlign=middle;align=center;overflow=width;vsdxID=1339;fillColor=#44aac4;gradientColor=#31859b;gradientDirection=north;shape=stencil(vVPLcsMgDPwajtYA6qTmnKb/wTTYZkqNB9PG/fviymmCXSan5KbHSmIlluF+7PRgmORjDP7dnOwxdgxfmJS270ywMVkMDwz3jQ+mDf6zP5I/6Bk5Wx/+a+4wUZ3aQY1zleTfFBGc//qvBNfhLeXCAkdASehwhgsQFJny+nO/WsHTAqj0ZMcq+Kij9T2lF7DToTVVGlY1TrdZajwZM2zCy/Oc7U15tuCwK5ORoFRORoGqMzLb9fBHcUEQz/9MLpyF4+osHER+l8JmHsCk8B8KTNSaCa6ZbDbzd/b7c7mpl2RctNZY50iq1/m1NlOIdI2HHw==);strokeColor=#404040;shadow=1;spacingTop=-3;spacingBottom=-3;spacingLeft=-3;spacingRight=-3;points=[[0.5,0,0],[0.5,0,0],[0.5,0.5,0],[1,0.5,0],[0.5,0.5,0]];labelBackgroundColor=none;rounded=0;html=1;whiteSpace=wrap;" parent="1" vertex="1">
            <mxGeometry x="2050" y="1488" width="100" height="29" as="geometry" />
          </mxCell>
        </UserObject>
        <UserObject label="&lt;div style=&quot;font-size: 1px&quot;&gt;&lt;font style=&quot;font-size:8.47px;font-family:Calibri;color:#000000;direction:ltr;letter-spacing:0px;line-height:100%;opacity:1&quot;&gt;Universal Messaging 10.7&lt;br/&gt;&lt;/font&gt;&lt;/div&gt;" tags="Background" id="199">
          <mxCell style="verticalAlign=middle;align=center;overflow=width;vsdxID=1340;fillColor=#44aac4;gradientColor=#31859b;gradientDirection=north;shape=stencil(vVPLcsMgDPwajtYA6qTmnKb/wTTYZkqNB9PG/fviymmCXSan5KbHSmIlluF+7PRgmORjDP7dnOwxdgxfmJS270ywMVkMDwz3jQ+mDf6zP5I/6Bk5Wx/+a+4wUZ3aQY1zleTfFBGc//qvBNfhLeXCAkdASehwhgsQFJny+nO/WsHTAqj0ZMcq+Kij9T2lF7DToTVVGlY1TrdZajwZM2zCy/Oc7U15tuCwK5ORoFRORoGqMzLb9fBHcUEQz/9MLpyF4+osHER+l8JmHsCk8B8KTNSaCa6ZbDbzd/b7c7mpl2RctNZY50iq1/m1NlOIdI2HHw==);strokeColor=#404040;shadow=1;spacingTop=-3;spacingBottom=-3;spacingLeft=-3;spacingRight=-3;points=[[0.5,0,0],[0.5,0,0],[0.5,0.5,0],[1,0.5,0],[0.5,0.5,0]];labelBackgroundColor=none;rounded=0;html=1;whiteSpace=wrap;" parent="1" vertex="1">
            <mxGeometry x="2202" y="1488" width="100" height="29" as="geometry" />
          </mxCell>
        </UserObject>
        <UserObject label="&lt;div style=&quot;font-size: 1px&quot;&gt;&lt;font style=&quot;font-size:8.47px;font-family:Calibri;color:#000000;direction:ltr;letter-spacing:0px;line-height:100%;opacity:1&quot;&gt;Universal Messaging 10.7&lt;br/&gt;&lt;/font&gt;&lt;/div&gt;" tags="Background" id="200">
          <mxCell style="verticalAlign=middle;align=center;overflow=width;vsdxID=1341;fillColor=#44aac4;gradientColor=#31859b;gradientDirection=north;shape=stencil(vVPLcsMgDPwajtYA6qTmnKb/wTTYZkqNB9PG/fviymmCXSan5KbHSmIlluF+7PRgmORjDP7dnOwxdgxfmJS270ywMVkMDwz3jQ+mDf6zP5I/6Bk5Wx/+a+4wUZ3aQY1zleTfFBGc//qvBNfhLeXCAkdASehwhgsQFJny+nO/WsHTAqj0ZMcq+Kij9T2lF7DToTVVGlY1TrdZajwZM2zCy/Oc7U15tuCwK5ORoFRORoGqMzLb9fBHcUEQz/9MLpyF4+osHER+l8JmHsCk8B8KTNSaCa6ZbDbzd/b7c7mpl2RctNZY50iq1/m1NlOIdI2HHw==);strokeColor=#404040;shadow=1;spacingTop=-3;spacingBottom=-3;spacingLeft=-3;spacingRight=-3;points=[[0.5,0,0],[0.5,0,0],[0.5,0.5,0],[1,0.5,0],[0.5,0.5,0]];labelBackgroundColor=none;rounded=0;html=1;whiteSpace=wrap;" parent="1" vertex="1">
            <mxGeometry x="2356" y="1488" width="100" height="29" as="geometry" />
          </mxCell>
        </UserObject>
        <UserObject label="&lt;div style=&quot;font-size: 1px&quot;&gt;&lt;font style=&quot;font-size:8.47px;font-family:Calibri;color:#000000;direction:ltr;letter-spacing:0px;line-height:120%;opacity:1&quot;&gt;Active- Active&lt;br/&gt;&lt;/font&gt;&lt;/div&gt;" tags="Background" id="201">
          <mxCell style="verticalAlign=top;align=center;overflow=width;vsdxID=1342;fillColor=#8fa350;gradientColor=none;fillOpacity=20;shape=stencil(vVPLlsIgDP0aluVQoq1dq/MfHKUtZ7D0pDjWv5cK4wi1M6txl8clyU24BLZDK3pJOBssmk95UUfbEtgRzlXXSlTWWQT2BLa1QdmgOXdH7/diQk7WyXxNFUb/ripoyadXnF19JGfs7n94uMCDy2GAA4W1R2OAw4ZWITTGBb4LFjmtAiAToxoyNFZYZTqfDmAtsJGZ65bVWjRRarhI2c/CYT6tOrnc202X/8aGpWzWdFVGbOYLYu8iA5RvXnReoJJDQqV43GqMJkhX8wYmCx9igcmKJ0wqWsZHmW3mcff/5/KnYpzxo7Zaae3F+pxP1elCXtmwvwE=);strokeColor=#404040;shadow=1;points=[[0.5,0,0],[0.5,0,0],[0.5,0.5,0],[1,0.5,0],[0.5,0.5,0]];labelBackgroundColor=none;rounded=0;html=1;whiteSpace=wrap;" parent="1" vertex="1">
            <mxGeometry x="2034" y="1763" width="387" height="33" as="geometry" />
          </mxCell>
        </UserObject>
        <UserObject label="&lt;div style=&quot;font-size: 1px&quot;&gt;&lt;font style=&quot;font-size:8.47px;font-family:Calibri;color:#000000;direction:ltr;letter-spacing:0px;line-height:100%;opacity:1&quot;&gt;My Webmethods Server&lt;br/&gt;&lt;/font&gt;&lt;/div&gt;" tags="Background" id="202">
          <mxCell style="verticalAlign=middle;align=center;overflow=width;vsdxID=1343;fillColor=#44aac4;gradientColor=#31859b;gradientDirection=north;shape=stencil(vZPNcoMgEMefhqM7sGhCzmn6HkyDypSKgzQxb18s2gQt01Nz248/u/wWlvDj0MpeEaSDd/ZdXfXZt4S/EETdtcppHyzCT4Qfa+tU4+xnd45+LyflZH3Yy1RhjOcOexA4nUJ6ixFG6bf/GuXSvYWcm+UIFYtqt8j3gGUMjWmBpaCogC6KQo56KJz10mvbxfysNtI1qgjtitrIJkkNV6X6TXi+oNGdyjdnJRx2eR4Gu3LFwwCrhGc7IvosGgQmfumceRoqVigloEhQcrN5AkruT2RYcIVSAUt/2WY0Py///yx/Lk0w7gtXa2Pivj7m1wsaQnG5+ekL);strokeColor=#404040;shadow=1;spacingTop=-3;spacingBottom=-3;spacingLeft=-3;spacingRight=-3;points=[[0.5,0,0],[0.5,0,0],[0.5,0.5,0],[1,0.5,0],[0.5,0.5,0]];labelBackgroundColor=none;rounded=0;html=1;whiteSpace=wrap;" parent="1" vertex="1">
            <mxGeometry x="2038" y="1768" width="145" height="21" as="geometry" />
          </mxCell>
        </UserObject>
        <UserObject label="&lt;div style=&quot;font-size: 1px&quot;&gt;&lt;font style=&quot;font-size:8.47px;font-family:Calibri;color:#000000;direction:ltr;letter-spacing:0px;line-height:100%;opacity:1&quot;&gt;My Webmethods Server&lt;br/&gt;&lt;/font&gt;&lt;/div&gt;" tags="Background" id="203">
          <mxCell style="verticalAlign=middle;align=center;overflow=width;vsdxID=1344;fillColor=#44aac4;gradientColor=#31859b;gradientDirection=north;shape=stencil(vZPNcoMgEMefhqM7sGhCzmn6HkyDypSKgzQxb18s2gQt01Nz248/u/wWlvDj0MpeEaSDd/ZdXfXZt4S/EETdtcppHyzCT4Qfa+tU4+xnd45+LyflZH3Yy1RhjOcOexA4nUJ6ixFG6bf/GuXSvYWcm+UIFYtqt8j3gGUMjWmBpaCogC6KQo56KJz10mvbxfysNtI1qgjtitrIJkkNV6X6TXi+oNGdyjdnJRx2eR4Gu3LFwwCrhGc7IvosGgQmfumceRoqVigloEhQcrN5AkruT2RYcIVSAUt/2WY0Py///yx/Lk0w7gtXa2Pivj7m1wsaQnG5+ekL);strokeColor=#404040;shadow=1;spacingTop=-3;spacingBottom=-3;spacingLeft=-3;spacingRight=-3;points=[[0.5,0,0],[0.5,0,0],[0.5,0.5,0],[1,0.5,0],[0.5,0.5,0]];labelBackgroundColor=none;rounded=0;html=1;whiteSpace=wrap;" parent="1" vertex="1">
            <mxGeometry x="2266" y="1771" width="145" height="21" as="geometry" />
          </mxCell>
        </UserObject>
        <UserObject label="" tags="Connector" id="219">
          <mxCell parent="1" vertex="1" visible="0">
            <mxGeometry as="geometry" />
          </mxCell>
        </UserObject>
        <UserObject label="&lt;div style=&quot;font-size: 1px&quot;&gt;&lt;font style=&quot;font-size:14.11px;font-family:Calibri;color:#000000;direction:ltr;letter-spacing:0px;line-height:120%;opacity:1&quot;&gt;View Generation&lt;br&gt;&lt;/font&gt;&lt;/div&gt;" tags="Background" id="AOl4R3P963WcKR29roIO-220">
          <mxCell style="verticalAlign=middle;align=center;overflow=width;vsdxID=5;fillColor=#dae8fc;shape=stencil(nZFLDsIwDERP4y0yCRLqupQLcIKIGmIRkipN+Z2etC5S1AWLZmXPPNvSBHTdW9MRKOxTDDd6cpss6AMoxd5S5JQr0A3o+hIiXWMYfCt9ZzKpcFKolZntSCs08XziD81atcFdVby9QLLlHh7j9ZewKNZ7nkTpj4I69gX6M1fBf9CV4OJ8LqZ8JDl2TuIt/WWeWZK/0M0X);strokeColor=#6c8ebf;points=[[0.5,1,0],[1,0.5,0],[0.5,0,0],[0,0.5,0],[0.5,0.5,0]];labelBackgroundColor=none;rounded=1;html=1;whiteSpace=wrap;" parent="1" vertex="1">
            <mxGeometry x="309" y="300" width="133" height="60" as="geometry" />
          </mxCell>
        </UserObject>
        <UserObject label="&lt;div style=&quot;font-size: 1px&quot;&gt;&lt;font style=&quot;font-size:8.47px;font-family:Calibri;color:#000000;direction:ltr;letter-spacing:0px;line-height:120%;opacity:1&quot;&gt;&lt;font style=&quot;border-color: var(--border-color); letter-spacing: 0px; direction: ltr; line-height: 10.164px; opacity: 1;&quot;&gt;Web Server– 1 (&lt;/font&gt;&lt;font style=&quot;border-color: var(--border-color); letter-spacing: 0px; direction: ltr; line-height: 10.164px; opacity: 1;&quot;&gt;Core – 4 . RAM 16 GB)&lt;/font&gt;&lt;br&gt;&lt;/font&gt;&lt;/div&gt;" tags="Background" id="AOl4R3P963WcKR29roIO-223">
          <mxCell style="verticalAlign=top;align=left;overflow=width;vsdxID=1161;fillColor=#d7d0e3;gradientColor=#e7e3ee;gradientDirection=north;shape=stencil(nZBLDoAgDERP0z3SIyjew0SURgSD+Lu9kMZoXLhwN9O+tukAlrNpJg1SzDH4QW/URgNYgZTkjA4UkwJUgGXng+6DX1zLfmoymdXo17xh5zmRJ6Q42BWCfc2oJfdAr+Yv+AP9Cb7OJ3H/2JG1HNGz/84klThPVCc=);strokeColor=#404040;shadow=1;points=[[1,0.5,0],[0.5,0,0],[0.5,0.5,0],[0.5,0.5,0]];labelBackgroundColor=none;rounded=0;html=1;whiteSpace=wrap;" parent="1" vertex="1">
            <mxGeometry x="713.5" y="918" width="158" height="132" as="geometry" />
          </mxCell>
        </UserObject>
        <UserObject label="&lt;div style=&quot;font-size: 1px&quot;&gt;&lt;font style=&quot;font-size:8.47px;font-family:Calibri;color:#000000;direction:ltr;letter-spacing:0px;line-height:100%;opacity:1&quot;&gt;React Orchestrator by Pega&lt;br&gt;&lt;/font&gt;&lt;/div&gt;" tags="Background" id="AOl4R3P963WcKR29roIO-226">
          <mxCell style="verticalAlign=middle;align=center;overflow=width;vsdxID=1167;fillColor=#44aac4;gradientColor=#31859b;gradientDirection=north;shape=stencil(vVPLcsMgDPwajmYw+FGfE+c/mAbbTIjxyCRx/764Ig/qOD01N6FdIVZiidiMnRwU4Wx0YA/qoveuI2JLONd9p0A7HxFRE7FpLKgW7Knf43mQM3OOjvY83zBhXVVSUc1VnH1hJmXs57xDuoRPj0Ggc8oFsiHQc1rmmJni+ut9laA8C4xETnpMwDrptO0RD2wjoVWJ75Y0RrYRNF6UGhbp8D6je7XevKBl8VJNulCTRmqW82Hv0sJpkT7pvKIkq2IlBc3ivawM5g1C1v7DUyUezWMlHzSLd7IYzG3r/6/lT7/44O61RhuDVn3Ef3vTp9DXov4G);strokeColor=#404040;shadow=1;spacingTop=-3;spacingBottom=-3;spacingLeft=-3;spacingRight=-3;points=[[0.5,0,0],[0.5,0,0],[0.5,0.5,0],[1,0.5,0],[0.5,0.5,0]];labelBackgroundColor=none;rounded=0;html=1;whiteSpace=wrap;" parent="1" vertex="1">
            <mxGeometry x="731.5" y="953" width="121" height="46" as="geometry" />
          </mxCell>
        </UserObject>
        <UserObject label="&lt;div style=&quot;font-size: 1px&quot;&gt;&lt;font style=&quot;font-size:8.47px;font-family:Calibri;color:#000000;direction:ltr;letter-spacing:0px;line-height:100%;opacity:1&quot;&gt;NodeJS&lt;br&gt;&lt;/font&gt;&lt;/div&gt;" tags="Background" id="AOl4R3P963WcKR29roIO-227">
          <mxCell style="verticalAlign=middle;align=center;overflow=width;vsdxID=1170;fillColor=#44aac4;gradientColor=#31859b;gradientDirection=north;shape=stencil(vZNNcsMgDIVPw9IMoNQN6zS9B5Ngmyk1Hpk0zu2LK/pDHLerZiekJ+RP5jHYjZ0ZLFNijBhe7NkdY8fgiSnl+s6iiylisGewawLaFsOpP9J5MLNyjl7D23zDRH36kYOeu5S4UEYK8XF+JrnBQ6phliuugNSY5ZqLmjJT2f9531bzTRZUZnJjhSGa6EJP5Sz2BltbpWFV401blMaztcMinT/Pu96uz5aC17/CyBJmy/VDAbNcj7gXi+K1vDF5hWSjS5JELmWBsrKZO5CsvIebJLB4YBKuSRab+frt/8/yp19S8O21xnlPVv1Zv/ZmSpGvYf8O);strokeColor=#404040;shadow=1;spacingTop=-3;spacingBottom=-3;spacingLeft=-3;spacingRight=-3;points=[[0.5,0,0],[0.5,0,0],[0.5,0.5,0],[1,0.5,0],[0.5,0.5,0]];labelBackgroundColor=none;rounded=0;html=1;whiteSpace=wrap;" parent="1" vertex="1">
            <mxGeometry x="732.5" y="1013" width="121" height="29" as="geometry" />
          </mxCell>
        </UserObject>
        <UserObject label="&lt;div style=&quot;font-size: 1px&quot;&gt;&lt;font style=&quot;font-size:8.47px;font-family:Calibri;color:#000000;direction:ltr;letter-spacing:0px;line-height:120%;opacity:1&quot;&gt;Active Active Cluster&lt;br/&gt;&lt;/font&gt;&lt;/div&gt;" tags="Background" id="60">
          <mxCell style="verticalAlign=top;align=center;overflow=width;vsdxID=1164;fillColor=#8fa350;gradientColor=none;fillOpacity=20;shape=stencil(vZNBcsMgDEVPw9IMiDQ26zS9B9Ngmyk1HkwT5/bFlZOUUNpVsxPSR/IT/kTspl6NmgCbgndv+mQOoSfimQCYodfehBgRsSdi1zqvO+8+hgOeR7Uol+jdHZcOM96TNd3K5RawM2Y4Y1/nF5Qr/xprfpUDhRrV/iJvqNxgak4bXBo2jNawKio1m6nyLqhg3ID1VW2V73QVx1WtVV1Smk5aj1l6/UBrBl0eziWF5jcevs14WMqTr4g9igao4D9MLj0Nz1BSktJqHkBS+iUKKGJzhyLpE09YstVcX/7/Yf40TQxuhmuNtejX7/V7g8YUmlvsPwE=);strokeColor=#404040;shadow=1;points=[[0.5,0,0],[0.5,0,0],[0.5,0.5,0],[1,0.5,0],[0.5,0.5,0]];labelBackgroundColor=none;rounded=0;html=1;whiteSpace=wrap;" parent="1" vertex="1">
            <mxGeometry x="187.5" y="952.5" width="682.5" height="57.5" as="geometry" />
          </mxCell>
        </UserObject>
        <UserObject label="&lt;div style=&quot;font-size: 1px&quot;&gt;&lt;font style=&quot;font-size:33.87px;font-family:Calibri;color:#000000;direction:ltr;letter-spacing:0px;line-height:120%;opacity:1&quot;&gt;Staging Environment&lt;br&gt;&lt;/font&gt;&lt;/div&gt;" tags="Background" id="AOl4R3P963WcKR29roIO-311">
          <mxCell style="verticalAlign=middle;align=center;overflow=width;vsdxID=1101;fillColor=#dae8fc;gradientDirection=north;shape=stencil(nZBLDoAgDERP0z3SIyjew0SURgSD+Lu9kMZoXLhwN9O+tukAlrNpJg1SzDH4QW/URgNYgZTkjA4UkwJUgGXng+6DX1zLfmoymdXo17xh5zmRJ6Q42BWCfc2oJfdAr+Yv+AP9Cb7OJ3H/2JG1HNGz/84klThPVCc=);strokeColor=#6c8ebf;shadow=1;points=[[1,0.5,0],[0.5,0,0],[0.5,0.5,0],[0.5,0.5,0]];labelBackgroundColor=none;rounded=0;html=1;whiteSpace=wrap;" parent="1" vertex="1">
            <mxGeometry x="1002" y="796" width="814" height="49" as="geometry" />
          </mxCell>
        </UserObject>
        <UserObject label="&lt;div style=&quot;font-size: 1px&quot;&gt;&lt;font style=&quot;font-size:14.11px;font-family:Calibri;color:#000000;direction:ltr;letter-spacing:0px;line-height:120%;opacity:1&quot;&gt;React Components (View)&lt;/font&gt;&lt;/div&gt;" tags="Background" id="M_-9Dg6sCtWMjmafzQ-w-219">
          <mxCell style="verticalAlign=middle;align=center;overflow=width;vsdxID=1;fillColor=#ffe6cc;shape=stencil(nZFLDsIwDERP4y0yCRLqupQLcIKIGmIRkipN+Z2etC5S1AWLZmXPPNvSBHTdW9MRKOxTDDd6cpss6AMoxd5S5JQr0A3o+hIiXWMYfCt9ZzKpcFKolZntSCs08XziD81atcFdVby9QLLlHh7j9ZewKNZ7nkTpj4I69gX6M1fBf9CV4OJ8LqZ8JDl2TuIt/WWeWZK/0M0X);strokeColor=#d79b00;points=[[0.5,1,0],[1,0.5,0],[0.5,0,0],[0,0.5,0],[0.5,0.5,0]];labelBackgroundColor=none;rounded=1;html=1;whiteSpace=wrap;" parent="1" vertex="1">
            <mxGeometry x="328" y="135" width="495" height="35" as="geometry" />
          </mxCell>
        </UserObject>
        <UserObject label="&lt;div style=&quot;font-size: 1px&quot;&gt;&lt;font style=&quot;font-size:14.11px;font-family:Calibri;color:#000000;direction:ltr;letter-spacing:0px;line-height:120%;opacity:1&quot;&gt;Runtime Orchestrator(Pega Starter Kit)&lt;/font&gt;&lt;/div&gt;" tags="Background" id="M_-9Dg6sCtWMjmafzQ-w-220">
          <mxCell style="verticalAlign=middle;align=center;overflow=width;vsdxID=1;fillColor=#ffe6cc;shape=stencil(nZFLDsIwDERP4y0yCRLqupQLcIKIGmIRkipN+Z2etC5S1AWLZmXPPNvSBHTdW9MRKOxTDDd6cpss6AMoxd5S5JQr0A3o+hIiXWMYfCt9ZzKpcFKolZntSCs08XziD81atcFdVby9QLLlHh7j9ZewKNZ7nkTpj4I69gX6M1fBf9CV4OJ8LqZ8JDl2TuIt/WWeWZK/0M0X);strokeColor=#d79b00;points=[[0.5,1,0],[1,0.5,0],[0.5,0,0],[0,0.5,0],[0.5,0.5,0]];labelBackgroundColor=none;rounded=1;html=1;whiteSpace=wrap;" parent="1" vertex="1">
            <mxGeometry x="328" y="170" width="495" height="35" as="geometry" />
          </mxCell>
        </UserObject>
        <UserObject label="" tags="Background" id="M_-9Dg6sCtWMjmafzQ-w-238">
          <mxCell style="vsdxID=6;edgeStyle=none;dashed=1;startArrow=none;endArrow=none;startSize=5;endSize=5;strokeWidth=2;strokeColor=#9dbb61;spacingTop=0;spacingBottom=0;spacingLeft=0;spacingRight=0;verticalAlign=top;html=1;labelBackgroundColor=#ffffff;rounded=0;" parent="1" edge="1">
            <mxGeometry relative="1" as="geometry">
              <mxPoint x="-1" as="offset" />
              <Array as="points" />
              <mxPoint x="136.5" y="254" as="sourcePoint" />
              <mxPoint x="993.5" y="254" as="targetPoint" />
            </mxGeometry>
          </mxCell>
        </UserObject>
        <mxCell id="M_-9Dg6sCtWMjmafzQ-w-247" value="Constellation DX API V2" style="edgeLabel;html=1;align=center;verticalAlign=middle;resizable=0;points=[];" parent="M_-9Dg6sCtWMjmafzQ-w-238" vertex="1" connectable="0">
          <mxGeometry x="0.5863" y="1" relative="1" as="geometry">
            <mxPoint as="offset" />
          </mxGeometry>
        </mxCell>
        <UserObject label="" tags="Background" id="M_-9Dg6sCtWMjmafzQ-w-239">
          <mxCell style="vsdxID=31;edgeStyle=none;startArrow=blockThin;endArrow=blockThin;startSize=5;endSize=5;strokeWidth=2;strokeColor=#789440;spacingTop=0;spacingBottom=0;spacingLeft=0;spacingRight=0;verticalAlign=top;html=1;labelBackgroundColor=#ffffff;rounded=0;" parent="1" edge="1">
            <mxGeometry relative="1" as="geometry">
              <Array as="points" />
              <mxPoint x="435.5" y="225" as="sourcePoint" />
              <mxPoint x="435.5" y="281" as="targetPoint" />
            </mxGeometry>
          </mxCell>
        </UserObject>
        <UserObject label="" tags="Background" id="M_-9Dg6sCtWMjmafzQ-w-240">
          <mxCell style="vsdxID=32;edgeStyle=none;startArrow=blockThin;endArrow=blockThin;startSize=5;endSize=5;strokeWidth=2;strokeColor=#789440;spacingTop=0;spacingBottom=0;spacingLeft=0;spacingRight=0;verticalAlign=top;html=1;labelBackgroundColor=#ffffff;rounded=0;" parent="1" edge="1">
            <mxGeometry relative="1" as="geometry">
              <Array as="points" />
              <mxPoint x="495.5" y="225" as="sourcePoint" />
              <mxPoint x="495.5" y="281" as="targetPoint" />
            </mxGeometry>
          </mxCell>
        </UserObject>
        <UserObject label="" tags="Background" id="M_-9Dg6sCtWMjmafzQ-w-241">
          <mxCell style="vsdxID=33;edgeStyle=none;startArrow=blockThin;endArrow=blockThin;startSize=5;endSize=5;strokeWidth=2;strokeColor=#789440;spacingTop=0;spacingBottom=0;spacingLeft=0;spacingRight=0;verticalAlign=top;html=1;labelBackgroundColor=#ffffff;rounded=0;" parent="1" edge="1">
            <mxGeometry relative="1" as="geometry">
              <Array as="points" />
              <mxPoint x="555.5" y="225" as="sourcePoint" />
              <mxPoint x="555.5" y="280" as="targetPoint" />
            </mxGeometry>
          </mxCell>
        </UserObject>
        <UserObject label="" tags="Background" id="M_-9Dg6sCtWMjmafzQ-w-242">
          <mxCell style="vsdxID=34;edgeStyle=none;startArrow=blockThin;endArrow=blockThin;startSize=5;endSize=5;strokeWidth=2;strokeColor=#789440;spacingTop=0;spacingBottom=0;spacingLeft=0;spacingRight=0;verticalAlign=top;html=1;labelBackgroundColor=#ffffff;rounded=0;" parent="1" edge="1">
            <mxGeometry relative="1" as="geometry">
              <Array as="points" />
              <mxPoint x="619.5" y="225" as="sourcePoint" />
              <mxPoint x="619.5" y="281" as="targetPoint" />
            </mxGeometry>
          </mxCell>
        </UserObject>
        <UserObject label="" tags="Background" id="M_-9Dg6sCtWMjmafzQ-w-243">
          <mxCell style="vsdxID=35;edgeStyle=none;startArrow=blockThin;endArrow=blockThin;startSize=5;endSize=5;strokeWidth=2;strokeColor=#789440;spacingTop=0;spacingBottom=0;spacingLeft=0;spacingRight=0;verticalAlign=top;html=1;labelBackgroundColor=#ffffff;rounded=0;" parent="1" edge="1">
            <mxGeometry relative="1" as="geometry">
              <Array as="points" />
              <mxPoint x="682.5" y="225" as="sourcePoint" />
              <mxPoint x="682.5" y="281" as="targetPoint" />
            </mxGeometry>
          </mxCell>
        </UserObject>
        <UserObject label="&lt;div style=&quot;font-size: 1px&quot;&gt;&lt;font style=&quot;font-size:14.11px;font-family:Calibri;color:#000000;direction:ltr;letter-spacing:0px;line-height:120%;opacity:1&quot;&gt;Case Managment&lt;br&gt;&lt;/font&gt;&lt;/div&gt;" tags="Background" id="M_-9Dg6sCtWMjmafzQ-w-245">
          <mxCell style="verticalAlign=middle;align=center;overflow=width;vsdxID=5;fillColor=#dae8fc;shape=stencil(nZFLDsIwDERP4y0yCRLqupQLcIKIGmIRkipN+Z2etC5S1AWLZmXPPNvSBHTdW9MRKOxTDDd6cpss6AMoxd5S5JQr0A3o+hIiXWMYfCt9ZzKpcFKolZntSCs08XziD81atcFdVby9QLLlHh7j9ZewKNZ7nkTpj4I69gX6M1fBf9CV4OJ8LqZ8JDl2TuIt/WWeWZK/0M0X);strokeColor=#6c8ebf;points=[[0.5,1,0],[1,0.5,0],[0.5,0,0],[0,0.5,0],[0.5,0.5,0]];labelBackgroundColor=none;rounded=1;html=1;whiteSpace=wrap;" parent="1" vertex="1">
            <mxGeometry x="455" y="300" width="133" height="60" as="geometry" />
          </mxCell>
        </UserObject>
        <UserObject label="&lt;div style=&quot;font-size: 1px&quot;&gt;&lt;font style=&quot;font-size:14.11px;font-family:Calibri;color:#000000;direction:ltr;letter-spacing:0px;line-height:120%;opacity:1&quot;&gt;Live Data&lt;br&gt;&lt;/font&gt;&lt;/div&gt;" tags="Background" id="M_-9Dg6sCtWMjmafzQ-w-246">
          <mxCell style="verticalAlign=middle;align=center;overflow=width;vsdxID=5;fillColor=#dae8fc;shape=stencil(nZFLDsIwDERP4y0yCRLqupQLcIKIGmIRkipN+Z2etC5S1AWLZmXPPNvSBHTdW9MRKOxTDDd6cpss6AMoxd5S5JQr0A3o+hIiXWMYfCt9ZzKpcFKolZntSCs08XziD81atcFdVby9QLLlHh7j9ZewKNZ7nkTpj4I69gX6M1fBf9CV4OJ8LqZ8JDl2TuIt/WWeWZK/0M0X);strokeColor=#6c8ebf;points=[[0.5,1,0],[1,0.5,0],[0.5,0,0],[0,0.5,0],[0.5,0.5,0]];labelBackgroundColor=none;rounded=1;html=1;whiteSpace=wrap;" parent="1" vertex="1">
            <mxGeometry x="594.5" y="300" width="133" height="60" as="geometry" />
          </mxCell>
        </UserObject>
        <UserObject label="&lt;div style=&quot;font-size: 1px&quot;&gt;&lt;font style=&quot;font-size:14.11px;font-family:Calibri;color:#000000;direction:ltr;letter-spacing:0px;line-height:120%;opacity:1&quot;&gt;Pega Rules Engine&lt;br&gt;&lt;/font&gt;&lt;/div&gt;" tags="Background" id="M_-9Dg6sCtWMjmafzQ-w-248">
          <mxCell style="verticalAlign=middle;align=center;overflow=width;vsdxID=5;fillColor=#dae8fc;shape=stencil(nZFLDsIwDERP4y0yCRLqupQLcIKIGmIRkipN+Z2etC5S1AWLZmXPPNvSBHTdW9MRKOxTDDd6cpss6AMoxd5S5JQr0A3o+hIiXWMYfCt9ZzKpcFKolZntSCs08XziD81atcFdVby9QLLlHh7j9ZewKNZ7nkTpj4I69gX6M1fBf9CV4OJ8LqZ8JDl2TuIt/WWeWZK/0M0X);strokeColor=#6c8ebf;points=[[0.5,1,0],[1,0.5,0],[0.5,0,0],[0,0.5,0],[0.5,0.5,0]];labelBackgroundColor=none;rounded=1;html=1;whiteSpace=wrap;" parent="1" vertex="1">
            <mxGeometry x="731.5" y="300" width="133" height="60" as="geometry" />
          </mxCell>
        </UserObject>
        <UserObject label="&lt;div style=&quot;font-size: 1px&quot;&gt;&lt;font style=&quot;font-size:8.47px;font-family:Calibri;color:#000000;direction:ltr;letter-spacing:0px;line-height:120%;opacity:1&quot;&gt;&lt;font style=&quot;border-color: var(--border-color); letter-spacing: 0px; direction: ltr; line-height: 10.164px; opacity: 1;&quot;&gt;Tomcat Server– 1 (&lt;/font&gt;&lt;font style=&quot;border-color: var(--border-color); letter-spacing: 0px; direction: ltr; line-height: 10.164px; opacity: 1;&quot;&gt;Core – 4 . RAM 16 GB)&lt;/font&gt;&lt;br&gt;&lt;/font&gt;&lt;/div&gt;" tags="Background" id="M_-9Dg6sCtWMjmafzQ-w-260">
          <mxCell style="verticalAlign=top;align=left;overflow=width;vsdxID=1109;fillColor=#d7d0e3;gradientColor=#e7e3ee;gradientDirection=north;shape=stencil(nZBLDoAgDERP0z3SIyjew0SURgSD+Lu9kMZoXLhwN9O+tukAlrNpJg1SzDH4QW/URgNYgZTkjA4UkwJUgGXng+6DX1zLfmoymdXo17xh5zmRJ6Q42BWCfc2oJfdAr+Yv+AP9Cb7OJ3H/2JG1HNGz/84klThPVCc=);strokeColor=#404040;shadow=1;points=[[1,0.5,0],[0.5,0,0],[0.5,0.5,0],[0.5,0.5,0]];labelBackgroundColor=none;rounded=0;html=1;whiteSpace=wrap;" parent="1" vertex="1">
            <mxGeometry x="356.90999999999997" y="1429" width="121.5" height="60" as="geometry" />
          </mxCell>
        </UserObject>
        <UserObject label="&lt;div style=&quot;font-size: 1px&quot;&gt;&lt;font style=&quot;font-size:8.47px;font-family:Calibri;color:#000000;direction:ltr;letter-spacing:0px;line-height:100%;opacity:1&quot;&gt;Pega NodeType:WebUser&lt;br&gt;&lt;/font&gt;&lt;/div&gt;" tags="Background" id="M_-9Dg6sCtWMjmafzQ-w-261">
          <mxCell style="verticalAlign=middle;align=center;overflow=width;vsdxID=1217;fillColor=#44aac4;gradientColor=#31859b;gradientDirection=north;shape=stencil(vVPLcsMgDPwajtYA6qTmnKb/wTTYZkqNB9PG/fviymmCXSan5KbHSmIlluF+7PRgmORjDP7dnOwxdgxfmJS270ywMVkMDwz3jQ+mDf6zP5I/6Bk5Wx/+a+4wUZ3aQY1zleTfFBGc//qvBNfhLeXCAkdASehwhgsQFJny+nO/WsHTAqj0ZMcq+Kij9T2lF7DToTVVGlY1TrdZajwZM2zCy/Oc7U15tuCwK5ORoFRORoGqMzLb9fBHcUEQz/9MLpyF4+osHER+l8JmHsCk8B8KTNSaCa6ZbDbzd/b7c7mpl2RctNZY50iq1/m1NlOIdI2HHw==);strokeColor=#404040;shadow=1;spacingTop=-3;spacingBottom=-3;spacingLeft=-3;spacingRight=-3;points=[[0.5,0,0],[0.5,0,0],[0.5,0.5,0],[1,0.5,0],[0.5,0.5,0]];labelBackgroundColor=none;rounded=0;html=1;whiteSpace=wrap;" parent="1" vertex="1">
            <mxGeometry x="367.65999999999997" y="1452" width="100" height="29" as="geometry" />
          </mxCell>
        </UserObject>
        <UserObject label="&lt;div style=&quot;font-size: 1px&quot;&gt;&lt;font style=&quot;font-size:8.47px;font-family:Calibri;color:#000000;direction:ltr;letter-spacing:0px;line-height:120%;opacity:1&quot;&gt;&lt;font style=&quot;border-color: var(--border-color); letter-spacing: 0px; direction: ltr; line-height: 10.164px; opacity: 1;&quot;&gt;Tomcat Server– 1 (&lt;/font&gt;&lt;font style=&quot;border-color: var(--border-color); letter-spacing: 0px; direction: ltr; line-height: 10.164px; opacity: 1;&quot;&gt;Core – 4 . RAM 16 GB)&lt;/font&gt;&lt;br&gt;&lt;/font&gt;&lt;/div&gt;" tags="Background" id="M_-9Dg6sCtWMjmafzQ-w-267">
          <mxCell style="verticalAlign=top;align=left;overflow=width;vsdxID=1109;fillColor=#d7d0e3;gradientColor=#e7e3ee;gradientDirection=north;shape=stencil(nZBLDoAgDERP0z3SIyjew0SURgSD+Lu9kMZoXLhwN9O+tukAlrNpJg1SzDH4QW/URgNYgZTkjA4UkwJUgGXng+6DX1zLfmoymdXo17xh5zmRJ6Q42BWCfc2oJfdAr+Yv+AP9Cb7OJ3H/2JG1HNGz/84klThPVCc=);strokeColor=#404040;shadow=1;points=[[1,0.5,0],[0.5,0,0],[0.5,0.5,0],[0.5,0.5,0]];labelBackgroundColor=none;rounded=0;html=1;whiteSpace=wrap;" parent="1" vertex="1">
            <mxGeometry x="226.41" y="1497" width="121.5" height="60" as="geometry" />
          </mxCell>
        </UserObject>
        <UserObject label="&lt;div style=&quot;font-size: 1px&quot;&gt;&lt;font style=&quot;font-size:8.47px;font-family:Calibri;color:#000000;direction:ltr;letter-spacing:0px;line-height:100%;opacity:1&quot;&gt;Pega NodeType:WebUser&lt;br&gt;&lt;/font&gt;&lt;/div&gt;" tags="Background" id="M_-9Dg6sCtWMjmafzQ-w-268">
          <mxCell style="verticalAlign=middle;align=center;overflow=width;vsdxID=1217;fillColor=#44aac4;gradientColor=#31859b;gradientDirection=north;shape=stencil(vVPLcsMgDPwajtYA6qTmnKb/wTTYZkqNB9PG/fviymmCXSan5KbHSmIlluF+7PRgmORjDP7dnOwxdgxfmJS270ywMVkMDwz3jQ+mDf6zP5I/6Bk5Wx/+a+4wUZ3aQY1zleTfFBGc//qvBNfhLeXCAkdASehwhgsQFJny+nO/WsHTAqj0ZMcq+Kij9T2lF7DToTVVGlY1TrdZajwZM2zCy/Oc7U15tuCwK5ORoFRORoGqMzLb9fBHcUEQz/9MLpyF4+osHER+l8JmHsCk8B8KTNSaCa6ZbDbzd/b7c7mpl2RctNZY50iq1/m1NlOIdI2HHw==);strokeColor=#404040;shadow=1;spacingTop=-3;spacingBottom=-3;spacingLeft=-3;spacingRight=-3;points=[[0.5,0,0],[0.5,0,0],[0.5,0.5,0],[1,0.5,0],[0.5,0.5,0]];labelBackgroundColor=none;rounded=0;html=1;whiteSpace=wrap;" parent="1" vertex="1">
            <mxGeometry x="237.91" y="1520" width="100" height="29" as="geometry" />
          </mxCell>
        </UserObject>
        <UserObject label="&lt;div style=&quot;font-size: 1px&quot;&gt;&lt;font style=&quot;font-size:8.47px;font-family:Calibri;color:#000000;direction:ltr;letter-spacing:0px;line-height:120%;opacity:1&quot;&gt;&lt;font style=&quot;border-color: var(--border-color); letter-spacing: 0px; direction: ltr; line-height: 10.164px; opacity: 1;&quot;&gt;Tomcat Server– 1 (&lt;/font&gt;&lt;font style=&quot;border-color: var(--border-color); letter-spacing: 0px; direction: ltr; line-height: 10.164px; opacity: 1;&quot;&gt;Core – 4 . RAM 16 GB)&lt;/font&gt;&lt;br&gt;&lt;/font&gt;&lt;/div&gt;" tags="Background" id="M_-9Dg6sCtWMjmafzQ-w-269">
          <mxCell style="verticalAlign=top;align=left;overflow=width;vsdxID=1109;fillColor=#d7d0e3;gradientColor=#e7e3ee;gradientDirection=north;shape=stencil(nZBLDoAgDERP0z3SIyjew0SURgSD+Lu9kMZoXLhwN9O+tukAlrNpJg1SzDH4QW/URgNYgZTkjA4UkwJUgGXng+6DX1zLfmoymdXo17xh5zmRJ6Q42BWCfc2oJfdAr+Yv+AP9Cb7OJ3H/2JG1HNGz/84klThPVCc=);strokeColor=#404040;shadow=1;points=[[1,0.5,0],[0.5,0,0],[0.5,0.5,0],[0.5,0.5,0]];labelBackgroundColor=none;rounded=0;html=1;whiteSpace=wrap;" parent="1" vertex="1">
            <mxGeometry x="357.90999999999997" y="1497" width="121.5" height="60" as="geometry" />
          </mxCell>
        </UserObject>
        <UserObject label="&lt;div style=&quot;font-size: 1px&quot;&gt;&lt;font style=&quot;font-size:8.47px;font-family:Calibri;color:#000000;direction:ltr;letter-spacing:0px;line-height:100%;opacity:1&quot;&gt;Pega NodeType:WebUser&lt;br&gt;&lt;/font&gt;&lt;/div&gt;" tags="Background" id="M_-9Dg6sCtWMjmafzQ-w-270">
          <mxCell style="verticalAlign=middle;align=center;overflow=width;vsdxID=1217;fillColor=#44aac4;gradientColor=#31859b;gradientDirection=north;shape=stencil(vVPLcsMgDPwajtYA6qTmnKb/wTTYZkqNB9PG/fviymmCXSan5KbHSmIlluF+7PRgmORjDP7dnOwxdgxfmJS270ywMVkMDwz3jQ+mDf6zP5I/6Bk5Wx/+a+4wUZ3aQY1zleTfFBGc//qvBNfhLeXCAkdASehwhgsQFJny+nO/WsHTAqj0ZMcq+Kij9T2lF7DToTVVGlY1TrdZajwZM2zCy/Oc7U15tuCwK5ORoFRORoGqMzLb9fBHcUEQz/9MLpyF4+osHER+l8JmHsCk8B8KTNSaCa6ZbDbzd/b7c7mpl2RctNZY50iq1/m1NlOIdI2HHw==);strokeColor=#404040;shadow=1;spacingTop=-3;spacingBottom=-3;spacingLeft=-3;spacingRight=-3;points=[[0.5,0,0],[0.5,0,0],[0.5,0.5,0],[1,0.5,0],[0.5,0.5,0]];labelBackgroundColor=none;rounded=0;html=1;whiteSpace=wrap;" parent="1" vertex="1">
            <mxGeometry x="368.65999999999997" y="1520" width="100" height="29" as="geometry" />
          </mxCell>
        </UserObject>
        <UserObject label="&lt;div style=&quot;font-size: 1px&quot;&gt;&lt;font style=&quot;font-size:8.47px;font-family:Calibri;color:#000000;direction:ltr;letter-spacing:0px;line-height:120%;opacity:1&quot;&gt;&lt;font style=&quot;border-color: var(--border-color); letter-spacing: 0px; direction: ltr; line-height: 10.164px; opacity: 1;&quot;&gt;Tomcat Server– 1 (&lt;/font&gt;&lt;font style=&quot;border-color: var(--border-color); letter-spacing: 0px; direction: ltr; line-height: 10.164px; opacity: 1;&quot;&gt;Core – 4 . RAM 16 GB)&lt;/font&gt;&lt;br&gt;&lt;/font&gt;&lt;/div&gt;" tags="Background" id="M_-9Dg6sCtWMjmafzQ-w-283">
          <mxCell style="verticalAlign=top;align=left;overflow=width;vsdxID=1109;fillColor=#d7d0e3;gradientColor=#e7e3ee;gradientDirection=north;shape=stencil(nZBLDoAgDERP0z3SIyjew0SURgSD+Lu9kMZoXLhwN9O+tukAlrNpJg1SzDH4QW/URgNYgZTkjA4UkwJUgGXng+6DX1zLfmoymdXo17xh5zmRJ6Q42BWCfc2oJfdAr+Yv+AP9Cb7OJ3H/2JG1HNGz/84klThPVCc=);strokeColor=#404040;shadow=1;points=[[1,0.5,0],[0.5,0,0],[0.5,0.5,0],[0.5,0.5,0]];labelBackgroundColor=none;rounded=0;html=1;whiteSpace=wrap;" parent="1" vertex="1">
            <mxGeometry x="501" y="1429" width="121.5" height="60" as="geometry" />
          </mxCell>
        </UserObject>
        <UserObject label="&lt;div style=&quot;font-size: 1px&quot;&gt;&lt;font style=&quot;font-size:8.47px;font-family:Calibri;color:#000000;direction:ltr;letter-spacing:0px;line-height:100%;opacity:1&quot;&gt;Pega NodeType:WebUser&lt;br&gt;&lt;/font&gt;&lt;/div&gt;" tags="Background" id="M_-9Dg6sCtWMjmafzQ-w-284">
          <mxCell style="verticalAlign=middle;align=center;overflow=width;vsdxID=1217;fillColor=#44aac4;gradientColor=#31859b;gradientDirection=north;shape=stencil(vVPLcsMgDPwajtYA6qTmnKb/wTTYZkqNB9PG/fviymmCXSan5KbHSmIlluF+7PRgmORjDP7dnOwxdgxfmJS270ywMVkMDwz3jQ+mDf6zP5I/6Bk5Wx/+a+4wUZ3aQY1zleTfFBGc//qvBNfhLeXCAkdASehwhgsQFJny+nO/WsHTAqj0ZMcq+Kij9T2lF7DToTVVGlY1TrdZajwZM2zCy/Oc7U15tuCwK5ORoFRORoGqMzLb9fBHcUEQz/9MLpyF4+osHER+l8JmHsCk8B8KTNSaCa6ZbDbzd/b7c7mpl2RctNZY50iq1/m1NlOIdI2HHw==);strokeColor=#404040;shadow=1;spacingTop=-3;spacingBottom=-3;spacingLeft=-3;spacingRight=-3;points=[[0.5,0,0],[0.5,0,0],[0.5,0.5,0],[1,0.5,0],[0.5,0.5,0]];labelBackgroundColor=none;rounded=0;html=1;whiteSpace=wrap;" parent="1" vertex="1">
            <mxGeometry x="512.5" y="1452" width="100" height="29" as="geometry" />
          </mxCell>
        </UserObject>
        <UserObject label="&lt;div style=&quot;font-size: 1px&quot;&gt;&lt;font style=&quot;font-size:8.47px;font-family:Calibri;color:#000000;direction:ltr;letter-spacing:0px;line-height:120%;opacity:1&quot;&gt;&lt;font style=&quot;border-color: var(--border-color); letter-spacing: 0px; direction: ltr; line-height: 10.164px; opacity: 1;&quot;&gt;Tomcat Server– 1 (&lt;/font&gt;&lt;font style=&quot;border-color: var(--border-color); letter-spacing: 0px; direction: ltr; line-height: 10.164px; opacity: 1;&quot;&gt;Core – 4 . RAM 16 GB)&lt;/font&gt;&lt;br&gt;&lt;/font&gt;&lt;/div&gt;" tags="Background" id="M_-9Dg6sCtWMjmafzQ-w-285">
          <mxCell style="verticalAlign=top;align=left;overflow=width;vsdxID=1109;fillColor=#d7d0e3;gradientColor=#e7e3ee;gradientDirection=north;shape=stencil(nZBLDoAgDERP0z3SIyjew0SURgSD+Lu9kMZoXLhwN9O+tukAlrNpJg1SzDH4QW/URgNYgZTkjA4UkwJUgGXng+6DX1zLfmoymdXo17xh5zmRJ6Q42BWCfc2oJfdAr+Yv+AP9Cb7OJ3H/2JG1HNGz/84klThPVCc=);strokeColor=#404040;shadow=1;points=[[1,0.5,0],[0.5,0,0],[0.5,0.5,0],[0.5,0.5,0]];labelBackgroundColor=none;rounded=0;html=1;whiteSpace=wrap;" parent="1" vertex="1">
            <mxGeometry x="632.5" y="1429" width="121.5" height="60" as="geometry" />
          </mxCell>
        </UserObject>
        <UserObject label="&lt;div style=&quot;font-size: 1px&quot;&gt;&lt;font style=&quot;font-size:8.47px;font-family:Calibri;color:#000000;direction:ltr;letter-spacing:0px;line-height:100%;opacity:1&quot;&gt;Pega NodeType:WebUser&lt;br&gt;&lt;/font&gt;&lt;/div&gt;" tags="Background" id="M_-9Dg6sCtWMjmafzQ-w-286">
          <mxCell style="verticalAlign=middle;align=center;overflow=width;vsdxID=1217;fillColor=#44aac4;gradientColor=#31859b;gradientDirection=north;shape=stencil(vVPLcsMgDPwajtYA6qTmnKb/wTTYZkqNB9PG/fviymmCXSan5KbHSmIlluF+7PRgmORjDP7dnOwxdgxfmJS270ywMVkMDwz3jQ+mDf6zP5I/6Bk5Wx/+a+4wUZ3aQY1zleTfFBGc//qvBNfhLeXCAkdASehwhgsQFJny+nO/WsHTAqj0ZMcq+Kij9T2lF7DToTVVGlY1TrdZajwZM2zCy/Oc7U15tuCwK5ORoFRORoGqMzLb9fBHcUEQz/9MLpyF4+osHER+l8JmHsCk8B8KTNSaCa6ZbDbzd/b7c7mpl2RctNZY50iq1/m1NlOIdI2HHw==);strokeColor=#404040;shadow=1;spacingTop=-3;spacingBottom=-3;spacingLeft=-3;spacingRight=-3;points=[[0.5,0,0],[0.5,0,0],[0.5,0.5,0],[1,0.5,0],[0.5,0.5,0]];labelBackgroundColor=none;rounded=0;html=1;whiteSpace=wrap;" parent="1" vertex="1">
            <mxGeometry x="643.25" y="1452" width="100" height="29" as="geometry" />
          </mxCell>
        </UserObject>
        <UserObject label="&lt;div style=&quot;font-size: 1px&quot;&gt;&lt;font style=&quot;font-size:8.47px;font-family:Calibri;color:#000000;direction:ltr;letter-spacing:0px;line-height:120%;opacity:1&quot;&gt;&lt;font style=&quot;border-color: var(--border-color); letter-spacing: 0px; direction: ltr; line-height: 10.164px; opacity: 1;&quot;&gt;Tomcat Server– 1 (&lt;/font&gt;&lt;font style=&quot;border-color: var(--border-color); letter-spacing: 0px; direction: ltr; line-height: 10.164px; opacity: 1;&quot;&gt;Core – 4 . RAM 16 GB)&lt;/font&gt;&lt;br&gt;&lt;/font&gt;&lt;/div&gt;" tags="Background" id="M_-9Dg6sCtWMjmafzQ-w-287">
          <mxCell style="verticalAlign=top;align=left;overflow=width;vsdxID=1109;fillColor=#d7d0e3;gradientColor=#e7e3ee;gradientDirection=north;shape=stencil(nZBLDoAgDERP0z3SIyjew0SURgSD+Lu9kMZoXLhwN9O+tukAlrNpJg1SzDH4QW/URgNYgZTkjA4UkwJUgGXng+6DX1zLfmoymdXo17xh5zmRJ6Q42BWCfc2oJfdAr+Yv+AP9Cb7OJ3H/2JG1HNGz/84klThPVCc=);strokeColor=#404040;shadow=1;points=[[1,0.5,0],[0.5,0,0],[0.5,0.5,0],[0.5,0.5,0]];labelBackgroundColor=none;rounded=0;html=1;whiteSpace=wrap;" parent="1" vertex="1">
            <mxGeometry x="502" y="1497" width="121.5" height="60" as="geometry" />
          </mxCell>
        </UserObject>
        <UserObject label="&lt;div style=&quot;font-size: 1px&quot;&gt;&lt;font style=&quot;font-size:8.47px;font-family:Calibri;color:#000000;direction:ltr;letter-spacing:0px;line-height:100%;opacity:1&quot;&gt;Pega NodeType:WebUser&lt;br&gt;&lt;/font&gt;&lt;/div&gt;" tags="Background" id="M_-9Dg6sCtWMjmafzQ-w-288">
          <mxCell style="verticalAlign=middle;align=center;overflow=width;vsdxID=1217;fillColor=#44aac4;gradientColor=#31859b;gradientDirection=north;shape=stencil(vVPLcsMgDPwajtYA6qTmnKb/wTTYZkqNB9PG/fviymmCXSan5KbHSmIlluF+7PRgmORjDP7dnOwxdgxfmJS270ywMVkMDwz3jQ+mDf6zP5I/6Bk5Wx/+a+4wUZ3aQY1zleTfFBGc//qvBNfhLeXCAkdASehwhgsQFJny+nO/WsHTAqj0ZMcq+Kij9T2lF7DToTVVGlY1TrdZajwZM2zCy/Oc7U15tuCwK5ORoFRORoGqMzLb9fBHcUEQz/9MLpyF4+osHER+l8JmHsCk8B8KTNSaCa6ZbDbzd/b7c7mpl2RctNZY50iq1/m1NlOIdI2HHw==);strokeColor=#404040;shadow=1;spacingTop=-3;spacingBottom=-3;spacingLeft=-3;spacingRight=-3;points=[[0.5,0,0],[0.5,0,0],[0.5,0.5,0],[1,0.5,0],[0.5,0.5,0]];labelBackgroundColor=none;rounded=0;html=1;whiteSpace=wrap;" parent="1" vertex="1">
            <mxGeometry x="513.5" y="1520" width="100" height="29" as="geometry" />
          </mxCell>
        </UserObject>
        <UserObject label="&lt;div style=&quot;font-size: 1px&quot;&gt;&lt;font style=&quot;font-size:8.47px;font-family:Calibri;color:#000000;direction:ltr;letter-spacing:0px;line-height:120%;opacity:1&quot;&gt;&lt;font style=&quot;border-color: var(--border-color); letter-spacing: 0px; direction: ltr; line-height: 10.164px; opacity: 1;&quot;&gt;Tomcat Server– 1 (&lt;/font&gt;&lt;font style=&quot;border-color: var(--border-color); letter-spacing: 0px; direction: ltr; line-height: 10.164px; opacity: 1;&quot;&gt;Core – 4 . RAM 16 GB)&lt;/font&gt;&lt;br&gt;&lt;/font&gt;&lt;/div&gt;" tags="Background" id="M_-9Dg6sCtWMjmafzQ-w-289">
          <mxCell style="verticalAlign=top;align=left;overflow=width;vsdxID=1109;fillColor=#d7d0e3;gradientColor=#e7e3ee;gradientDirection=north;shape=stencil(nZBLDoAgDERP0z3SIyjew0SURgSD+Lu9kMZoXLhwN9O+tukAlrNpJg1SzDH4QW/URgNYgZTkjA4UkwJUgGXng+6DX1zLfmoymdXo17xh5zmRJ6Q42BWCfc2oJfdAr+Yv+AP9Cb7OJ3H/2JG1HNGz/84klThPVCc=);strokeColor=#404040;shadow=1;points=[[1,0.5,0],[0.5,0,0],[0.5,0.5,0],[0.5,0.5,0]];labelBackgroundColor=none;rounded=0;html=1;whiteSpace=wrap;" parent="1" vertex="1">
            <mxGeometry x="633.5" y="1497" width="121.5" height="60" as="geometry" />
          </mxCell>
        </UserObject>
        <UserObject label="&lt;div style=&quot;font-size: 1px&quot;&gt;&lt;font style=&quot;font-size:8.47px;font-family:Calibri;color:#000000;direction:ltr;letter-spacing:0px;line-height:100%;opacity:1&quot;&gt;Pega NodeType:WebUser&lt;br&gt;&lt;/font&gt;&lt;/div&gt;" tags="Background" id="M_-9Dg6sCtWMjmafzQ-w-290">
          <mxCell style="verticalAlign=middle;align=center;overflow=width;vsdxID=1217;fillColor=#44aac4;gradientColor=#31859b;gradientDirection=north;shape=stencil(vVPLcsMgDPwajtYA6qTmnKb/wTTYZkqNB9PG/fviymmCXSan5KbHSmIlluF+7PRgmORjDP7dnOwxdgxfmJS270ywMVkMDwz3jQ+mDf6zP5I/6Bk5Wx/+a+4wUZ3aQY1zleTfFBGc//qvBNfhLeXCAkdASehwhgsQFJny+nO/WsHTAqj0ZMcq+Kij9T2lF7DToTVVGlY1TrdZajwZM2zCy/Oc7U15tuCwK5ORoFRORoGqMzLb9fBHcUEQz/9MLpyF4+osHER+l8JmHsCk8B8KTNSaCa6ZbDbzd/b7c7mpl2RctNZY50iq1/m1NlOIdI2HHw==);strokeColor=#404040;shadow=1;spacingTop=-3;spacingBottom=-3;spacingLeft=-3;spacingRight=-3;points=[[0.5,0,0],[0.5,0,0],[0.5,0.5,0],[1,0.5,0],[0.5,0.5,0]];labelBackgroundColor=none;rounded=0;html=1;whiteSpace=wrap;" parent="1" vertex="1">
            <mxGeometry x="644.25" y="1520" width="100" height="29" as="geometry" />
          </mxCell>
        </UserObject>
        <UserObject label="&lt;div style=&quot;font-size: 1px&quot;&gt;&lt;font style=&quot;font-size:8.47px;font-family:Calibri;color:#000000;direction:ltr;letter-spacing:0px;line-height:120%;opacity:1&quot;&gt;&lt;font style=&quot;border-color: var(--border-color); letter-spacing: 0px; direction: ltr; line-height: 10.164px; opacity: 1;&quot;&gt;Tomcat Server– 1 (&lt;/font&gt;&lt;font style=&quot;border-color: var(--border-color); letter-spacing: 0px; direction: ltr; line-height: 10.164px; opacity: 1;&quot;&gt;Core – 4 . RAM 16 GB)&lt;/font&gt;&lt;br&gt;&lt;/font&gt;&lt;/div&gt;" tags="Background" id="M_-9Dg6sCtWMjmafzQ-w-292">
          <mxCell style="verticalAlign=top;align=left;overflow=width;vsdxID=1109;fillColor=#d7d0e3;gradientColor=#e7e3ee;gradientDirection=north;shape=stencil(nZBLDoAgDERP0z3SIyjew0SURgSD+Lu9kMZoXLhwN9O+tukAlrNpJg1SzDH4QW/URgNYgZTkjA4UkwJUgGXng+6DX1zLfmoymdXo17xh5zmRJ6Q42BWCfc2oJfdAr+Yv+AP9Cb7OJ3H/2JG1HNGz/84klThPVCc=);strokeColor=#404040;shadow=1;points=[[1,0.5,0],[0.5,0,0],[0.5,0.5,0],[0.5,0.5,0]];labelBackgroundColor=none;rounded=0;html=1;whiteSpace=wrap;" parent="1" vertex="1">
            <mxGeometry x="225.5" y="1428" width="121.5" height="60" as="geometry" />
          </mxCell>
        </UserObject>
        <UserObject label="&lt;div style=&quot;font-size: 1px&quot;&gt;&lt;font style=&quot;font-size:8.47px;font-family:Calibri;color:#000000;direction:ltr;letter-spacing:0px;line-height:100%;opacity:1&quot;&gt;Pega NodeType:WebUser&lt;br&gt;&lt;/font&gt;&lt;/div&gt;" tags="Background" id="M_-9Dg6sCtWMjmafzQ-w-293">
          <mxCell style="verticalAlign=middle;align=center;overflow=width;vsdxID=1217;fillColor=#44aac4;gradientColor=#31859b;gradientDirection=north;shape=stencil(vVPLcsMgDPwajtYA6qTmnKb/wTTYZkqNB9PG/fviymmCXSan5KbHSmIlluF+7PRgmORjDP7dnOwxdgxfmJS270ywMVkMDwz3jQ+mDf6zP5I/6Bk5Wx/+a+4wUZ3aQY1zleTfFBGc//qvBNfhLeXCAkdASehwhgsQFJny+nO/WsHTAqj0ZMcq+Kij9T2lF7DToTVVGlY1TrdZajwZM2zCy/Oc7U15tuCwK5ORoFRORoGqMzLb9fBHcUEQz/9MLpyF4+osHER+l8JmHsCk8B8KTNSaCa6ZbDbzd/b7c7mpl2RctNZY50iq1/m1NlOIdI2HHw==);strokeColor=#404040;shadow=1;spacingTop=-3;spacingBottom=-3;spacingLeft=-3;spacingRight=-3;points=[[0.5,0,0],[0.5,0,0],[0.5,0.5,0],[1,0.5,0],[0.5,0.5,0]];labelBackgroundColor=none;rounded=0;html=1;whiteSpace=wrap;" parent="1" vertex="1">
            <mxGeometry x="237" y="1451" width="100" height="29" as="geometry" />
          </mxCell>
        </UserObject>
        <UserObject label="&lt;div style=&quot;font-size: 1px&quot;&gt;&lt;font style=&quot;font-size:11.29px;font-family:Calibri;color:#000000;direction:ltr;letter-spacing:0px;line-height:120%;opacity:1&quot;&gt;&lt;br&gt;&lt;/font&gt;&lt;/div&gt;&lt;div style=&quot;font-size: 1px&quot;&gt;&lt;font style=&quot;font-size:11.29px;font-family:Calibri;color:#000000;direction:ltr;letter-spacing:0px;line-height:120%;opacity:1&quot;&gt;Background Nodes&lt;br&gt;&lt;/font&gt;&lt;/div&gt;" tags="Background" id="M_-9Dg6sCtWMjmafzQ-w-294">
          <mxCell style="verticalAlign=top;align=center;overflow=width;vsdxID=1100;fillColor=#8fa350;gradientColor=none;fillOpacity=20;shape=stencil(vVPLlsIgDP0aluUgtFO71s5/cJS2nMHSk+JY/15qcBQ7OKtxl8cN4Sa5RGzGTg6KcDY6sF/qpPeuI2JLONd9p0A7bxFRE7FpLKgW7LHfoz/IGTlbB/s9vzBhXVVSXs1VnJ0xsmLs6n8iXMLO5yDAOS0FoiHAK1p8YGSK62/vVYwWoWbK5KTHDKyTTtse8wFtJLQq892yxsg2So0npYZFOPzP6F69aE7z8hWbnMds1jSP2Sznw97Fxc969UvnBJNi/bwXlkdMEoN5A5HUPaQubMHkdnOpwfxs/f+5/KkXb9y11mhjUKqP+Wdt+hDqWtQX);strokeColor=#404040;shadow=1;points=[[0.5,0,0],[0.5,0,0],[0.5,0.5,0],[1,0.5,0],[0.5,0.5,0]];labelBackgroundColor=none;rounded=0;html=1;whiteSpace=wrap;" parent="1" vertex="1">
            <mxGeometry x="170" y="1600" width="310" height="190" as="geometry" />
          </mxCell>
        </UserObject>
        <UserObject label="&lt;div style=&quot;font-size: 1px&quot;&gt;&lt;/div&gt;" tags="Background" id="M_-9Dg6sCtWMjmafzQ-w-295">
          <mxCell style="verticalAlign=top;align=center;overflow=width;vsdxID=1216;fillColor=#0070c0;gradientColor=none;fillOpacity=20;shape=stencil(vZNLcsMgDIZPw9IMFkkcr9PkHkyDbabUeGSSuLcvrugDu0xWyU5IvxCfkJg8jJ0aNAMxenRv+mbOvmPyhQGYvtNofLCYPDJ5aBzqFt2lP9N5ULNytt7ddb5hory64qKcs0B8kKcU4ut8IrnC1xDDKJe83JAaoxy2fEeeKc3/vq8KglhhKtRkxgKdV964nuJRbRW2ugjVisaqNgmNN62HlTu+z5pe54vDhss6jwO82i1wgG/LhGfdIfEsGuB1/U/lDMp+iSI57BOUXG+egJKbicyUiWo5ZQnIqjE///54krsbE4zfbWuMtbSsf+PL7Qwu2mx5/AQ=);strokeColor=#404040;shadow=1;points=[[0.5,0,0],[0.5,0,0],[0.5,0.5,0],[1,0.5,0],[0.5,0.5,0]];labelBackgroundColor=none;rounded=0;html=1;whiteSpace=wrap;" parent="1" vertex="1">
            <mxGeometry x="180" y="1629" width="290" height="150" as="geometry" />
          </mxCell>
        </UserObject>
        <UserObject label="&lt;div style=&quot;font-size: 1px&quot;&gt;&lt;font style=&quot;font-size:8.47px;font-family:Calibri;color:#000000;direction:ltr;letter-spacing:0px;line-height:120%;opacity:1&quot;&gt;&lt;font style=&quot;border-color: var(--border-color); letter-spacing: 0px; direction: ltr; line-height: 10.164px; opacity: 1;&quot;&gt;Tomcat Server– 1 (&lt;/font&gt;&lt;font style=&quot;border-color: var(--border-color); letter-spacing: 0px; direction: ltr; line-height: 10.164px; opacity: 1;&quot;&gt;Core – 4 . RAM 16 GB)&lt;/font&gt;&lt;br&gt;&lt;/font&gt;&lt;/div&gt;" tags="Background" id="M_-9Dg6sCtWMjmafzQ-w-296">
          <mxCell style="verticalAlign=top;align=left;overflow=width;vsdxID=1109;fillColor=#d7d0e3;gradientColor=#e7e3ee;gradientDirection=north;shape=stencil(nZBLDoAgDERP0z3SIyjew0SURgSD+Lu9kMZoXLhwN9O+tukAlrNpJg1SzDH4QW/URgNYgZTkjA4UkwJUgGXng+6DX1zLfmoymdXo17xh5zmRJ6Q42BWCfc2oJfdAr+Yv+AP9Cb7OJ3H/2JG1HNGz/84klThPVCc=);strokeColor=#404040;shadow=1;points=[[1,0.5,0],[0.5,0,0],[0.5,0.5,0],[0.5,0.5,0]];labelBackgroundColor=none;rounded=0;html=1;whiteSpace=wrap;" parent="1" vertex="1">
            <mxGeometry x="336.90999999999997" y="1638" width="121.5" height="60" as="geometry" />
          </mxCell>
        </UserObject>
        <UserObject label="&lt;div style=&quot;font-size: 1px&quot;&gt;&lt;font style=&quot;font-size:8.47px;font-family:Calibri;color:#000000;direction:ltr;letter-spacing:0px;line-height:100%;opacity:1&quot;&gt;Pega NodeType:&lt;br&gt;&lt;/font&gt;&lt;/div&gt;Background&amp;nbsp;" tags="Background" id="M_-9Dg6sCtWMjmafzQ-w-297">
          <mxCell style="verticalAlign=middle;align=center;overflow=width;vsdxID=1217;fillColor=#44aac4;gradientColor=#31859b;gradientDirection=north;shape=stencil(vVPLcsMgDPwajtYA6qTmnKb/wTTYZkqNB9PG/fviymmCXSan5KbHSmIlluF+7PRgmORjDP7dnOwxdgxfmJS270ywMVkMDwz3jQ+mDf6zP5I/6Bk5Wx/+a+4wUZ3aQY1zleTfFBGc//qvBNfhLeXCAkdASehwhgsQFJny+nO/WsHTAqj0ZMcq+Kij9T2lF7DToTVVGlY1TrdZajwZM2zCy/Oc7U15tuCwK5ORoFRORoGqMzLb9fBHcUEQz/9MLpyF4+osHER+l8JmHsCk8B8KTNSaCa6ZbDbzd/b7c7mpl2RctNZY50iq1/m1NlOIdI2HHw==);strokeColor=#404040;shadow=1;spacingTop=-3;spacingBottom=-3;spacingLeft=-3;spacingRight=-3;points=[[0.5,0,0],[0.5,0,0],[0.5,0.5,0],[1,0.5,0],[0.5,0.5,0]];labelBackgroundColor=none;rounded=0;html=1;whiteSpace=wrap;" parent="1" vertex="1">
            <mxGeometry x="347.65999999999997" y="1661" width="100" height="29" as="geometry" />
          </mxCell>
        </UserObject>
        <UserObject label="&lt;div style=&quot;font-size: 1px&quot;&gt;&lt;font style=&quot;font-size:8.47px;font-family:Calibri;color:#000000;direction:ltr;letter-spacing:0px;line-height:120%;opacity:1&quot;&gt;&lt;font style=&quot;border-color: var(--border-color); letter-spacing: 0px; direction: ltr; line-height: 10.164px; opacity: 1;&quot;&gt;Tomcat Server– 1 (&lt;/font&gt;&lt;font style=&quot;border-color: var(--border-color); letter-spacing: 0px; direction: ltr; line-height: 10.164px; opacity: 1;&quot;&gt;Core – 4 . RAM 16 GB)&lt;/font&gt;&lt;br&gt;&lt;/font&gt;&lt;/div&gt;" tags="Background" id="M_-9Dg6sCtWMjmafzQ-w-298">
          <mxCell style="verticalAlign=top;align=left;overflow=width;vsdxID=1109;fillColor=#d7d0e3;gradientColor=#e7e3ee;gradientDirection=north;shape=stencil(nZBLDoAgDERP0z3SIyjew0SURgSD+Lu9kMZoXLhwN9O+tukAlrNpJg1SzDH4QW/URgNYgZTkjA4UkwJUgGXng+6DX1zLfmoymdXo17xh5zmRJ6Q42BWCfc2oJfdAr+Yv+AP9Cb7OJ3H/2JG1HNGz/84klThPVCc=);strokeColor=#404040;shadow=1;points=[[1,0.5,0],[0.5,0,0],[0.5,0.5,0],[0.5,0.5,0]];labelBackgroundColor=none;rounded=0;html=1;whiteSpace=wrap;" parent="1" vertex="1">
            <mxGeometry x="206.41" y="1706" width="121.5" height="60" as="geometry" />
          </mxCell>
        </UserObject>
        <UserObject label="&lt;div style=&quot;font-size: 1px&quot;&gt;&lt;font style=&quot;font-size:8.47px;font-family:Calibri;color:#000000;direction:ltr;letter-spacing:0px;line-height:100%;opacity:1&quot;&gt;Pega NodeType:&lt;br&gt;&lt;/font&gt;&lt;/div&gt;Background&amp;nbsp;" tags="Background" id="M_-9Dg6sCtWMjmafzQ-w-299">
          <mxCell style="verticalAlign=middle;align=center;overflow=width;vsdxID=1217;fillColor=#44aac4;gradientColor=#31859b;gradientDirection=north;shape=stencil(vVPLcsMgDPwajtYA6qTmnKb/wTTYZkqNB9PG/fviymmCXSan5KbHSmIlluF+7PRgmORjDP7dnOwxdgxfmJS270ywMVkMDwz3jQ+mDf6zP5I/6Bk5Wx/+a+4wUZ3aQY1zleTfFBGc//qvBNfhLeXCAkdASehwhgsQFJny+nO/WsHTAqj0ZMcq+Kij9T2lF7DToTVVGlY1TrdZajwZM2zCy/Oc7U15tuCwK5ORoFRORoGqMzLb9fBHcUEQz/9MLpyF4+osHER+l8JmHsCk8B8KTNSaCa6ZbDbzd/b7c7mpl2RctNZY50iq1/m1NlOIdI2HHw==);strokeColor=#404040;shadow=1;spacingTop=-3;spacingBottom=-3;spacingLeft=-3;spacingRight=-3;points=[[0.5,0,0],[0.5,0,0],[0.5,0.5,0],[1,0.5,0],[0.5,0.5,0]];labelBackgroundColor=none;rounded=0;html=1;whiteSpace=wrap;" parent="1" vertex="1">
            <mxGeometry x="217.91" y="1729" width="100" height="29" as="geometry" />
          </mxCell>
        </UserObject>
        <UserObject label="&lt;div style=&quot;font-size: 1px&quot;&gt;&lt;font style=&quot;font-size:8.47px;font-family:Calibri;color:#000000;direction:ltr;letter-spacing:0px;line-height:120%;opacity:1&quot;&gt;&lt;font style=&quot;border-color: var(--border-color); letter-spacing: 0px; direction: ltr; line-height: 10.164px; opacity: 1;&quot;&gt;Tomcat Server– 1 (&lt;/font&gt;&lt;font style=&quot;border-color: var(--border-color); letter-spacing: 0px; direction: ltr; line-height: 10.164px; opacity: 1;&quot;&gt;Core – 4 . RAM 16 GB)&lt;/font&gt;&lt;br&gt;&lt;/font&gt;&lt;/div&gt;" tags="Background" id="M_-9Dg6sCtWMjmafzQ-w-300">
          <mxCell style="verticalAlign=top;align=left;overflow=width;vsdxID=1109;fillColor=#d7d0e3;gradientColor=#e7e3ee;gradientDirection=north;shape=stencil(nZBLDoAgDERP0z3SIyjew0SURgSD+Lu9kMZoXLhwN9O+tukAlrNpJg1SzDH4QW/URgNYgZTkjA4UkwJUgGXng+6DX1zLfmoymdXo17xh5zmRJ6Q42BWCfc2oJfdAr+Yv+AP9Cb7OJ3H/2JG1HNGz/84klThPVCc=);strokeColor=#404040;shadow=1;points=[[1,0.5,0],[0.5,0,0],[0.5,0.5,0],[0.5,0.5,0]];labelBackgroundColor=none;rounded=0;html=1;whiteSpace=wrap;" parent="1" vertex="1">
            <mxGeometry x="337.90999999999997" y="1706" width="121.5" height="60" as="geometry" />
          </mxCell>
        </UserObject>
        <UserObject label="&lt;div style=&quot;font-size: 1px&quot;&gt;&lt;font style=&quot;font-size:8.47px;font-family:Calibri;color:#000000;direction:ltr;letter-spacing:0px;line-height:100%;opacity:1&quot;&gt;Pega NodeType:&lt;br&gt;&lt;/font&gt;&lt;/div&gt;Background&amp;nbsp;" tags="Background" id="M_-9Dg6sCtWMjmafzQ-w-301">
          <mxCell style="verticalAlign=middle;align=center;overflow=width;vsdxID=1217;fillColor=#44aac4;gradientColor=#31859b;gradientDirection=north;shape=stencil(vVPLcsMgDPwajtYA6qTmnKb/wTTYZkqNB9PG/fviymmCXSan5KbHSmIlluF+7PRgmORjDP7dnOwxdgxfmJS270ywMVkMDwz3jQ+mDf6zP5I/6Bk5Wx/+a+4wUZ3aQY1zleTfFBGc//qvBNfhLeXCAkdASehwhgsQFJny+nO/WsHTAqj0ZMcq+Kij9T2lF7DToTVVGlY1TrdZajwZM2zCy/Oc7U15tuCwK5ORoFRORoGqMzLb9fBHcUEQz/9MLpyF4+osHER+l8JmHsCk8B8KTNSaCa6ZbDbzd/b7c7mpl2RctNZY50iq1/m1NlOIdI2HHw==);strokeColor=#404040;shadow=1;spacingTop=-3;spacingBottom=-3;spacingLeft=-3;spacingRight=-3;points=[[0.5,0,0],[0.5,0,0],[0.5,0.5,0],[1,0.5,0],[0.5,0.5,0]];labelBackgroundColor=none;rounded=0;html=1;whiteSpace=wrap;" parent="1" vertex="1">
            <mxGeometry x="348.65999999999997" y="1729" width="100" height="29" as="geometry" />
          </mxCell>
        </UserObject>
        <UserObject label="&lt;div style=&quot;font-size: 1px&quot;&gt;&lt;font style=&quot;font-size:8.47px;font-family:Calibri;color:#000000;direction:ltr;letter-spacing:0px;line-height:120%;opacity:1&quot;&gt;&lt;font style=&quot;border-color: var(--border-color); letter-spacing: 0px; direction: ltr; line-height: 10.164px; opacity: 1;&quot;&gt;Tomcat Server– 1 (&lt;/font&gt;&lt;font style=&quot;border-color: var(--border-color); letter-spacing: 0px; direction: ltr; line-height: 10.164px; opacity: 1;&quot;&gt;Core – 4 . RAM 16 GB)&lt;/font&gt;&lt;br&gt;&lt;/font&gt;&lt;/div&gt;" tags="Background" id="M_-9Dg6sCtWMjmafzQ-w-310">
          <mxCell style="verticalAlign=top;align=left;overflow=width;vsdxID=1109;fillColor=#d7d0e3;gradientColor=#e7e3ee;gradientDirection=north;shape=stencil(nZBLDoAgDERP0z3SIyjew0SURgSD+Lu9kMZoXLhwN9O+tukAlrNpJg1SzDH4QW/URgNYgZTkjA4UkwJUgGXng+6DX1zLfmoymdXo17xh5zmRJ6Q42BWCfc2oJfdAr+Yv+AP9Cb7OJ3H/2JG1HNGz/84klThPVCc=);strokeColor=#404040;shadow=1;points=[[1,0.5,0],[0.5,0,0],[0.5,0.5,0],[0.5,0.5,0]];labelBackgroundColor=none;rounded=0;html=1;whiteSpace=wrap;" parent="1" vertex="1">
            <mxGeometry x="205.5" y="1637" width="121.5" height="60" as="geometry" />
          </mxCell>
        </UserObject>
        <UserObject label="&lt;div style=&quot;font-size: 1px&quot;&gt;&lt;font style=&quot;font-size:8.47px;font-family:Calibri;color:#000000;direction:ltr;letter-spacing:0px;line-height:100%;opacity:1&quot;&gt;Pega NodeType:&lt;br&gt;&lt;/font&gt;&lt;/div&gt;Background&amp;nbsp;" tags="Background" id="M_-9Dg6sCtWMjmafzQ-w-311">
          <mxCell style="verticalAlign=middle;align=center;overflow=width;vsdxID=1217;fillColor=#44aac4;gradientColor=#31859b;gradientDirection=north;shape=stencil(vVPLcsMgDPwajtYA6qTmnKb/wTTYZkqNB9PG/fviymmCXSan5KbHSmIlluF+7PRgmORjDP7dnOwxdgxfmJS270ywMVkMDwz3jQ+mDf6zP5I/6Bk5Wx/+a+4wUZ3aQY1zleTfFBGc//qvBNfhLeXCAkdASehwhgsQFJny+nO/WsHTAqj0ZMcq+Kij9T2lF7DToTVVGlY1TrdZajwZM2zCy/Oc7U15tuCwK5ORoFRORoGqMzLb9fBHcUEQz/9MLpyF4+osHER+l8JmHsCk8B8KTNSaCa6ZbDbzd/b7c7mpl2RctNZY50iq1/m1NlOIdI2HHw==);strokeColor=#404040;shadow=1;spacingTop=-3;spacingBottom=-3;spacingLeft=-3;spacingRight=-3;points=[[0.5,0,0],[0.5,0,0],[0.5,0.5,0],[1,0.5,0],[0.5,0.5,0]];labelBackgroundColor=none;rounded=0;html=1;whiteSpace=wrap;" parent="1" vertex="1">
            <mxGeometry x="217" y="1660" width="100" height="29" as="geometry" />
          </mxCell>
        </UserObject>
        <UserObject label="&lt;div style=&quot;font-size: 1px&quot;&gt;&lt;font style=&quot;font-size:11.29px;font-family:Calibri;color:#000000;direction:ltr;letter-spacing:0px;line-height:120%;opacity:1&quot;&gt;&lt;br&gt;&lt;/font&gt;&lt;/div&gt;&lt;div style=&quot;font-size: 1px&quot;&gt;&lt;font style=&quot;font-size:11.29px;font-family:Calibri;color:#000000;direction:ltr;letter-spacing:0px;line-height:120%;opacity:1&quot;&gt;Search Nodes&lt;br&gt;&lt;/font&gt;&lt;/div&gt;" tags="Background" id="M_-9Dg6sCtWMjmafzQ-w-312">
          <mxCell style="verticalAlign=top;align=center;overflow=width;vsdxID=1100;fillColor=#8fa350;gradientColor=none;fillOpacity=20;shape=stencil(vVPLlsIgDP0aluUgtFO71s5/cJS2nMHSk+JY/15qcBQ7OKtxl8cN4Sa5RGzGTg6KcDY6sF/qpPeuI2JLONd9p0A7bxFRE7FpLKgW7LHfoz/IGTlbB/s9vzBhXVVSXs1VnJ0xsmLs6n8iXMLO5yDAOS0FoiHAK1p8YGSK62/vVYwWoWbK5KTHDKyTTtse8wFtJLQq892yxsg2So0npYZFOPzP6F69aE7z8hWbnMds1jSP2Sznw97Fxc969UvnBJNi/bwXlkdMEoN5A5HUPaQubMHkdnOpwfxs/f+5/KkXb9y11mhjUKqP+Wdt+hDqWtQX);strokeColor=#404040;shadow=1;points=[[0.5,0,0],[0.5,0,0],[0.5,0.5,0],[1,0.5,0],[0.5,0.5,0]];labelBackgroundColor=none;rounded=0;html=1;whiteSpace=wrap;" parent="1" vertex="1">
            <mxGeometry x="513.5" y="1600" width="310" height="120" as="geometry" />
          </mxCell>
        </UserObject>
        <UserObject label="&lt;div style=&quot;font-size: 1px&quot;&gt;&lt;/div&gt;" tags="Background" id="M_-9Dg6sCtWMjmafzQ-w-313">
          <mxCell style="verticalAlign=top;align=center;overflow=width;vsdxID=1216;fillColor=#0070c0;gradientColor=none;fillOpacity=20;shape=stencil(vZNLcsMgDIZPw9IMFkkcr9PkHkyDbabUeGSSuLcvrugDu0xWyU5IvxCfkJg8jJ0aNAMxenRv+mbOvmPyhQGYvtNofLCYPDJ5aBzqFt2lP9N5ULNytt7ddb5hory64qKcs0B8kKcU4ut8IrnC1xDDKJe83JAaoxy2fEeeKc3/vq8KglhhKtRkxgKdV964nuJRbRW2ugjVisaqNgmNN62HlTu+z5pe54vDhss6jwO82i1wgG/LhGfdIfEsGuB1/U/lDMp+iSI57BOUXG+egJKbicyUiWo5ZQnIqjE///54krsbE4zfbWuMtbSsf+PL7Qwu2mx5/AQ=);strokeColor=#404040;shadow=1;points=[[0.5,0,0],[0.5,0,0],[0.5,0.5,0],[1,0.5,0],[0.5,0.5,0]];labelBackgroundColor=none;rounded=0;html=1;whiteSpace=wrap;" parent="1" vertex="1">
            <mxGeometry x="523.5" y="1628" width="290" height="82" as="geometry" />
          </mxCell>
        </UserObject>
        <UserObject label="&lt;div style=&quot;font-size: 1px&quot;&gt;&lt;font style=&quot;font-size:8.47px;font-family:Calibri;color:#000000;direction:ltr;letter-spacing:0px;line-height:120%;opacity:1&quot;&gt;&lt;font style=&quot;border-color: var(--border-color); letter-spacing: 0px; direction: ltr; line-height: 10.164px; opacity: 1;&quot;&gt;Tomcat Server– 1 (&lt;/font&gt;&lt;font style=&quot;border-color: var(--border-color); letter-spacing: 0px; direction: ltr; line-height: 10.164px; opacity: 1;&quot;&gt;Core – 4 . RAM 16 GB)&lt;/font&gt;&lt;br&gt;&lt;/font&gt;&lt;/div&gt;" tags="Background" id="M_-9Dg6sCtWMjmafzQ-w-314">
          <mxCell style="verticalAlign=top;align=left;overflow=width;vsdxID=1109;fillColor=#d7d0e3;gradientColor=#e7e3ee;gradientDirection=north;shape=stencil(nZBLDoAgDERP0z3SIyjew0SURgSD+Lu9kMZoXLhwN9O+tukAlrNpJg1SzDH4QW/URgNYgZTkjA4UkwJUgGXng+6DX1zLfmoymdXo17xh5zmRJ6Q42BWCfc2oJfdAr+Yv+AP9Cb7OJ3H/2JG1HNGz/84klThPVCc=);strokeColor=#404040;shadow=1;points=[[1,0.5,0],[0.5,0,0],[0.5,0.5,0],[0.5,0.5,0]];labelBackgroundColor=none;rounded=0;html=1;whiteSpace=wrap;" parent="1" vertex="1">
            <mxGeometry x="680.41" y="1637" width="121.5" height="60" as="geometry" />
          </mxCell>
        </UserObject>
        <UserObject label="&lt;div style=&quot;font-size: 1px&quot;&gt;&lt;font style=&quot;font-size:8.47px;font-family:Calibri;color:#000000;direction:ltr;letter-spacing:0px;line-height:100%;opacity:1&quot;&gt;Pega NodeType:&lt;br&gt;&lt;/font&gt;&lt;/div&gt;Search&amp;nbsp;" tags="Background" id="M_-9Dg6sCtWMjmafzQ-w-315">
          <mxCell style="verticalAlign=middle;align=center;overflow=width;vsdxID=1217;fillColor=#44aac4;gradientColor=#31859b;gradientDirection=north;shape=stencil(vVPLcsMgDPwajtYA6qTmnKb/wTTYZkqNB9PG/fviymmCXSan5KbHSmIlluF+7PRgmORjDP7dnOwxdgxfmJS270ywMVkMDwz3jQ+mDf6zP5I/6Bk5Wx/+a+4wUZ3aQY1zleTfFBGc//qvBNfhLeXCAkdASehwhgsQFJny+nO/WsHTAqj0ZMcq+Kij9T2lF7DToTVVGlY1TrdZajwZM2zCy/Oc7U15tuCwK5ORoFRORoGqMzLb9fBHcUEQz/9MLpyF4+osHER+l8JmHsCk8B8KTNSaCa6ZbDbzd/b7c7mpl2RctNZY50iq1/m1NlOIdI2HHw==);strokeColor=#404040;shadow=1;spacingTop=-3;spacingBottom=-3;spacingLeft=-3;spacingRight=-3;points=[[0.5,0,0],[0.5,0,0],[0.5,0.5,0],[1,0.5,0],[0.5,0.5,0]];labelBackgroundColor=none;rounded=0;html=1;whiteSpace=wrap;" parent="1" vertex="1">
            <mxGeometry x="691.16" y="1660" width="100" height="29" as="geometry" />
          </mxCell>
        </UserObject>
        <UserObject label="&lt;div style=&quot;font-size: 1px&quot;&gt;&lt;font style=&quot;font-size:8.47px;font-family:Calibri;color:#000000;direction:ltr;letter-spacing:0px;line-height:120%;opacity:1&quot;&gt;&lt;font style=&quot;border-color: var(--border-color); letter-spacing: 0px; direction: ltr; line-height: 10.164px; opacity: 1;&quot;&gt;Tomcat Server– 1 (&lt;/font&gt;&lt;font style=&quot;border-color: var(--border-color); letter-spacing: 0px; direction: ltr; line-height: 10.164px; opacity: 1;&quot;&gt;Core – 4 . RAM 16 GB)&lt;/font&gt;&lt;br&gt;&lt;/font&gt;&lt;/div&gt;" tags="Background" id="M_-9Dg6sCtWMjmafzQ-w-320">
          <mxCell style="verticalAlign=top;align=left;overflow=width;vsdxID=1109;fillColor=#d7d0e3;gradientColor=#e7e3ee;gradientDirection=north;shape=stencil(nZBLDoAgDERP0z3SIyjew0SURgSD+Lu9kMZoXLhwN9O+tukAlrNpJg1SzDH4QW/URgNYgZTkjA4UkwJUgGXng+6DX1zLfmoymdXo17xh5zmRJ6Q42BWCfc2oJfdAr+Yv+AP9Cb7OJ3H/2JG1HNGz/84klThPVCc=);strokeColor=#404040;shadow=1;points=[[1,0.5,0],[0.5,0,0],[0.5,0.5,0],[0.5,0.5,0]];labelBackgroundColor=none;rounded=0;html=1;whiteSpace=wrap;" parent="1" vertex="1">
            <mxGeometry x="549" y="1636" width="121.5" height="60" as="geometry" />
          </mxCell>
        </UserObject>
        <UserObject label="&lt;div style=&quot;font-size: 1px&quot;&gt;&lt;font style=&quot;font-size:8.47px;font-family:Calibri;color:#000000;direction:ltr;letter-spacing:0px;line-height:100%;opacity:1&quot;&gt;Pega NodeType:&lt;br&gt;&lt;/font&gt;&lt;/div&gt;Search&amp;nbsp;" tags="Background" id="M_-9Dg6sCtWMjmafzQ-w-321">
          <mxCell style="verticalAlign=middle;align=center;overflow=width;vsdxID=1217;fillColor=#44aac4;gradientColor=#31859b;gradientDirection=north;shape=stencil(vVPLcsMgDPwajtYA6qTmnKb/wTTYZkqNB9PG/fviymmCXSan5KbHSmIlluF+7PRgmORjDP7dnOwxdgxfmJS270ywMVkMDwz3jQ+mDf6zP5I/6Bk5Wx/+a+4wUZ3aQY1zleTfFBGc//qvBNfhLeXCAkdASehwhgsQFJny+nO/WsHTAqj0ZMcq+Kij9T2lF7DToTVVGlY1TrdZajwZM2zCy/Oc7U15tuCwK5ORoFRORoGqMzLb9fBHcUEQz/9MLpyF4+osHER+l8JmHsCk8B8KTNSaCa6ZbDbzd/b7c7mpl2RctNZY50iq1/m1NlOIdI2HHw==);strokeColor=#404040;shadow=1;spacingTop=-3;spacingBottom=-3;spacingLeft=-3;spacingRight=-3;points=[[0.5,0,0],[0.5,0,0],[0.5,0.5,0],[1,0.5,0],[0.5,0.5,0]];labelBackgroundColor=none;rounded=0;html=1;whiteSpace=wrap;" parent="1" vertex="1">
            <mxGeometry x="560.5" y="1659" width="100" height="29" as="geometry" />
          </mxCell>
        </UserObject>
        <UserObject label="&lt;div style=&quot;font-size: 1px&quot;&gt;&lt;font style=&quot;font-size:11.29px;font-family:Calibri;color:#000000;direction:ltr;letter-spacing:0px;line-height:120%;opacity:1&quot;&gt;&lt;br&gt;&lt;/font&gt;&lt;/div&gt;&lt;div style=&quot;font-size: 1px&quot;&gt;&lt;font style=&quot;font-size:11.29px;font-family:Calibri;color:#000000;direction:ltr;letter-spacing:0px;line-height:120%;opacity:1&quot;&gt;Stream Nodes&lt;br&gt;&lt;/font&gt;&lt;/div&gt;" tags="Background" id="M_-9Dg6sCtWMjmafzQ-w-322">
          <mxCell style="verticalAlign=top;align=center;overflow=width;vsdxID=1100;fillColor=#8fa350;gradientColor=none;fillOpacity=20;shape=stencil(vVPLlsIgDP0aluUgtFO71s5/cJS2nMHSk+JY/15qcBQ7OKtxl8cN4Sa5RGzGTg6KcDY6sF/qpPeuI2JLONd9p0A7bxFRE7FpLKgW7LHfoz/IGTlbB/s9vzBhXVVSXs1VnJ0xsmLs6n8iXMLO5yDAOS0FoiHAK1p8YGSK62/vVYwWoWbK5KTHDKyTTtse8wFtJLQq892yxsg2So0npYZFOPzP6F69aE7z8hWbnMds1jSP2Sznw97Fxc969UvnBJNi/bwXlkdMEoN5A5HUPaQubMHkdnOpwfxs/f+5/KkXb9y11mhjUKqP+Wdt+hDqWtQX);strokeColor=#404040;shadow=1;points=[[0.5,0,0],[0.5,0,0],[0.5,0.5,0],[1,0.5,0],[0.5,0.5,0]];labelBackgroundColor=none;rounded=0;html=1;whiteSpace=wrap;" parent="1" vertex="1">
            <mxGeometry x="513.5" y="1732" width="310" height="120" as="geometry" />
          </mxCell>
        </UserObject>
        <UserObject label="&lt;div style=&quot;font-size: 1px&quot;&gt;&lt;/div&gt;" tags="Background" id="M_-9Dg6sCtWMjmafzQ-w-323">
          <mxCell style="verticalAlign=top;align=center;overflow=width;vsdxID=1216;fillColor=#0070c0;gradientColor=none;fillOpacity=20;shape=stencil(vZNLcsMgDIZPw9IMFkkcr9PkHkyDbabUeGSSuLcvrugDu0xWyU5IvxCfkJg8jJ0aNAMxenRv+mbOvmPyhQGYvtNofLCYPDJ5aBzqFt2lP9N5ULNytt7ddb5hory64qKcs0B8kKcU4ut8IrnC1xDDKJe83JAaoxy2fEeeKc3/vq8KglhhKtRkxgKdV964nuJRbRW2ugjVisaqNgmNN62HlTu+z5pe54vDhss6jwO82i1wgG/LhGfdIfEsGuB1/U/lDMp+iSI57BOUXG+egJKbicyUiWo5ZQnIqjE///54krsbE4zfbWuMtbSsf+PL7Qwu2mx5/AQ=);strokeColor=#404040;shadow=1;points=[[0.5,0,0],[0.5,0,0],[0.5,0.5,0],[1,0.5,0],[0.5,0.5,0]];labelBackgroundColor=none;rounded=0;html=1;whiteSpace=wrap;" parent="1" vertex="1">
            <mxGeometry x="523.5" y="1760" width="290" height="82" as="geometry" />
          </mxCell>
        </UserObject>
        <UserObject label="&lt;div style=&quot;font-size: 1px&quot;&gt;&lt;font style=&quot;font-size:8.47px;font-family:Calibri;color:#000000;direction:ltr;letter-spacing:0px;line-height:120%;opacity:1&quot;&gt;&lt;font style=&quot;border-color: var(--border-color); letter-spacing: 0px; direction: ltr; line-height: 10.164px; opacity: 1;&quot;&gt;Tomcat Server– 1 (&lt;/font&gt;&lt;font style=&quot;border-color: var(--border-color); letter-spacing: 0px; direction: ltr; line-height: 10.164px; opacity: 1;&quot;&gt;Core – 4 . RAM 16 GB)&lt;/font&gt;&lt;br&gt;&lt;/font&gt;&lt;/div&gt;" tags="Background" id="M_-9Dg6sCtWMjmafzQ-w-324">
          <mxCell style="verticalAlign=top;align=left;overflow=width;vsdxID=1109;fillColor=#d7d0e3;gradientColor=#e7e3ee;gradientDirection=north;shape=stencil(nZBLDoAgDERP0z3SIyjew0SURgSD+Lu9kMZoXLhwN9O+tukAlrNpJg1SzDH4QW/URgNYgZTkjA4UkwJUgGXng+6DX1zLfmoymdXo17xh5zmRJ6Q42BWCfc2oJfdAr+Yv+AP9Cb7OJ3H/2JG1HNGz/84klThPVCc=);strokeColor=#404040;shadow=1;points=[[1,0.5,0],[0.5,0,0],[0.5,0.5,0],[0.5,0.5,0]];labelBackgroundColor=none;rounded=0;html=1;whiteSpace=wrap;" parent="1" vertex="1">
            <mxGeometry x="680.41" y="1769" width="121.5" height="60" as="geometry" />
          </mxCell>
        </UserObject>
        <UserObject label="&lt;div style=&quot;font-size: 1px&quot;&gt;&lt;font style=&quot;font-size:8.47px;font-family:Calibri;color:#000000;direction:ltr;letter-spacing:0px;line-height:100%;opacity:1&quot;&gt;Pega NodeType:&lt;br&gt;&lt;/font&gt;&lt;/div&gt;Stream&amp;nbsp;" tags="Background" id="M_-9Dg6sCtWMjmafzQ-w-325">
          <mxCell style="verticalAlign=middle;align=center;overflow=width;vsdxID=1217;fillColor=#44aac4;gradientColor=#31859b;gradientDirection=north;shape=stencil(vVPLcsMgDPwajtYA6qTmnKb/wTTYZkqNB9PG/fviymmCXSan5KbHSmIlluF+7PRgmORjDP7dnOwxdgxfmJS270ywMVkMDwz3jQ+mDf6zP5I/6Bk5Wx/+a+4wUZ3aQY1zleTfFBGc//qvBNfhLeXCAkdASehwhgsQFJny+nO/WsHTAqj0ZMcq+Kij9T2lF7DToTVVGlY1TrdZajwZM2zCy/Oc7U15tuCwK5ORoFRORoGqMzLb9fBHcUEQz/9MLpyF4+osHER+l8JmHsCk8B8KTNSaCa6ZbDbzd/b7c7mpl2RctNZY50iq1/m1NlOIdI2HHw==);strokeColor=#404040;shadow=1;spacingTop=-3;spacingBottom=-3;spacingLeft=-3;spacingRight=-3;points=[[0.5,0,0],[0.5,0,0],[0.5,0.5,0],[1,0.5,0],[0.5,0.5,0]];labelBackgroundColor=none;rounded=0;html=1;whiteSpace=wrap;" parent="1" vertex="1">
            <mxGeometry x="691.16" y="1792" width="100" height="29" as="geometry" />
          </mxCell>
        </UserObject>
        <UserObject label="&lt;div style=&quot;font-size: 1px&quot;&gt;&lt;font style=&quot;font-size:8.47px;font-family:Calibri;color:#000000;direction:ltr;letter-spacing:0px;line-height:120%;opacity:1&quot;&gt;&lt;font style=&quot;border-color: var(--border-color); letter-spacing: 0px; direction: ltr; line-height: 10.164px; opacity: 1;&quot;&gt;Tomcat Server– 1 (&lt;/font&gt;&lt;font style=&quot;border-color: var(--border-color); letter-spacing: 0px; direction: ltr; line-height: 10.164px; opacity: 1;&quot;&gt;Core – 4 . RAM 16 GB)&lt;/font&gt;&lt;br&gt;&lt;/font&gt;&lt;/div&gt;" tags="Background" id="M_-9Dg6sCtWMjmafzQ-w-326">
          <mxCell style="verticalAlign=top;align=left;overflow=width;vsdxID=1109;fillColor=#d7d0e3;gradientColor=#e7e3ee;gradientDirection=north;shape=stencil(nZBLDoAgDERP0z3SIyjew0SURgSD+Lu9kMZoXLhwN9O+tukAlrNpJg1SzDH4QW/URgNYgZTkjA4UkwJUgGXng+6DX1zLfmoymdXo17xh5zmRJ6Q42BWCfc2oJfdAr+Yv+AP9Cb7OJ3H/2JG1HNGz/84klThPVCc=);strokeColor=#404040;shadow=1;points=[[1,0.5,0],[0.5,0,0],[0.5,0.5,0],[0.5,0.5,0]];labelBackgroundColor=none;rounded=0;html=1;whiteSpace=wrap;" parent="1" vertex="1">
            <mxGeometry x="549" y="1768" width="121.5" height="60" as="geometry" />
          </mxCell>
        </UserObject>
        <UserObject label="&lt;div style=&quot;font-size: 1px&quot;&gt;&lt;font style=&quot;font-size:8.47px;font-family:Calibri;color:#000000;direction:ltr;letter-spacing:0px;line-height:100%;opacity:1&quot;&gt;Pega NodeType:&lt;br&gt;&lt;/font&gt;&lt;/div&gt;Stream&amp;nbsp;" tags="Background" id="M_-9Dg6sCtWMjmafzQ-w-327">
          <mxCell style="verticalAlign=middle;align=center;overflow=width;vsdxID=1217;fillColor=#44aac4;gradientColor=#31859b;gradientDirection=north;shape=stencil(vVPLcsMgDPwajtYA6qTmnKb/wTTYZkqNB9PG/fviymmCXSan5KbHSmIlluF+7PRgmORjDP7dnOwxdgxfmJS270ywMVkMDwz3jQ+mDf6zP5I/6Bk5Wx/+a+4wUZ3aQY1zleTfFBGc//qvBNfhLeXCAkdASehwhgsQFJny+nO/WsHTAqj0ZMcq+Kij9T2lF7DToTVVGlY1TrdZajwZM2zCy/Oc7U15tuCwK5ORoFRORoGqMzLb9fBHcUEQz/9MLpyF4+osHER+l8JmHsCk8B8KTNSaCa6ZbDbzd/b7c7mpl2RctNZY50iq1/m1NlOIdI2HHw==);strokeColor=#404040;shadow=1;spacingTop=-3;spacingBottom=-3;spacingLeft=-3;spacingRight=-3;points=[[0.5,0,0],[0.5,0,0],[0.5,0.5,0],[1,0.5,0],[0.5,0.5,0]];labelBackgroundColor=none;rounded=0;html=1;whiteSpace=wrap;" parent="1" vertex="1">
            <mxGeometry x="560.5" y="1791" width="100" height="29" as="geometry" />
          </mxCell>
        </UserObject>
        <UserObject label="&lt;div style=&quot;font-size: 1px&quot;&gt;&lt;font style=&quot;font-size:11.29px;font-family:Calibri;color:#000000;direction:ltr;letter-spacing:0px;line-height:120%;opacity:1&quot;&gt;APP Zone&lt;/font&gt;&lt;font style=&quot;font-size:11.29px;font-family:Calibri;color:#000000;direction:ltr;letter-spacing:0px;line-height:120%;opacity:1&quot;&gt;&lt;br&gt;&lt;/font&gt;&lt;/div&gt;" tags="Background" id="M_-9Dg6sCtWMjmafzQ-w-328">
          <mxCell style="verticalAlign=top;align=left;overflow=width;vsdxID=1096;fillColor=#f0f0f0;gradientColor=#ffffff;gradientDirection=north;shape=stencil(nZBLDoAgDERP0z3SIyjew0SURgSD+Lu9kMZoXLhwN9O+tukAlrNpJg1SzDH4QW/URgNYgZTkjA4UkwJUgGXng+6DX1zLfmoymdXo17xh5zmRJ6Q42BWCfc2oJfdAr+Yv+AP9Cb7OJ3H/2JG1HNGz/84klThPVCc=);strokeColor=#404040;shadow=1;points=[[1,0.5,0],[0.5,0,0],[0.5,0.5,0],[0.5,0.5,0]];labelBackgroundColor=none;rounded=0;html=1;whiteSpace=wrap;" parent="1" vertex="1">
            <mxGeometry x="998" y="1405.5" width="812" height="670" as="geometry" />
          </mxCell>
        </UserObject>
        <UserObject label="&lt;div style=&quot;font-size: 1px&quot;&gt;&lt;font style=&quot;font-size:11.29px;font-family:Calibri;color:#000000;direction:ltr;letter-spacing:0px;line-height:120%;opacity:1&quot;&gt;DMZ Zone&lt;/font&gt;&lt;font style=&quot;font-size:11.29px;font-family:Calibri;color:#000000;direction:ltr;letter-spacing:0px;line-height:120%;opacity:1&quot;&gt;&lt;br/&gt;&lt;/font&gt;&lt;/div&gt;" tags="Background" id="M_-9Dg6sCtWMjmafzQ-w-329">
          <mxCell style="verticalAlign=top;align=left;overflow=width;vsdxID=1098;fillColor=#f0f0f0;gradientColor=#ffffff;gradientDirection=north;shape=stencil(nZBLDoAgDERP0z3SIyjew0SURgSD+Lu9kMZoXLhwN9O+tukAlrNpJg1SzDH4QW/URgNYgZTkjA4UkwJUgGXng+6DX1zLfmoymdXo17xh5zmRJ6Q42BWCfc2oJfdAr+Yv+AP9Cb7OJ3H/2JG1HNGz/84klThPVCc=);strokeColor=#404040;shadow=1;points=[[1,0.5,0],[0.5,0,0],[0.5,0.5,0],[0.5,0.5,0]];labelBackgroundColor=none;rounded=0;html=1;whiteSpace=wrap;" parent="1" vertex="1">
            <mxGeometry x="1001" y="881.5" width="788" height="226" as="geometry" />
          </mxCell>
        </UserObject>
        <UserObject label="&lt;div style=&quot;font-size: 1px&quot;&gt;&lt;font style=&quot;font-size:11.29px;font-family:Calibri;color:#000000;direction:ltr;letter-spacing:0px;line-height:120%;opacity:1&quot;&gt;WebUser Nodes&lt;br&gt;&lt;/font&gt;&lt;/div&gt;" tags="Background" id="M_-9Dg6sCtWMjmafzQ-w-330">
          <mxCell style="verticalAlign=top;align=center;overflow=width;vsdxID=1100;fillColor=#8fa350;gradientColor=none;fillOpacity=20;shape=stencil(vVPLlsIgDP0aluUgtFO71s5/cJS2nMHSk+JY/15qcBQ7OKtxl8cN4Sa5RGzGTg6KcDY6sF/qpPeuI2JLONd9p0A7bxFRE7FpLKgW7LHfoz/IGTlbB/s9vzBhXVVSXs1VnJ0xsmLs6n8iXMLO5yDAOS0FoiHAK1p8YGSK62/vVYwWoWbK5KTHDKyTTtse8wFtJLQq892yxsg2So0npYZFOPzP6F69aE7z8hWbnMds1jSP2Sznw97Fxc969UvnBJNi/bwXlkdMEoN5A5HUPaQubMHkdnOpwfxs/f+5/KkXb9y11mhjUKqP+Wdt+hDqWtQX);strokeColor=#404040;shadow=1;points=[[0.5,0,0],[0.5,0,0],[0.5,0.5,0],[1,0.5,0],[0.5,0.5,0]];labelBackgroundColor=none;rounded=0;html=1;whiteSpace=wrap;" parent="1" vertex="1">
            <mxGeometry x="1049" y="1424.5" width="630" height="125.5" as="geometry" />
          </mxCell>
        </UserObject>
        <UserObject label="" tags="Background" id="M_-9Dg6sCtWMjmafzQ-w-331">
          <mxCell style="vsdxID=1111;edgeStyle=orthogonalEdgeStyle;dashed=1;dashPattern=8.00 4.00 1.00 4.00;startArrow=none;endArrow=none;spacingTop=0;spacingBottom=0;spacingLeft=0;spacingRight=0;verticalAlign=middle;html=1;labelBackgroundColor=#ffffff;rounded=0;" parent="1" edge="1">
            <mxGeometry relative="1" as="geometry">
              <mxPoint as="offset" />
              <mxPoint x="985" y="1372.5" as="sourcePoint" />
              <mxPoint x="1850" y="1372.5" as="targetPoint" />
            </mxGeometry>
          </mxCell>
        </UserObject>
        <mxCell id="M_-9Dg6sCtWMjmafzQ-w-332" value="" style="edgeStyle=orthogonalEdgeStyle;rounded=1;orthogonalLoop=1;jettySize=auto;html=1;strokeWidth=5;shape=link;" parent="1" source="M_-9Dg6sCtWMjmafzQ-w-334" target="M_-9Dg6sCtWMjmafzQ-w-328" edge="1">
          <mxGeometry relative="1" as="geometry" />
        </mxCell>
        <mxCell id="M_-9Dg6sCtWMjmafzQ-w-333" value="&lt;font style=&quot;font-size: 17px;&quot;&gt;DX API V2&lt;/font&gt;" style="edgeLabel;html=1;align=center;verticalAlign=middle;resizable=0;points=[];" parent="M_-9Dg6sCtWMjmafzQ-w-332" vertex="1" connectable="0">
          <mxGeometry x="0.025" y="-4" relative="1" as="geometry">
            <mxPoint as="offset" />
          </mxGeometry>
        </mxCell>
        <UserObject label="&lt;div style=&quot;font-size: 1px&quot;&gt;&lt;font style=&quot;font-size:11.29px;font-family:Calibri;color:#000000;direction:ltr;letter-spacing:0px;line-height:120%;opacity:1&quot;&gt;Internal API Gateway Cluster&lt;br/&gt;&lt;/font&gt;&lt;/div&gt;" tags="Background" id="M_-9Dg6sCtWMjmafzQ-w-334">
          <mxCell style="verticalAlign=top;align=center;overflow=width;vsdxID=1156;fillColor=#8fa350;gradientColor=none;fillOpacity=20;shape=stencil(vZPbEoIgEIafhksdhKy8LnsPJlGZSJyVyt4+bOmAZRfN1N0e/mX5FpbwVVeLVhJGOwtmJ0+qsDXha8KYamoJyjqL8JzwVWlAVmAOTYF+KwblYO3NcTihx7psOZQwekY3ofTqb1ArYOty4LVJnKWoBi/ncTLDSB/W387L5vFi4RWR6FUXgbHCKtNg3qu1gEpGrltUalEFqe4kZfsS9vfTqpHTzXnM+EeaZExDlwHNaDj0XyDsTdtvGSZG8geKqZ/wloTdf9KDZJYGJOFU7o/9e5DPO+KMx3KVSmvczef8eBldCBeZ5xc=);strokeColor=#404040;shadow=1;points=[[0.5,0,0],[0.5,0,0],[0.5,0.5,0],[1,0.5,0],[0.5,0.5,0]];labelBackgroundColor=none;rounded=0;html=1;whiteSpace=wrap;" parent="1" vertex="1">
            <mxGeometry x="1029" y="907.5" width="710" height="180" as="geometry" />
          </mxCell>
        </UserObject>
        <UserObject label="&lt;div style=&quot;font-size: 1px&quot;&gt;&lt;font style=&quot;font-size:8.47px;font-family:Calibri;color:#000000;direction:ltr;letter-spacing:0px;line-height:120%;opacity:1&quot;&gt;Web Server– 1 (&lt;/font&gt;&lt;font style=&quot;font-size:8.47px;font-family:Calibri;color:#000000;direction:ltr;letter-spacing:0px;line-height:120%;opacity:1&quot;&gt;Core – 4 . RAM 16 GB)&lt;br&gt;&lt;/font&gt;&lt;/div&gt;" tags="Background" id="M_-9Dg6sCtWMjmafzQ-w-335">
          <mxCell style="verticalAlign=top;align=left;overflow=width;vsdxID=1157;fillColor=#d7d0e3;gradientColor=#e7e3ee;gradientDirection=north;shape=stencil(nZBLDoAgDERP0z3SIyjew0SURgSD+Lu9kMZoXLhwN9O+tukAlrNpJg1SzDH4QW/URgNYgZTkjA4UkwJUgGXng+6DX1zLfmoymdXo17xh5zmRJ6Q42BWCfc2oJfdAr+Yv+AP9Cb7OJ3H/2JG1HNGz/84klThPVCc=);strokeColor=#404040;shadow=1;points=[[1,0.5,0],[0.5,0,0],[0.5,0.5,0],[0.5,0.5,0]];labelBackgroundColor=none;rounded=0;html=1;whiteSpace=wrap;" parent="1" vertex="1">
            <mxGeometry x="1207.41" y="938" width="158" height="132" as="geometry" />
          </mxCell>
        </UserObject>
        <UserObject label="&lt;div style=&quot;font-size: 1px&quot;&gt;&lt;font style=&quot;font-size:8.47px;font-family:Calibri;color:#000000;direction:ltr;letter-spacing:0px;line-height:120%;opacity:1&quot;&gt;&lt;font style=&quot;border-color: var(--border-color); letter-spacing: 0px; direction: ltr; line-height: 10.164px; opacity: 1;&quot;&gt;Web Server– 1 (&lt;/font&gt;&lt;font style=&quot;border-color: var(--border-color); letter-spacing: 0px; direction: ltr; line-height: 10.164px; opacity: 1;&quot;&gt;Core – 4 . RAM 16 GB)&lt;/font&gt;&lt;br&gt;&lt;/font&gt;&lt;/div&gt;" tags="Background" id="M_-9Dg6sCtWMjmafzQ-w-336">
          <mxCell style="verticalAlign=top;align=left;overflow=width;vsdxID=1159;fillColor=#d7d0e3;gradientColor=#e7e3ee;gradientDirection=north;shape=stencil(nZBLDoAgDERP0z3SIyjew0SURgSD+Lu9kMZoXLhwN9O+tukAlrNpJg1SzDH4QW/URgNYgZTkjA4UkwJUgGXng+6DX1zLfmoymdXo17xh5zmRJ6Q42BWCfc2oJfdAr+Yv+AP9Cb7OJ3H/2JG1HNGz/84klThPVCc=);strokeColor=#404040;shadow=1;points=[[1,0.5,0],[0.5,0,0],[0.5,0.5,0],[0.5,0.5,0]];labelBackgroundColor=none;rounded=0;html=1;whiteSpace=wrap;" parent="1" vertex="1">
            <mxGeometry x="1380.41" y="938" width="158" height="132" as="geometry" />
          </mxCell>
        </UserObject>
        <UserObject label="&lt;div style=&quot;font-size: 1px&quot;&gt;&lt;font style=&quot;font-size:8.47px;font-family:Calibri;color:#000000;direction:ltr;letter-spacing:0px;line-height:100%;opacity:1&quot;&gt;React Orchestrator by Pega&lt;br&gt;&lt;/font&gt;&lt;/div&gt;" tags="Background" id="M_-9Dg6sCtWMjmafzQ-w-338">
          <mxCell style="verticalAlign=middle;align=center;overflow=width;vsdxID=1165;fillColor=#44aac4;gradientColor=#31859b;gradientDirection=north;shape=stencil(vVPLcsMgDPwajmYw+FGfE+c/mAbbTIjxyCRx/764Ig/qOD01N6FdIVZiidiMnRwU4Wx0YA/qoveuI2JLONd9p0A7HxFRE7FpLKgW7Knf43mQM3OOjvY83zBhXVVSUc1VnH1hJmXs57xDuoRPj0Ggc8oFsiHQc1rmmJni+ut9laA8C4xETnpMwDrptO0RD2wjoVWJ75Y0RrYRNF6UGhbp8D6je7XevKBl8VJNulCTRmqW82Hv0sJpkT7pvKIkq2IlBc3ivawM5g1C1v7DUyUezWMlHzSLd7IYzG3r/6/lT7/44O61RhuDVn3Ef3vTp9DXov4G);strokeColor=#404040;shadow=1;spacingTop=-3;spacingBottom=-3;spacingLeft=-3;spacingRight=-3;points=[[0.5,0,0],[0.5,0,0],[0.5,0.5,0],[1,0.5,0],[0.5,0.5,0]];labelBackgroundColor=none;rounded=0;html=1;whiteSpace=wrap;" parent="1" vertex="1">
            <mxGeometry x="1398.41" y="973" width="121" height="46" as="geometry" />
          </mxCell>
        </UserObject>
        <UserObject label="&lt;div style=&quot;&quot;&gt;&lt;font face=&quot;Calibri&quot;&gt;&lt;span style=&quot;font-size: 8.47px;&quot;&gt;React Orchestrator by Pega&lt;/span&gt;&lt;/font&gt;&lt;/div&gt;" tags="Background" id="M_-9Dg6sCtWMjmafzQ-w-339">
          <mxCell style="verticalAlign=middle;align=center;overflow=width;vsdxID=1166;fillColor=#44aac4;gradientColor=#31859b;gradientDirection=north;shape=stencil(vVPLcsMgDPwajmYw+FGfE+c/mAbbTIjxyCRx/764Ig/qOD01N6FdIVZiidiMnRwU4Wx0YA/qoveuI2JLONd9p0A7HxFRE7FpLKgW7Knf43mQM3OOjvY83zBhXVVSUc1VnH1hJmXs57xDuoRPj0Ggc8oFsiHQc1rmmJni+ut9laA8C4xETnpMwDrptO0RD2wjoVWJ75Y0RrYRNF6UGhbp8D6je7XevKBl8VJNulCTRmqW82Hv0sJpkT7pvKIkq2IlBc3ivawM5g1C1v7DUyUezWMlHzSLd7IYzG3r/6/lT7/44O61RhuDVn3Ef3vTp9DXov4G);strokeColor=#404040;shadow=1;spacingTop=-3;spacingBottom=-3;spacingLeft=-3;spacingRight=-3;points=[[0.5,0,0],[0.5,0,0],[0.5,0.5,0],[1,0.5,0],[0.5,0.5,0]];labelBackgroundColor=none;rounded=0;html=1;whiteSpace=wrap;" parent="1" vertex="1">
            <mxGeometry x="1225.41" y="973" width="121" height="46" as="geometry" />
          </mxCell>
        </UserObject>
        <UserObject label="&lt;div style=&quot;font-size: 1px&quot;&gt;&lt;font style=&quot;font-size:8.47px;font-family:Calibri;color:#000000;direction:ltr;letter-spacing:0px;line-height:100%;opacity:1&quot;&gt;NodeJS&lt;br&gt;&lt;/font&gt;&lt;/div&gt;" tags="Background" id="M_-9Dg6sCtWMjmafzQ-w-341">
          <mxCell style="verticalAlign=middle;align=center;overflow=width;vsdxID=1169;fillColor=#44aac4;gradientColor=#31859b;gradientDirection=north;shape=stencil(vZNNcsMgDIVPw9IMoNQN6zS9B5Ngmyk1Hpk0zu2LK/pDHLerZiekJ+RP5jHYjZ0ZLFNijBhe7NkdY8fgiSnl+s6iiylisGewawLaFsOpP9J5MLNyjl7D23zDRH36kYOeu5S4UEYK8XF+JrnBQ6phliuugNSY5ZqLmjJT2f9531bzTRZUZnJjhSGa6EJP5Sz2BltbpWFV401blMaztcMinT/Pu96uz5aC17/CyBJmy/VDAbNcj7gXi+K1vDF5hWSjS5JELmWBsrKZO5CsvIebJLB4YBKuSRab+frt/8/yp19S8O21xnlPVv1Zv/ZmSpGvYf8O);strokeColor=#404040;shadow=1;spacingTop=-3;spacingBottom=-3;spacingLeft=-3;spacingRight=-3;points=[[0.5,0,0],[0.5,0,0],[0.5,0.5,0],[1,0.5,0],[0.5,0.5,0]];labelBackgroundColor=none;rounded=0;html=1;whiteSpace=wrap;" parent="1" vertex="1">
            <mxGeometry x="1399.41" y="1033" width="121" height="29" as="geometry" />
          </mxCell>
        </UserObject>
        <UserObject label="&lt;div style=&quot;font-size: 1px&quot;&gt;&lt;font style=&quot;font-size:8.47px;font-family:Calibri;color:#000000;direction:ltr;letter-spacing:0px;line-height:100%;opacity:1&quot;&gt;NodeJS&lt;br&gt;&lt;/font&gt;&lt;/div&gt;" tags="Background" id="M_-9Dg6sCtWMjmafzQ-w-343">
          <mxCell style="verticalAlign=middle;align=center;overflow=width;vsdxID=1171;fillColor=#44aac4;gradientColor=#31859b;gradientDirection=north;shape=stencil(vZNNcsMgDIVPw9IMoNQN6zS9B5Ngmyk1Hpk0zu2LK/pDHLerZiekJ+RP5jHYjZ0ZLFNijBhe7NkdY8fgiSnl+s6iiylisGewawLaFsOpP9J5MLNyjl7D23zDRH36kYOeu5S4UEYK8XF+JrnBQ6phliuugNSY5ZqLmjJT2f9531bzTRZUZnJjhSGa6EJP5Sz2BltbpWFV401blMaztcMinT/Pu96uz5aC17/CyBJmy/VDAbNcj7gXi+K1vDF5hWSjS5JELmWBsrKZO5CsvIebJLB4YBKuSRab+frt/8/yp19S8O21xnlPVv1Zv/ZmSpGvYf8O);strokeColor=#404040;shadow=1;spacingTop=-3;spacingBottom=-3;spacingLeft=-3;spacingRight=-3;points=[[0.5,0,0],[0.5,0,0],[0.5,0.5,0],[1,0.5,0],[0.5,0.5,0]];labelBackgroundColor=none;rounded=0;html=1;whiteSpace=wrap;" parent="1" vertex="1">
            <mxGeometry x="1225.41" y="1033" width="121" height="29" as="geometry" />
          </mxCell>
        </UserObject>
        <UserObject label="" tags="Background" id="M_-9Dg6sCtWMjmafzQ-w-344">
          <mxCell style="vsdxID=1187;fillColor=none;gradientColor=none;points=[[0.5,0.5,0]];labelBackgroundColor=none;rounded=0;strokeColor=none;html=1;whiteSpace=wrap;" parent="1" vertex="1">
            <mxGeometry x="1338.4099999999999" y="1897.5" width="159" height="140" as="geometry" />
          </mxCell>
        </UserObject>
        <mxCell id="M_-9Dg6sCtWMjmafzQ-w-345" style="vsdxID=1188;edgeStyle=none;startArrow=none;endArrow=none;startSize=5;endSize=5;spacingTop=0;spacingBottom=0;spacingLeft=0;spacingRight=0;verticalAlign=middle;html=1;labelBackgroundColor=none;rounded=0;" parent="M_-9Dg6sCtWMjmafzQ-w-344" edge="1">
          <mxGeometry relative="1" as="geometry">
            <mxPoint x="-1" as="offset" />
            <Array as="points" />
            <mxPoint x="34" y="78" as="sourcePoint" />
            <mxPoint x="82" y="78" as="targetPoint" />
          </mxGeometry>
        </mxCell>
        <mxCell id="M_-9Dg6sCtWMjmafzQ-w-346" style="vsdxID=1189;fillColor=#FFFFFF;gradientColor=none;shape=stencil(nZBLDoAgDERP0z3SIyjew0SURgSD+Lu9kMZoXLhwN9O+tukAlrNpJg1SzDH4QW/URgNYgZTkjA4UkwJUgGXng+6DX1zLfmoymdXo17xh5zmRJ6Q42BWCfc2oJfdAr+Yv+AP9Cb7OJ3H/2JG1HNGz/84klThPVCc=);points=[[0.5,0.5,0]];labelBackgroundColor=none;rounded=0;html=1;whiteSpace=wrap;" parent="M_-9Dg6sCtWMjmafzQ-w-344" vertex="1">
          <mxGeometry x="82" y="53" width="35" height="47" as="geometry" />
        </mxCell>
        <mxCell id="M_-9Dg6sCtWMjmafzQ-w-347" style="vsdxID=1190;fillColor=#fff2cc;shape=stencil(vVzbdtw2DPwaP0aHF1Ein3v5D5/WSXzqxjkbt03+vtjuSoRmsNSKafuWyOCOSIIACAz0EH/48vHx89NDcF/eTq+/Pf31/Ovbx4f440MIz58+Pp2e3+RfD/Gnh/jD+9fT04fT6x+ffr38//PjWfL8r99f/zz/wtfLOHceEdy3y//mwc3/PPj5Ivvy/Omm7DQNaWwID8635X/543R5E7+MCOU64vpkdkNMl0dfw+WRHwe3SF0fzXEYw1UqXh5FX6UiSt2AH/PgMuCrX76CTX7IGfDVW17BpjD4aYu/s1znEfOR9eUBuHk4QRmBE8xDnrfzS7C43g0wt+tLrRPzfpibC7sO8Digoo6AqkQW2DiUchQ5DtNE4NkDeBxiIPxcAD8MZSb8MjXxwyKg8QsuuUglwl+lFD6vfGnuuIxBeNGBRPAB4UW3cPkFC9BFqDTR/apdCh53XoQYncFzIPTgd9DHzOiZ4H0k+DgCvhvmTPhjG1/GRMJHcyJSE564QObsLJUYP+7gR8/4ZYs/lqqhFT/BkRepyRP+1Jy/jKGDL2Mi4Y8z4U8j4aPqh2VFbsM7Vj44eWLyZ7Q8IjQBejbQc3vyuZqUip4DwQeGz5HgPRoekWq60nFef0bj4+bPqz4o/IKLPw+e51+aR1/GOLQ8uPNTtacLeFxjhhV8Wt96BReptiOfWPPiqg0KH41+HDzCp2WhNbxvGn0ZMzO8R/i0ngWNnwk/oeGLO2ZXxvhC+AGXf2S7K1LgdEQq4cGPi125hT8OEQ1v9bAKn7yOSKHuj6sj0vjtkx8HAx7svgiR3eEwUqRI9UWqDS9ng/HHCfBXC7LBx+2vplDjt7e/ui+Fn3D5JQ5A0xPZ7vuqyhU/NWMOGZPo6A8JTY+vSlLx0fD6gTd/x+u4gXWfnI4b0OfVQHEFF//J4HkH3KPLjat/X9CjuFzeejh4IjTz3NvRrowZ0ejHdQMVPEU8kXxezNWBKPzmzsuYCZ2ejMHp5yVw0viZ4D2b/bbPjXNd1wqPPlek1pdU8ODzRCry9HPz4MsYY/czHPyoHJrCx+2fFlXb4De1T8ZE1n30+SLFqw9XnZgGBi/txU/WqS+4+IlvWiIVCd5hwLNK3cIfDaNfUPXFm7HqFzB6UXkmBd/0+bH+jMbHvY81jFf4uPexGvCIUrfxVz+p8MHpxTCw6hU8esFSvdJWPbkKGtNH1fPW0SuofJy6qVK38N3qulr4bgkcW/ih1KD43vnLmICXDV5+kXLG9sP6B9PytrdfxiS2/JhnEKlgzB8sf5jXY3u3+suYiWOOAokGkYocc+F1Q6Q44mwf/jCtZlbDg9cXqckwfQHgp/qS9xo/GYOJNWVUF/i0ukJt+FH70sC2p233ZUhgdMzriZTjoCfj5o/Wfaft92SMcfgy2F6RCrz5GVe/noe7/X5Y45INPsDX4FZHPbj6pultRz0yxrHuz2D6QxhmAx91PyyXi/ujPhkTWPlx90N1qSrkxemr3Pa9Ma+MSbz6E07fW7uPaZ7gOMW6F/DLmNmI+AHeWUc/4fTdMB697cgYz5Y3YdGiVJuu8EH5RSqx5W/f9mRM5OUfM+Gz4R8ngncGfPPs+zwY6AHQs3XXi+D3RMqx7rev+l75KnXXB8MvUobljbj6c60V3JvqkDGU5lNJlAVsqpULlWqBqFekKMe7l+rxZqbL4+5PVa9VqmkmfOPK0051+WTlOjzUV7yZ6nKIn2r5795M33kMwTuGX2PjFZ6wSfX3Upx+rJn7mmLFK4dIRSPFC5bnXNTk/Ho7xasiHJ3iRd2PVnkF3e7ZYXB9o+12zwed8/vo987qQPC486E68HvT+/VXdHEBFz+w4qkSRMVKePD3ihu1+qTxE07e17hUFXdw8z3nePeKO94sbpHh9Xzwubh0lmL49vQ9xzyqalZLx0ZtK6Ddr9Xzu2t75zGs+zj7msC7WVgUmcCK3za6hX2OKpeGRShhvKMqr3ERCrjyexXdUq9wtwvKpSrn7XpyodzqXjU7V1Oiiulwzcm1YKBOAZRV8uqj7i7lqyEehyhwj4EGEwmMctoeePWW36oGQozniJeSKa3ntrhI2NgyczLyO/7fNTq+QQktIlMtMnsjZloc18zC1tg8FRgGmKfi+JGkCxCTLJTRqPYAORY91khZuaYlvMcU9thhIwZCjoX2FhUeORZ9bsgIQSwviBpvesEeL0x5J6ZY6FihPkp4++qLQibefKx2qVBJBUG4+j0xWI3tKCpT8Z8RgmC1qTP+JHfEFAsdJav4F0PAnvh75DorUyz0LaHiY86z6/6RjJQ/gCfj2o8Mi857FykeMyz07VBdBxC/59458cFnioW+HSt8jD/77t2Fk05IsdDZAXXvx9tPX97BSHohxUJnR1TeA3W/J++STYoH2v1MhocpFl1Zp2Jc+5FhoTNjCh53vy/nRuQqZljozKDK+cEVoDPnOKHhZYaFToyqlCvBH8+4eqvYhXdvnRdW8Ijfk3EOzOxjloVOi6uEO8D35dtnLncgy0JXBRQ8Tr+v3mCUW5BloYsiKhVE8MerLaO1++h2dU1IwWO+v6falAxmIbEsdE1M4eP2dxXbDMuLXl8XBFUgAuh9lUbj6CPNQtdDOQ76nkLrbFUbMOepq8EKHi1fT505c/qDaRa6Gq7wcfN76uyqgt+s8xvFLqrzd/AMNINB4TPPwTh8/wrPwlsML8JXbJAGfh/PhA8fsVyike9nmksfy2Yytn8mfGrnYJpFF8toNGkekGpQVCgFjwS3Ho5VsqpdSLPQTDCFHwj/MMVsousmkSw0B07ZfVS9PnZdNgw/7r3iACp83Ps+dqFx9JBloTmQCh8Xv4ddqWibCh/gs8XwQpZFF7e0WHV2rDZpBqzCR93v49Ya5FLk9Dtr95Fl0Ucs5pgHORaK+qzAkVDfQan21mUPwb116pFh0cUnDxa/BhkWmvWu8EHxO/n0mXceGRaa9a9um8gp7+knUJ0KCj8AfjSMPlIsuroplJ9SV33uJrEoHrj8fd0klOZjioXueVGpFlT+vm4aI9WFFAvd86NSTdhN09NNNBm5DmRYjGamCxkWnb1UhbUPKRa63WvFB/C+LrIRfS5TLHSvm0rxounp6aJT/XkqxYu6nznNxxSLviZCaiRjhoVudKSM//c1UJLdYYqF7vJU1QXc/L7+UeqdDmT3dZerKu5g73Zf/6xR2zL6d2dWPqN/93j/sOeIhzkWySxuIceis3/aqK/g9FWL983KYk/reGCvwyQL1d5ewZFk0dk3T+0cdt8+4tt9+4e/GxD5psVUC/11A1VNh/pK13cT/p0vNhz+UITRs+0o1NIfvrg+ymRutdD10d63MZDiEQdqWc7Us+q2sEZSxbVg1c14gXVbTLfFUy8VtwL3zNJtoTJ3xxFbz1HJ5A7+DBBZxlrjWH51syrbD5ssf+wSLhleZSvOr3J4ALzO3lTLtOzYfe9/UHyEtMHudA8PwBfanfBquu+bwUFxBynC3fc/PABfaDvhkmq0uf7Expg/nn6RP57WzyAtPuL0bX2yGPLrT0p0NNs/6b6+e/z6/OXd6fXt8e359dPmGL88nj48vRO4d+9fHj9c1+vypy9/PT19Vo/d973g7Tn/Jy8o/6ifq3r//PJy+dqV/jt+3koeXT6NFX/6Gw==);points=[[0.5,0.5,0]];labelBackgroundColor=none;rounded=0;html=1;whiteSpace=wrap;strokeColor=#d6b656;" parent="M_-9Dg6sCtWMjmafzQ-w-344" vertex="1">
          <mxGeometry x="1" width="112" height="93" as="geometry" />
        </mxCell>
        <mxCell id="M_-9Dg6sCtWMjmafzQ-w-348" value="&lt;div style=&quot;font-size: 1px&quot;&gt;&lt;font style=&quot;font-size:14.11px;font-family:Calibri;color:#4d1e1a;direction:ltr;letter-spacing:0px;line-height:120%;opacity:1&quot;&gt;POSTGRESQL / Oracle SERVER 200 GB&lt;br&gt;&lt;/font&gt;&lt;/div&gt;" style="text;vsdxID=1187;fillColor=none;gradientColor=none;points=[[0.5,0.5,0]];labelBackgroundColor=none;rounded=0;strokeColor=none;html=1;whiteSpace=wrap;verticalAlign=middle;align=center;overflow=width;;html=1;" parent="M_-9Dg6sCtWMjmafzQ-w-344" vertex="1">
          <mxGeometry x="-39.41" y="101" width="198.41" height="39" as="geometry" />
        </mxCell>
        <UserObject label="&lt;div style=&quot;font-size: 1px&quot;&gt;&lt;/div&gt;" tags="Background" id="M_-9Dg6sCtWMjmafzQ-w-349">
          <mxCell style="verticalAlign=top;align=center;overflow=width;vsdxID=1216;fillColor=#0070c0;gradientColor=none;fillOpacity=20;shape=stencil(vZNLcsMgDIZPw9IMFkkcr9PkHkyDbabUeGSSuLcvrugDu0xWyU5IvxCfkJg8jJ0aNAMxenRv+mbOvmPyhQGYvtNofLCYPDJ5aBzqFt2lP9N5ULNytt7ddb5hory64qKcs0B8kKcU4ut8IrnC1xDDKJe83JAaoxy2fEeeKc3/vq8KglhhKtRkxgKdV964nuJRbRW2ugjVisaqNgmNN62HlTu+z5pe54vDhss6jwO82i1wgG/LhGfdIfEsGuB1/U/lDMp+iSI57BOUXG+egJKbicyUiWo5ZQnIqjE///54krsbE4zfbWuMtbSsf+PL7Qwu2mx5/AQ=);strokeColor=#404040;shadow=1;points=[[0.5,0,0],[0.5,0,0],[0.5,0.5,0],[1,0.5,0],[0.5,0.5,0]];labelBackgroundColor=none;rounded=0;html=1;whiteSpace=wrap;" parent="1" vertex="1">
            <mxGeometry x="1059" y="1437.5" width="610" height="92.5" as="geometry" />
          </mxCell>
        </UserObject>
        <UserObject label="&lt;div style=&quot;font-size: 1px&quot;&gt;&lt;font style=&quot;font-size:8.47px;font-family:Calibri;color:#000000;direction:ltr;letter-spacing:0px;line-height:120%;opacity:1&quot;&gt;Active Active Cluster&lt;br/&gt;&lt;/font&gt;&lt;/div&gt;" tags="Background" id="M_-9Dg6sCtWMjmafzQ-w-353">
          <mxCell style="verticalAlign=top;align=center;overflow=width;vsdxID=1164;fillColor=#8fa350;gradientColor=none;fillOpacity=20;shape=stencil(vZNBcsMgDEVPw9IMiDQ26zS9B9Ngmyk1HkwT5/bFlZOUUNpVsxPSR/IT/kTspl6NmgCbgndv+mQOoSfimQCYodfehBgRsSdi1zqvO+8+hgOeR7Uol+jdHZcOM96TNd3K5RawM2Y4Y1/nF5Qr/xprfpUDhRrV/iJvqNxgak4bXBo2jNawKio1m6nyLqhg3ID1VW2V73QVx1WtVV1Smk5aj1l6/UBrBl0eziWF5jcevs14WMqTr4g9igao4D9MLj0Nz1BSktJqHkBS+iUKKGJzhyLpE09YstVcX/7/Yf40TQxuhmuNtejX7/V7g8YUmlvsPwE=);strokeColor=#404040;shadow=1;points=[[0.5,0,0],[0.5,0,0],[0.5,0.5,0],[1,0.5,0],[0.5,0.5,0]];labelBackgroundColor=none;rounded=0;html=1;whiteSpace=wrap;" parent="1" vertex="1">
            <mxGeometry x="1205.91" y="972.5" width="333.5" height="57.5" as="geometry" />
          </mxCell>
        </UserObject>
        <UserObject label="&lt;div style=&quot;font-size: 1px&quot;&gt;&lt;font style=&quot;font-size:8.47px;font-family:Calibri;color:#000000;direction:ltr;letter-spacing:0px;line-height:120%;opacity:1&quot;&gt;&lt;font style=&quot;border-color: var(--border-color); letter-spacing: 0px; direction: ltr; line-height: 10.164px; opacity: 1;&quot;&gt;Tomcat Server– 1 (&lt;/font&gt;&lt;font style=&quot;border-color: var(--border-color); letter-spacing: 0px; direction: ltr; line-height: 10.164px; opacity: 1;&quot;&gt;Core – 4 . RAM 16 GB)&lt;/font&gt;&lt;br&gt;&lt;/font&gt;&lt;/div&gt;" tags="Background" id="M_-9Dg6sCtWMjmafzQ-w-354">
          <mxCell style="verticalAlign=top;align=left;overflow=width;vsdxID=1109;fillColor=#d7d0e3;gradientColor=#e7e3ee;gradientDirection=north;shape=stencil(nZBLDoAgDERP0z3SIyjew0SURgSD+Lu9kMZoXLhwN9O+tukAlrNpJg1SzDH4QW/URgNYgZTkjA4UkwJUgGXng+6DX1zLfmoymdXo17xh5zmRJ6Q42BWCfc2oJfdAr+Yv+AP9Cb7OJ3H/2JG1HNGz/84klThPVCc=);strokeColor=#404040;shadow=1;points=[[1,0.5,0],[0.5,0,0],[0.5,0.5,0],[0.5,0.5,0]];labelBackgroundColor=none;rounded=0;html=1;whiteSpace=wrap;" parent="1" vertex="1">
            <mxGeometry x="1215.9099999999999" y="1446.5" width="121.5" height="60" as="geometry" />
          </mxCell>
        </UserObject>
        <UserObject label="&lt;div style=&quot;font-size: 1px&quot;&gt;&lt;font style=&quot;font-size:8.47px;font-family:Calibri;color:#000000;direction:ltr;letter-spacing:0px;line-height:100%;opacity:1&quot;&gt;Pega NodeType:WebUser&lt;br&gt;&lt;/font&gt;&lt;/div&gt;" tags="Background" id="M_-9Dg6sCtWMjmafzQ-w-355">
          <mxCell style="verticalAlign=middle;align=center;overflow=width;vsdxID=1217;fillColor=#44aac4;gradientColor=#31859b;gradientDirection=north;shape=stencil(vVPLcsMgDPwajtYA6qTmnKb/wTTYZkqNB9PG/fviymmCXSan5KbHSmIlluF+7PRgmORjDP7dnOwxdgxfmJS270ywMVkMDwz3jQ+mDf6zP5I/6Bk5Wx/+a+4wUZ3aQY1zleTfFBGc//qvBNfhLeXCAkdASehwhgsQFJny+nO/WsHTAqj0ZMcq+Kij9T2lF7DToTVVGlY1TrdZajwZM2zCy/Oc7U15tuCwK5ORoFRORoGqMzLb9fBHcUEQz/9MLpyF4+osHER+l8JmHsCk8B8KTNSaCa6ZbDbzd/b7c7mpl2RctNZY50iq1/m1NlOIdI2HHw==);strokeColor=#404040;shadow=1;spacingTop=-3;spacingBottom=-3;spacingLeft=-3;spacingRight=-3;points=[[0.5,0,0],[0.5,0,0],[0.5,0.5,0],[1,0.5,0],[0.5,0.5,0]];labelBackgroundColor=none;rounded=0;html=1;whiteSpace=wrap;" parent="1" vertex="1">
            <mxGeometry x="1226.6599999999999" y="1469.5" width="100" height="29" as="geometry" />
          </mxCell>
        </UserObject>
        <UserObject label="&lt;div style=&quot;font-size: 1px&quot;&gt;&lt;font style=&quot;font-size:8.47px;font-family:Calibri;color:#000000;direction:ltr;letter-spacing:0px;line-height:120%;opacity:1&quot;&gt;&lt;font style=&quot;border-color: var(--border-color); letter-spacing: 0px; direction: ltr; line-height: 10.164px; opacity: 1;&quot;&gt;Tomcat Server– 1 (&lt;/font&gt;&lt;font style=&quot;border-color: var(--border-color); letter-spacing: 0px; direction: ltr; line-height: 10.164px; opacity: 1;&quot;&gt;Core – 4 . RAM 16 GB)&lt;/font&gt;&lt;br&gt;&lt;/font&gt;&lt;/div&gt;" tags="Background" id="M_-9Dg6sCtWMjmafzQ-w-360">
          <mxCell style="verticalAlign=top;align=left;overflow=width;vsdxID=1109;fillColor=#d7d0e3;gradientColor=#e7e3ee;gradientDirection=north;shape=stencil(nZBLDoAgDERP0z3SIyjew0SURgSD+Lu9kMZoXLhwN9O+tukAlrNpJg1SzDH4QW/URgNYgZTkjA4UkwJUgGXng+6DX1zLfmoymdXo17xh5zmRJ6Q42BWCfc2oJfdAr+Yv+AP9Cb7OJ3H/2JG1HNGz/84klThPVCc=);strokeColor=#404040;shadow=1;points=[[1,0.5,0],[0.5,0,0],[0.5,0.5,0],[0.5,0.5,0]];labelBackgroundColor=none;rounded=0;html=1;whiteSpace=wrap;" parent="1" vertex="1">
            <mxGeometry x="1360" y="1446.5" width="121.5" height="60" as="geometry" />
          </mxCell>
        </UserObject>
        <UserObject label="&lt;div style=&quot;font-size: 1px&quot;&gt;&lt;font style=&quot;font-size:8.47px;font-family:Calibri;color:#000000;direction:ltr;letter-spacing:0px;line-height:100%;opacity:1&quot;&gt;Pega NodeType:WebUser&lt;br&gt;&lt;/font&gt;&lt;/div&gt;" tags="Background" id="M_-9Dg6sCtWMjmafzQ-w-361">
          <mxCell style="verticalAlign=middle;align=center;overflow=width;vsdxID=1217;fillColor=#44aac4;gradientColor=#31859b;gradientDirection=north;shape=stencil(vVPLcsMgDPwajtYA6qTmnKb/wTTYZkqNB9PG/fviymmCXSan5KbHSmIlluF+7PRgmORjDP7dnOwxdgxfmJS270ywMVkMDwz3jQ+mDf6zP5I/6Bk5Wx/+a+4wUZ3aQY1zleTfFBGc//qvBNfhLeXCAkdASehwhgsQFJny+nO/WsHTAqj0ZMcq+Kij9T2lF7DToTVVGlY1TrdZajwZM2zCy/Oc7U15tuCwK5ORoFRORoGqMzLb9fBHcUEQz/9MLpyF4+osHER+l8JmHsCk8B8KTNSaCa6ZbDbzd/b7c7mpl2RctNZY50iq1/m1NlOIdI2HHw==);strokeColor=#404040;shadow=1;spacingTop=-3;spacingBottom=-3;spacingLeft=-3;spacingRight=-3;points=[[0.5,0,0],[0.5,0,0],[0.5,0.5,0],[1,0.5,0],[0.5,0.5,0]];labelBackgroundColor=none;rounded=0;html=1;whiteSpace=wrap;" parent="1" vertex="1">
            <mxGeometry x="1371.5" y="1469.5" width="100" height="29" as="geometry" />
          </mxCell>
        </UserObject>
        <UserObject label="&lt;div style=&quot;font-size: 1px&quot;&gt;&lt;font style=&quot;font-size:8.47px;font-family:Calibri;color:#000000;direction:ltr;letter-spacing:0px;line-height:120%;opacity:1&quot;&gt;&lt;font style=&quot;border-color: var(--border-color); letter-spacing: 0px; direction: ltr; line-height: 10.164px; opacity: 1;&quot;&gt;Tomcat Server– 1 (&lt;/font&gt;&lt;font style=&quot;border-color: var(--border-color); letter-spacing: 0px; direction: ltr; line-height: 10.164px; opacity: 1;&quot;&gt;Core – 4 . RAM 16 GB)&lt;/font&gt;&lt;br&gt;&lt;/font&gt;&lt;/div&gt;" tags="Background" id="M_-9Dg6sCtWMjmafzQ-w-362">
          <mxCell style="verticalAlign=top;align=left;overflow=width;vsdxID=1109;fillColor=#d7d0e3;gradientColor=#e7e3ee;gradientDirection=north;shape=stencil(nZBLDoAgDERP0z3SIyjew0SURgSD+Lu9kMZoXLhwN9O+tukAlrNpJg1SzDH4QW/URgNYgZTkjA4UkwJUgGXng+6DX1zLfmoymdXo17xh5zmRJ6Q42BWCfc2oJfdAr+Yv+AP9Cb7OJ3H/2JG1HNGz/84klThPVCc=);strokeColor=#404040;shadow=1;points=[[1,0.5,0],[0.5,0,0],[0.5,0.5,0],[0.5,0.5,0]];labelBackgroundColor=none;rounded=0;html=1;whiteSpace=wrap;" parent="1" vertex="1">
            <mxGeometry x="1491.5" y="1446.5" width="121.5" height="60" as="geometry" />
          </mxCell>
        </UserObject>
        <UserObject label="&lt;div style=&quot;font-size: 1px&quot;&gt;&lt;font style=&quot;font-size:8.47px;font-family:Calibri;color:#000000;direction:ltr;letter-spacing:0px;line-height:100%;opacity:1&quot;&gt;Pega NodeType:WebUser&lt;br&gt;&lt;/font&gt;&lt;/div&gt;" tags="Background" id="M_-9Dg6sCtWMjmafzQ-w-363">
          <mxCell style="verticalAlign=middle;align=center;overflow=width;vsdxID=1217;fillColor=#44aac4;gradientColor=#31859b;gradientDirection=north;shape=stencil(vVPLcsMgDPwajtYA6qTmnKb/wTTYZkqNB9PG/fviymmCXSan5KbHSmIlluF+7PRgmORjDP7dnOwxdgxfmJS270ywMVkMDwz3jQ+mDf6zP5I/6Bk5Wx/+a+4wUZ3aQY1zleTfFBGc//qvBNfhLeXCAkdASehwhgsQFJny+nO/WsHTAqj0ZMcq+Kij9T2lF7DToTVVGlY1TrdZajwZM2zCy/Oc7U15tuCwK5ORoFRORoGqMzLb9fBHcUEQz/9MLpyF4+osHER+l8JmHsCk8B8KTNSaCa6ZbDbzd/b7c7mpl2RctNZY50iq1/m1NlOIdI2HHw==);strokeColor=#404040;shadow=1;spacingTop=-3;spacingBottom=-3;spacingLeft=-3;spacingRight=-3;points=[[0.5,0,0],[0.5,0,0],[0.5,0.5,0],[1,0.5,0],[0.5,0.5,0]];labelBackgroundColor=none;rounded=0;html=1;whiteSpace=wrap;" parent="1" vertex="1">
            <mxGeometry x="1502.25" y="1469.5" width="100" height="29" as="geometry" />
          </mxCell>
        </UserObject>
        <UserObject label="&lt;div style=&quot;font-size: 1px&quot;&gt;&lt;font style=&quot;font-size:8.47px;font-family:Calibri;color:#000000;direction:ltr;letter-spacing:0px;line-height:120%;opacity:1&quot;&gt;&lt;font style=&quot;border-color: var(--border-color); letter-spacing: 0px; direction: ltr; line-height: 10.164px; opacity: 1;&quot;&gt;Tomcat Server– 1 (&lt;/font&gt;&lt;font style=&quot;border-color: var(--border-color); letter-spacing: 0px; direction: ltr; line-height: 10.164px; opacity: 1;&quot;&gt;Core – 4 . RAM 16 GB)&lt;/font&gt;&lt;br&gt;&lt;/font&gt;&lt;/div&gt;" tags="Background" id="M_-9Dg6sCtWMjmafzQ-w-368">
          <mxCell style="verticalAlign=top;align=left;overflow=width;vsdxID=1109;fillColor=#d7d0e3;gradientColor=#e7e3ee;gradientDirection=north;shape=stencil(nZBLDoAgDERP0z3SIyjew0SURgSD+Lu9kMZoXLhwN9O+tukAlrNpJg1SzDH4QW/URgNYgZTkjA4UkwJUgGXng+6DX1zLfmoymdXo17xh5zmRJ6Q42BWCfc2oJfdAr+Yv+AP9Cb7OJ3H/2JG1HNGz/84klThPVCc=);strokeColor=#404040;shadow=1;points=[[1,0.5,0],[0.5,0,0],[0.5,0.5,0],[0.5,0.5,0]];labelBackgroundColor=none;rounded=0;html=1;whiteSpace=wrap;" parent="1" vertex="1">
            <mxGeometry x="1084.5" y="1445.5" width="121.5" height="60" as="geometry" />
          </mxCell>
        </UserObject>
        <UserObject label="&lt;div style=&quot;font-size: 1px&quot;&gt;&lt;font style=&quot;font-size:8.47px;font-family:Calibri;color:#000000;direction:ltr;letter-spacing:0px;line-height:100%;opacity:1&quot;&gt;Pega NodeType:WebUser&lt;br&gt;&lt;/font&gt;&lt;/div&gt;" tags="Background" id="M_-9Dg6sCtWMjmafzQ-w-369">
          <mxCell style="verticalAlign=middle;align=center;overflow=width;vsdxID=1217;fillColor=#44aac4;gradientColor=#31859b;gradientDirection=north;shape=stencil(vVPLcsMgDPwajtYA6qTmnKb/wTTYZkqNB9PG/fviymmCXSan5KbHSmIlluF+7PRgmORjDP7dnOwxdgxfmJS270ywMVkMDwz3jQ+mDf6zP5I/6Bk5Wx/+a+4wUZ3aQY1zleTfFBGc//qvBNfhLeXCAkdASehwhgsQFJny+nO/WsHTAqj0ZMcq+Kij9T2lF7DToTVVGlY1TrdZajwZM2zCy/Oc7U15tuCwK5ORoFRORoGqMzLb9fBHcUEQz/9MLpyF4+osHER+l8JmHsCk8B8KTNSaCa6ZbDbzd/b7c7mpl2RctNZY50iq1/m1NlOIdI2HHw==);strokeColor=#404040;shadow=1;spacingTop=-3;spacingBottom=-3;spacingLeft=-3;spacingRight=-3;points=[[0.5,0,0],[0.5,0,0],[0.5,0.5,0],[1,0.5,0],[0.5,0.5,0]];labelBackgroundColor=none;rounded=0;html=1;whiteSpace=wrap;" parent="1" vertex="1">
            <mxGeometry x="1096" y="1468.5" width="100" height="29" as="geometry" />
          </mxCell>
        </UserObject>
        <UserObject label="&lt;div style=&quot;font-size: 1px&quot;&gt;&lt;font style=&quot;font-size:11.29px;font-family:Calibri;color:#000000;direction:ltr;letter-spacing:0px;line-height:120%;opacity:1&quot;&gt;&lt;br&gt;&lt;/font&gt;&lt;/div&gt;&lt;div style=&quot;font-size: 1px&quot;&gt;&lt;font style=&quot;font-size:11.29px;font-family:Calibri;color:#000000;direction:ltr;letter-spacing:0px;line-height:120%;opacity:1&quot;&gt;Background Nodes&lt;br&gt;&lt;/font&gt;&lt;/div&gt;" tags="Background" id="M_-9Dg6sCtWMjmafzQ-w-370">
          <mxCell style="verticalAlign=top;align=center;overflow=width;vsdxID=1100;fillColor=#8fa350;gradientColor=none;fillOpacity=20;shape=stencil(vVPLlsIgDP0aluUgtFO71s5/cJS2nMHSk+JY/15qcBQ7OKtxl8cN4Sa5RGzGTg6KcDY6sF/qpPeuI2JLONd9p0A7bxFRE7FpLKgW7LHfoz/IGTlbB/s9vzBhXVVSXs1VnJ0xsmLs6n8iXMLO5yDAOS0FoiHAK1p8YGSK62/vVYwWoWbK5KTHDKyTTtse8wFtJLQq892yxsg2So0npYZFOPzP6F69aE7z8hWbnMds1jSP2Sznw97Fxc969UvnBJNi/bwXlkdMEoN5A5HUPaQubMHkdnOpwfxs/f+5/KkXb9y11mhjUKqP+Wdt+hDqWtQX);strokeColor=#404040;shadow=1;points=[[0.5,0,0],[0.5,0,0],[0.5,0.5,0],[1,0.5,0],[0.5,0.5,0]];labelBackgroundColor=none;rounded=0;html=1;whiteSpace=wrap;" parent="1" vertex="1">
            <mxGeometry x="1210.41" y="1610" width="310" height="150" as="geometry" />
          </mxCell>
        </UserObject>
        <UserObject label="&lt;div style=&quot;font-size: 1px&quot;&gt;&lt;/div&gt;" tags="Background" id="M_-9Dg6sCtWMjmafzQ-w-371">
          <mxCell style="verticalAlign=top;align=center;overflow=width;vsdxID=1216;fillColor=#0070c0;gradientColor=none;fillOpacity=20;shape=stencil(vZNLcsMgDIZPw9IMFkkcr9PkHkyDbabUeGSSuLcvrugDu0xWyU5IvxCfkJg8jJ0aNAMxenRv+mbOvmPyhQGYvtNofLCYPDJ5aBzqFt2lP9N5ULNytt7ddb5hory64qKcs0B8kKcU4ut8IrnC1xDDKJe83JAaoxy2fEeeKc3/vq8KglhhKtRkxgKdV964nuJRbRW2ugjVisaqNgmNN62HlTu+z5pe54vDhss6jwO82i1wgG/LhGfdIfEsGuB1/U/lDMp+iSI57BOUXG+egJKbicyUiWo5ZQnIqjE///54krsbE4zfbWuMtbSsf+PL7Qwu2mx5/AQ=);strokeColor=#404040;shadow=1;points=[[0.5,0,0],[0.5,0,0],[0.5,0.5,0],[1,0.5,0],[0.5,0.5,0]];labelBackgroundColor=none;rounded=0;html=1;whiteSpace=wrap;" parent="1" vertex="1">
            <mxGeometry x="1220.41" y="1639" width="290" height="111" as="geometry" />
          </mxCell>
        </UserObject>
        <UserObject label="&lt;div style=&quot;font-size: 1px&quot;&gt;&lt;font style=&quot;font-size:8.47px;font-family:Calibri;color:#000000;direction:ltr;letter-spacing:0px;line-height:120%;opacity:1&quot;&gt;&lt;font style=&quot;border-color: var(--border-color); letter-spacing: 0px; direction: ltr; line-height: 10.164px; opacity: 1;&quot;&gt;Tomcat Server– 1 (&lt;/font&gt;&lt;font style=&quot;border-color: var(--border-color); letter-spacing: 0px; direction: ltr; line-height: 10.164px; opacity: 1;&quot;&gt;Core – 4 . RAM 16 GB)&lt;/font&gt;&lt;br&gt;&lt;/font&gt;&lt;/div&gt;" tags="Background" id="M_-9Dg6sCtWMjmafzQ-w-372">
          <mxCell style="verticalAlign=top;align=left;overflow=width;vsdxID=1109;fillColor=#d7d0e3;gradientColor=#e7e3ee;gradientDirection=north;shape=stencil(nZBLDoAgDERP0z3SIyjew0SURgSD+Lu9kMZoXLhwN9O+tukAlrNpJg1SzDH4QW/URgNYgZTkjA4UkwJUgGXng+6DX1zLfmoymdXo17xh5zmRJ6Q42BWCfc2oJfdAr+Yv+AP9Cb7OJ3H/2JG1HNGz/84klThPVCc=);strokeColor=#404040;shadow=1;points=[[1,0.5,0],[0.5,0,0],[0.5,0.5,0],[0.5,0.5,0]];labelBackgroundColor=none;rounded=0;html=1;whiteSpace=wrap;" parent="1" vertex="1">
            <mxGeometry x="1377.32" y="1648" width="121.5" height="60" as="geometry" />
          </mxCell>
        </UserObject>
        <UserObject label="&lt;div style=&quot;font-size: 1px&quot;&gt;&lt;font style=&quot;font-size:8.47px;font-family:Calibri;color:#000000;direction:ltr;letter-spacing:0px;line-height:100%;opacity:1&quot;&gt;Pega NodeType:&lt;br&gt;&lt;/font&gt;&lt;/div&gt;Background&amp;nbsp;" tags="Background" id="M_-9Dg6sCtWMjmafzQ-w-373">
          <mxCell style="verticalAlign=middle;align=center;overflow=width;vsdxID=1217;fillColor=#44aac4;gradientColor=#31859b;gradientDirection=north;shape=stencil(vVPLcsMgDPwajtYA6qTmnKb/wTTYZkqNB9PG/fviymmCXSan5KbHSmIlluF+7PRgmORjDP7dnOwxdgxfmJS270ywMVkMDwz3jQ+mDf6zP5I/6Bk5Wx/+a+4wUZ3aQY1zleTfFBGc//qvBNfhLeXCAkdASehwhgsQFJny+nO/WsHTAqj0ZMcq+Kij9T2lF7DToTVVGlY1TrdZajwZM2zCy/Oc7U15tuCwK5ORoFRORoGqMzLb9fBHcUEQz/9MLpyF4+osHER+l8JmHsCk8B8KTNSaCa6ZbDbzd/b7c7mpl2RctNZY50iq1/m1NlOIdI2HHw==);strokeColor=#404040;shadow=1;spacingTop=-3;spacingBottom=-3;spacingLeft=-3;spacingRight=-3;points=[[0.5,0,0],[0.5,0,0],[0.5,0.5,0],[1,0.5,0],[0.5,0.5,0]];labelBackgroundColor=none;rounded=0;html=1;whiteSpace=wrap;" parent="1" vertex="1">
            <mxGeometry x="1388.07" y="1671" width="100" height="29" as="geometry" />
          </mxCell>
        </UserObject>
        <UserObject label="&lt;div style=&quot;font-size: 1px&quot;&gt;&lt;font style=&quot;font-size:8.47px;font-family:Calibri;color:#000000;direction:ltr;letter-spacing:0px;line-height:120%;opacity:1&quot;&gt;&lt;font style=&quot;border-color: var(--border-color); letter-spacing: 0px; direction: ltr; line-height: 10.164px; opacity: 1;&quot;&gt;Tomcat Server– 1 (&lt;/font&gt;&lt;font style=&quot;border-color: var(--border-color); letter-spacing: 0px; direction: ltr; line-height: 10.164px; opacity: 1;&quot;&gt;Core – 4 . RAM 16 GB)&lt;/font&gt;&lt;br&gt;&lt;/font&gt;&lt;/div&gt;" tags="Background" id="M_-9Dg6sCtWMjmafzQ-w-378">
          <mxCell style="verticalAlign=top;align=left;overflow=width;vsdxID=1109;fillColor=#d7d0e3;gradientColor=#e7e3ee;gradientDirection=north;shape=stencil(nZBLDoAgDERP0z3SIyjew0SURgSD+Lu9kMZoXLhwN9O+tukAlrNpJg1SzDH4QW/URgNYgZTkjA4UkwJUgGXng+6DX1zLfmoymdXo17xh5zmRJ6Q42BWCfc2oJfdAr+Yv+AP9Cb7OJ3H/2JG1HNGz/84klThPVCc=);strokeColor=#404040;shadow=1;points=[[1,0.5,0],[0.5,0,0],[0.5,0.5,0],[0.5,0.5,0]];labelBackgroundColor=none;rounded=0;html=1;whiteSpace=wrap;" parent="1" vertex="1">
            <mxGeometry x="1245.91" y="1647" width="121.5" height="60" as="geometry" />
          </mxCell>
        </UserObject>
        <UserObject label="&lt;div style=&quot;font-size: 1px&quot;&gt;&lt;font style=&quot;font-size:8.47px;font-family:Calibri;color:#000000;direction:ltr;letter-spacing:0px;line-height:100%;opacity:1&quot;&gt;Pega NodeType:&lt;br&gt;&lt;/font&gt;&lt;/div&gt;Background&amp;nbsp;" tags="Background" id="M_-9Dg6sCtWMjmafzQ-w-379">
          <mxCell style="verticalAlign=middle;align=center;overflow=width;vsdxID=1217;fillColor=#44aac4;gradientColor=#31859b;gradientDirection=north;shape=stencil(vVPLcsMgDPwajtYA6qTmnKb/wTTYZkqNB9PG/fviymmCXSan5KbHSmIlluF+7PRgmORjDP7dnOwxdgxfmJS270ywMVkMDwz3jQ+mDf6zP5I/6Bk5Wx/+a+4wUZ3aQY1zleTfFBGc//qvBNfhLeXCAkdASehwhgsQFJny+nO/WsHTAqj0ZMcq+Kij9T2lF7DToTVVGlY1TrdZajwZM2zCy/Oc7U15tuCwK5ORoFRORoGqMzLb9fBHcUEQz/9MLpyF4+osHER+l8JmHsCk8B8KTNSaCa6ZbDbzd/b7c7mpl2RctNZY50iq1/m1NlOIdI2HHw==);strokeColor=#404040;shadow=1;spacingTop=-3;spacingBottom=-3;spacingLeft=-3;spacingRight=-3;points=[[0.5,0,0],[0.5,0,0],[0.5,0.5,0],[1,0.5,0],[0.5,0.5,0]];labelBackgroundColor=none;rounded=0;html=1;whiteSpace=wrap;" parent="1" vertex="1">
            <mxGeometry x="1257.41" y="1670" width="100" height="29" as="geometry" />
          </mxCell>
        </UserObject>
      </root>
    </mxGraphModel>
  </diagram>
</mxfile>
